SplineFontDB: 3.2
FontName: TengwarRacina
FullName: Tengwar Racina
FamilyName: Tengwar Racina
Weight: Regular
Copyright: Shankar Sivarajan\nBased on glyphs from Tengwar Gothika by Enrique Mombello.
Version: 
ItalicAngle: 0
UnderlinePosition: -125
UnderlineWidth: 100
Ascent: 1638
Descent: 410
InvalidEm: 0
LayerCount: 2
Layer: 0 1 "Back" 1
Layer: 1 1 "Fore" 0
XUID: [1021 146 -1796264217 19784]
StyleMap: 0x0040
FSType: 0
OS2Version: 3
OS2_WeightWidthSlopeOnly: 0
OS2_UseTypoMetrics: 0
CreationTime: 1115869583
ModificationTime: 1689126901
PfmFamily: 17
TTFWeight: 400
TTFWidth: 5
LineGap: 27
VLineGap: 0
Panose: 2 11 5 0 0 0 0 0 0 0
OS2TypoAscent: 1707
OS2TypoAOffset: 0
OS2TypoDescent: -676
OS2TypoDOffset: 0
OS2TypoLinegap: 0
OS2WinAscent: 2009
OS2WinAOffset: 0
OS2WinDescent: 1299
OS2WinDOffset: 0
HheadAscent: 2009
HheadAOffset: 0
HheadDescent: -1299
HheadDOffset: 0
OS2SubXSize: 1434
OS2SubYSize: 1331
OS2SubXOff: 0
OS2SubYOff: 293
OS2SupXSize: 1434
OS2SupYSize: 1331
OS2SupXOff: 0
OS2SupYOff: 928
OS2StrikeYSize: 102
OS2StrikeYPos: 512
OS2CapHeight: 1701
OS2XHeight: 909
OS2Vendor: '    '
OS2CodePages: 00000003.00000000
OS2UnicodeRanges: 800000af.4000284a.00000000.00000000
Lookup: 6 0 0 "OsseTick" { "OsseTick contextual 0"  "OsseTick contextual 1"  "OsseTick contextual 2"  "OsseTick contextual 3"  "OsseTick contextual 4"  "OsseTick contextual 5"  } ['liga' ('DFLT' <'dflt' > ) ]
Lookup: 1 0 0 "Single Substitution lookup 1" { "Single Substitution lookup 1 subtable"  } []
Lookup: 1 0 0 "Single Substitution lookup 2" { "Single Substitution lookup 2 subtable"  } []
Lookup: 1 0 0 "Single Substitution lookup 3" { "Single Substitution lookup 3 subtable"  } []
Lookup: 1 0 0 "Single Substitution lookup 4" { "Single Substitution lookup 4 subtable"  } []
Lookup: 1 0 0 "Single Substitution lookup 5" { "Single Substitution lookup 5 subtable"  } []
Lookup: 1 0 0 "Single Substitution lookup 6" { "Single Substitution lookup 6 subtable"  } []

StartChar: parenleft
Encoding: 2 40 1
Width: 639
GlyphClass: 1
Flags: W
LayerCount: 2
Fore
SplineSet
599 1698 m 1,0,1
 415 1388 415 1388 326.5 1057 c 128,-1,2
 238 726 238 726 238 359 c 0,3,4
 238 203 238 203 256.5 50.5 c 128,-1,5
 275 -102 275 -102 314 -249 c 128,-1,6
 353 -396 353 -396 413 -536.5 c 128,-1,7
 473 -677 473 -677 555 -808 c 1,8,-1
 352 -937 l 1,9,10
 280 -819 280 -819 227.5 -686 c 128,-1,11
 175 -553 175 -553 141.5 -411 c 128,-1,12
 108 -269 108 -269 91.5 -120.5 c 128,-1,13
 75 28 75 28 75 177 c 0,14,15
 75 392 75 392 105.5 600 c 128,-1,16
 136 808 136 808 196.5 1003.5 c 128,-1,17
 257 1199 257 1199 348 1380 c 128,-1,18
 439 1561 439 1561 560 1722 c 1,19,-1
 599 1698 l 1,0,1
EndSplineSet
Validated: 1
EndChar

StartChar: parenright
Encoding: 3 41 2
Width: 639
GlyphClass: 1
Flags: W
LayerCount: 2
Fore
SplineSet
40 -914 m 1,0,1
 224 -604 224 -604 312.5 -273 c 128,-1,2
 401 58 401 58 401 425 c 0,3,4
 401 581 401 581 382.5 733.5 c 128,-1,5
 364 886 364 886 325 1033 c 128,-1,6
 286 1180 286 1180 226 1320.5 c 128,-1,7
 166 1461 166 1461 84 1592 c 1,8,-1
 287 1721 l 1,9,10
 359 1602 359 1602 411.5 1469.5 c 128,-1,11
 464 1337 464 1337 497.5 1195 c 128,-1,12
 531 1053 531 1053 547.5 904.5 c 128,-1,13
 564 756 564 756 564 607 c 0,14,15
 564 392 564 392 533.5 184 c 128,-1,16
 503 -24 503 -24 442.5 -219.5 c 128,-1,17
 382 -415 382 -415 291 -596 c 128,-1,18
 200 -777 200 -777 79 -938 c 1,19,-1
 40 -914 l 1,0,1
EndSplineSet
Validated: 1
EndChar

StartChar: colon
Encoding: 4 58 3
Width: 513
GlyphClass: 1
Flags: W
LayerCount: 2
Fore
SplineSet
73 770 m 1,0,-1
 233 930 l 1,1,-1
 393 770 l 1,2,-1
 233 610 l 1,3,-1
 73 770 l 1,0,-1
73 112 m 1,4,-1
 233 272 l 1,5,-1
 393 112 l 1,6,-1
 233 -48 l 1,7,-1
 73 112 l 1,4,-1
EndSplineSet
Validated: 1
EndChar

StartChar: semicolon
Encoding: 5 59 4
Width: 614
GlyphClass: 1
Flags: W
LayerCount: 2
Fore
SplineSet
333 332 m 1,0,1
 322 317 322 317 307.5 291.5 c 128,-1,2
 293 266 293 266 281 234 c 0,3,4
 263 187 263 187 263 149 c 0,5,6
 263 116 263 116 276 84.5 c 128,-1,7
 289 53 289 53 304 22 c 128,-1,8
 319 -9 319 -9 332 -40 c 128,-1,9
 345 -71 345 -71 345 -104 c 0,10,11
 345 -164 345 -164 321.5 -206.5 c 128,-1,12
 298 -249 298 -249 258.5 -280 c 128,-1,13
 219 -311 219 -311 167 -332.5 c 128,-1,14
 115 -354 115 -354 57 -371 c 1,15,-1
 42 -317 l 1,16,17
 69 -306 69 -306 98 -294 c 128,-1,18
 127 -282 127 -282 150.5 -266.5 c 128,-1,19
 174 -251 174 -251 189 -229.5 c 128,-1,20
 204 -208 204 -208 204 -178 c 0,21,22
 204 -144 204 -144 189 -115.5 c 128,-1,23
 174 -87 174 -87 153 -61 c 0,24,25
 127 -27 127 -27 105 13.5 c 128,-1,26
 83 54 83 54 83 98 c 0,27,28
 83 118 83 118 86.5 140.5 c 128,-1,29
 90 163 90 163 96 184 c 128,-1,30
 102 205 102 205 109.5 223 c 128,-1,31
 117 241 117 241 125 252 c 1,32,33
 150 265 150 265 168 275 c 128,-1,34
 186 285 186 285 204 296 c 128,-1,35
 222 307 222 307 243.5 322 c 128,-1,36
 265 337 265 337 297 360 c 1,37,-1
 333 332 l 1,0,1
46 770 m 1,38,-1
 206 929 l 1,39,-1
 367 770 l 1,40,-1
 206 610 l 1,41,-1
 46 770 l 1,38,-1
EndSplineSet
Validated: 1
EndChar

StartChar: question
Encoding: 6 63 5
Width: 905
GlyphClass: 1
Flags: W
LayerCount: 2
Fore
SplineSet
80 1496 m 1,0,1
 106 1528 106 1528 144.5 1552 c 128,-1,2
 183 1576 183 1576 229 1591.5 c 128,-1,3
 275 1607 275 1607 325 1615 c 128,-1,4
 375 1623 375 1623 423 1623 c 0,5,6
 489 1623 489 1623 557.5 1600 c 128,-1,7
 626 1577 626 1577 682.5 1535 c 128,-1,8
 739 1493 739 1493 777.5 1434.5 c 128,-1,9
 816 1376 816 1376 823 1305 c 0,10,11
 828 1247 828 1247 812 1191.5 c 128,-1,12
 796 1136 796 1136 765.5 1082 c 128,-1,13
 735 1028 735 1028 694.5 975.5 c 128,-1,14
 654 923 654 923 612.5 873 c 128,-1,15
 571 823 571 823 531 774.5 c 128,-1,16
 491 726 491 726 462 679 c 0,17,18
 439 644 439 644 439 608 c 0,19,20
 439 596 439 596 441.5 584.5 c 128,-1,21
 444 573 444 573 452 561 c 0,22,23
 459 551 459 551 468.5 541.5 c 128,-1,24
 478 532 478 532 487 526 c 128,-1,25
 496 520 496 520 504.5 517.5 c 128,-1,26
 513 515 513 515 518 519 c 2,27,-1
 543 537 l 1,28,-1
 579 503 l 1,29,-1
 397 327 l 1,30,31
 359 350 359 350 331 389.5 c 128,-1,32
 303 429 303 429 288.5 477 c 128,-1,33
 274 525 274 525 275 577 c 128,-1,34
 276 629 276 629 297 677 c 0,35,36
 316 720 316 720 352 766.5 c 128,-1,37
 388 813 388 813 428.5 862 c 128,-1,38
 469 911 469 911 509 962.5 c 128,-1,39
 549 1014 549 1014 576 1068 c 0,40,41
 605 1124 605 1124 605 1184.5 c 128,-1,42
 605 1245 605 1245 579.5 1295.5 c 128,-1,43
 554 1346 554 1346 505.5 1378.5 c 128,-1,44
 457 1411 457 1411 388 1411 c 0,45,46
 357 1411 357 1411 325.5 1405 c 128,-1,47
 294 1399 294 1399 265 1386 c 0,48,49
 227 1369 227 1369 202 1342 c 128,-1,50
 177 1315 177 1315 179 1277 c 2,51,-1
 181 1224 l 1,52,-1
 138 1214 l 1,53,-1
 80 1496 l 1,0,1
220 85 m 1,54,-1
 380 244 l 1,55,-1
 541 85 l 1,56,-1
 380 -75 l 1,57,-1
 220 85 l 1,54,-1
EndSplineSet
Validated: 33
EndChar

StartChar: exclam
Encoding: 1 33 6
Width: 686
GlyphClass: 1
Flags: W
LayerCount: 2
Fore
SplineSet
186 85 m 1,0,-1
 346 244 l 1,1,-1
 507 85 l 1,2,-1
 346 -75 l 1,3,-1
 186 85 l 1,0,-1
450 973 m 1,4,-1
 407 642 l 2,5,6
 403 618 403 618 403 600.5 c 128,-1,7
 403 583 403 583 418 561 c 0,8,9
 425 551 425 551 434.5 541.5 c 128,-1,10
 444 532 444 532 453 526 c 128,-1,11
 462 520 462 520 470.5 517.5 c 128,-1,12
 479 515 479 515 484 519 c 2,13,-1
 509 537 l 1,14,-1
 545 503 l 1,15,-1
 389 337 l 1,16,17
 360 358 360 358 330 380.5 c 128,-1,18
 300 403 300 403 274 429 c 0,19,20
 240 464 240 464 220.5 506.5 c 128,-1,21
 201 549 201 549 208 604 c 2,22,-1
 252 973 l 1,23,-1
 300 1346 l 2,24,25
 302 1359 302 1359 293 1372.5 c 128,-1,26
 284 1386 284 1386 271 1396 c 128,-1,27
 258 1406 258 1406 244 1411 c 128,-1,28
 230 1416 230 1416 221 1412 c 2,29,-1
 172 1390 l 1,30,-1
 147 1427 l 1,31,-1
 362 1571 l 1,32,33
 389 1551 389 1551 415.5 1529 c 128,-1,34
 442 1507 442 1507 461 1480 c 0,35,36
 481 1451 481 1451 490 1414 c 128,-1,37
 499 1377 499 1377 494 1342 c 2,38,-1
 450 973 l 1,4,-1
EndSplineSet
Validated: 33
EndChar

StartChar: tinco
Encoding: 13 57344 7
Width: 1027
GlyphClass: 2
Flags: W
AnchorPoint: "inside" 500 450 basechar 0
AnchorPoint: "shook" 650 100 basechar 0
AnchorPoint: "TehtaBelow" 750 -150 basechar 0
AnchorPoint: "TehtaAbove" 575 1200 basechar 0
LayerCount: 2
Fore
SplineSet
296 -676 m 1,0,1
 251 -632 251 -632 202 -593 c 128,-1,2
 153 -554 153 -554 100 -519 c 1,3,4
 151 -475 151 -475 190 -419 c 1,5,-1
 190 642 l 2,6,7
 190 657 190 657 186 672.5 c 128,-1,8
 182 688 182 688 175 702 c 128,-1,9
 168 716 168 716 159.5 726.5 c 128,-1,10
 151 737 151 737 142 741 c 1,11,-1
 72 709 l 1,12,-1
 40 745 l 1,13,-1
 271 930 l 1,14,-1
 350 865 l 2,15,16
 381 839 381 839 391.5 807.5 c 128,-1,17
 402 776 402 776 402 754 c 2,18,-1
 402 691 l 1,19,-1
 701 930 l 1,20,-1
 871 765 l 1,21,-1
 960 856 l 1,22,-1
 983 856 l 1,23,-1
 1007 833 l 1,24,25
 995 817 995 817 974 797 c 128,-1,26
 953 777 953 777 933 750 c 128,-1,27
 913 723 913 723 898.5 687.5 c 128,-1,28
 884 652 884 652 884 605 c 2,29,-1
 884 243 l 2,30,31
 884 195 884 195 863.5 156 c 128,-1,32
 843 117 843 117 814 86.5 c 128,-1,33
 785 56 785 56 753 34.5 c 128,-1,34
 721 13 721 13 698 0 c 1,35,-1
 485 174 l 1,36,-1
 513 209 l 1,37,-1
 567 178 l 1,38,39
 581 181 581 181 599 194.5 c 128,-1,40
 617 208 617 208 633.5 227 c 128,-1,41
 650 246 650 246 661 268 c 128,-1,42
 672 290 672 290 672 310 c 2,43,-1
 672 671 l 1,44,-1
 573 751 l 1,45,-1
 402 614 l 1,46,-1
 402 -419 l 1,47,48
 441 -475 441 -475 492 -519 c 1,49,50
 439 -554 439 -554 390 -593 c 128,-1,51
 341 -632 341 -632 296 -676 c 1,0,1
EndSplineSet
Validated: 1
EndChar

StartChar: parma
Encoding: 14 57345 8
Width: 1084
GlyphClass: 2
Flags: W
AnchorPoint: "inside" 500 450 basechar 0
AnchorPoint: "shook" 940 100 basechar 0
AnchorPoint: "TehtaAbove" 575 1200 basechar 0
AnchorPoint: "TehtaBelow" 750 -150 basechar 0
LayerCount: 2
Fore
SplineSet
884 197 m 2,0,1
 884 192 884 192 884 182.5 c 128,-1,2
 884 173 884 173 883 162 c 128,-1,3
 882 151 882 151 880 140 c 128,-1,4
 878 129 878 129 874 121 c 1,5,6
 923 137 923 137 965 163 c 0,7,8
 998 183 998 183 1028 208 c 128,-1,9
 1058 233 1058 233 1084 260 c 1,10,11
 1078 222 1078 222 1063 178.5 c 128,-1,12
 1048 135 1048 135 1024 97 c 0,13,14
 998 55 998 55 961 27.5 c 128,-1,15
 924 0 924 0 876 0 c 2,16,-1
 402 0 l 1,17,-1
 402 -419 l 1,18,19
 441 -475 441 -475 492 -519 c 1,20,21
 439 -554 439 -554 390 -593 c 128,-1,22
 341 -632 341 -632 296 -676 c 1,23,24
 251 -632 251 -632 202 -593 c 128,-1,25
 153 -554 153 -554 100 -519 c 1,26,27
 151 -475 151 -475 190 -419 c 1,28,-1
 190 642 l 2,29,30
 190 657 190 657 186 672.5 c 128,-1,31
 182 688 182 688 175 702 c 128,-1,32
 168 716 168 716 159.5 726.5 c 128,-1,33
 151 737 151 737 142 741 c 1,34,-1
 72 709 l 1,35,-1
 40 745 l 1,36,-1
 271 930 l 1,37,-1
 350 865 l 2,38,39
 381 839 381 839 391.5 807.5 c 128,-1,40
 402 776 402 776 402 754 c 2,41,-1
 402 691 l 1,42,-1
 701 930 l 1,43,-1
 870 765 l 1,44,-1
 959 856 l 1,45,-1
 982 856 l 1,46,-1
 1006 833 l 1,47,48
 994 817 994 817 973 797 c 128,-1,49
 952 777 952 777 932.5 750 c 128,-1,50
 913 723 913 723 898.5 687.5 c 128,-1,51
 884 652 884 652 884 605 c 2,52,-1
 884 197 l 2,0,1
600 104 m 1,53,54
 628 110 628 110 650 153 c 128,-1,55
 672 196 672 196 672 274 c 2,56,-1
 672 671 l 1,57,-1
 573 751 l 1,58,-1
 402 614 l 1,59,-1
 402 104 l 1,60,-1
 600 104 l 1,53,54
EndSplineSet
Validated: 1
Substitution2: "Single Substitution lookup 32 subtable" parma.nofin
Substitution2: "Single Substitution lookup 31 subtable" parma.nofin
Substitution2: "Single Substitution lookup 30 subtable" parma.nofin
Substitution2: "Single Substitution lookup 29 subtable" parma.nofin
Substitution2: "Single Substitution lookup 28 subtable" parma.nofin
EndChar

StartChar: calma
Encoding: 15 57346 9
Width: 1045
GlyphClass: 2
Flags: W
AnchorPoint: "inside" 500 450 basechar 0
AnchorPoint: "shook" 800 800 basechar 0
AnchorPoint: "TehtaAbove" 575 1200 basechar 0
AnchorPoint: "TehtaBelow" 325 -150 basechar 0
LayerCount: 2
Fore
SplineSet
643 312 m 1,0,-1
 643 754 l 2,1,2
 643 776 643 776 653 807.5 c 128,-1,3
 663 839 663 839 695 865 c 2,4,-1
 774 930 l 1,5,-1
 1005 745 l 1,6,-1
 973 709 l 1,7,-1
 903 741 l 1,8,9
 894 737 894 737 885.5 726.5 c 128,-1,10
 877 716 877 716 870 702 c 128,-1,11
 863 688 863 688 859 672.5 c 128,-1,12
 855 657 855 657 855 642 c 2,13,-1
 855 -419 l 1,14,15
 894 -475 894 -475 945 -519 c 1,16,17
 892 -554 892 -554 843 -593 c 128,-1,18
 794 -632 794 -632 749 -676 c 1,19,20
 704 -632 704 -632 655 -593 c 128,-1,21
 606 -554 606 -554 553 -519 c 1,22,23
 604 -475 604 -475 643 -419 c 1,24,-1
 643 236 l 1,25,-1
 348 0 l 1,26,27
 325 13 325 13 292.5 34.5 c 128,-1,28
 260 56 260 56 231 86.5 c 128,-1,29
 202 117 202 117 181.5 156 c 128,-1,30
 161 195 161 195 161 243 c 2,31,-1
 161 605 l 2,32,33
 161 652 161 652 146.5 687.5 c 128,-1,34
 132 723 132 723 112.5 750 c 128,-1,35
 93 777 93 777 72.5 797 c 128,-1,36
 52 817 52 817 40 833 c 1,37,-1
 64 856 l 1,38,-1
 87 856 l 1,39,-1
 176 765 l 1,40,-1
 345 930 l 1,41,-1
 558 756 l 1,42,-1
 530 721 l 1,43,-1
 476 752 l 1,44,45
 469 747 469 747 451.5 733 c 128,-1,46
 434 719 434 719 416 698.5 c 128,-1,47
 398 678 398 678 384.5 653 c 128,-1,48
 371 628 371 628 373 602 c 2,49,-1
 373 310 l 2,50,51
 373 290 373 290 383.5 269 c 128,-1,52
 394 248 394 248 410 229.5 c 128,-1,53
 426 211 426 211 444 197 c 128,-1,54
 462 183 462 183 476 179 c 1,55,-1
 643 312 l 1,0,-1
EndSplineSet
Validated: 1
Substitution2: "Single Substitution lookup 32 subtable" calma.nofin
Substitution2: "Single Substitution lookup 31 subtable" calma.nofin
Substitution2: "Single Substitution lookup 30 subtable" calma.nofin
Substitution2: "Single Substitution lookup 29 subtable" calma.nofin
Substitution2: "Single Substitution lookup 28 subtable" calma.nofin
EndChar

StartChar: quesse
Encoding: 16 57347 10
Width: 1007
GlyphClass: 2
Flags: W
AnchorPoint: "inside" 500 450 basechar 0
AnchorPoint: "shook" 800 100 basechar 0
AnchorPoint: "TehtaBelow" 325 -150 basechar 0
AnchorPoint: "TehtaAbove" 575 1200 basechar 0
LayerCount: 2
Fore
SplineSet
183 737 m 2,0,1
 183 763 183 763 187 778.5 c 128,-1,2
 191 794 191 794 199 805 c 1,3,-1
 184 805 l 2,4,5
 145 805 145 805 113.5 828 c 128,-1,6
 82 851 82 851 59 886 c 128,-1,7
 36 921 36 921 21 962.5 c 128,-1,8
 6 1004 6 1004 0 1042 c 1,9,10
 37 1001 37 1001 69.5 975 c 128,-1,11
 102 949 102 949 140.5 934.5 c 128,-1,12
 179 920 179 920 228.5 914.5 c 128,-1,13
 278 909 278 909 347 909 c 2,14,-1
 945 909 l 1,15,-1
 962 890 l 1,16,-1
 877 828 l 1,17,-1
 877 -419 l 1,18,19
 916 -475 916 -475 967 -519 c 1,20,21
 914 -554 914 -554 865 -593 c 128,-1,22
 816 -632 816 -632 771 -676 c 1,23,24
 726 -632 726 -632 677 -593 c 128,-1,25
 628 -554 628 -554 575 -519 c 1,26,27
 626 -475 626 -475 665 -419 c 1,28,-1
 665 236 l 1,29,-1
 370 0 l 1,30,31
 347 13 347 13 314.5 34.5 c 128,-1,32
 282 56 282 56 253 86.5 c 128,-1,33
 224 117 224 117 203.5 156 c 128,-1,34
 183 195 183 195 183 243 c 2,35,-1
 183 737 l 2,0,1
395 310 m 2,36,37
 395 290 395 290 405.5 269 c 128,-1,38
 416 248 416 248 432 229.5 c 128,-1,39
 448 211 448 211 466 197 c 128,-1,40
 484 183 484 183 498 179 c 1,41,-1
 665 312 l 1,42,-1
 665 805 l 1,43,-1
 460 805 l 1,44,45
 431 773 431 773 413 735 c 128,-1,46
 395 697 395 697 395 652 c 2,47,-1
 395 310 l 2,36,37
EndSplineSet
Validated: 1
EndChar

StartChar: ando
Encoding: 17 57348 11
Width: 1508
GlyphClass: 2
Flags: W
AnchorPoint: "inside" 500 450 basechar 0
AnchorPoint: "shook" 1200 100 basechar 0
AnchorPoint: "TehtaBelow" 1000 -150 basechar 0
AnchorPoint: "TehtaAbove" 825 1200 basechar 0
LayerCount: 2
Fore
SplineSet
884 750 m 1,0,-1
 884 691 l 1,1,-1
 1183 930 l 1,2,-1
 1352 765 l 1,3,-1
 1441 856 l 1,4,-1
 1464 856 l 1,5,-1
 1488 833 l 1,6,7
 1476 817 1476 817 1455 797 c 128,-1,8
 1434 777 1434 777 1414.5 750 c 128,-1,9
 1395 723 1395 723 1380.5 687.5 c 128,-1,10
 1366 652 1366 652 1366 605 c 2,11,-1
 1366 243 l 2,12,13
 1366 195 1366 195 1345.5 156 c 128,-1,14
 1325 117 1325 117 1296 86.5 c 128,-1,15
 1267 56 1267 56 1235 34.5 c 128,-1,16
 1203 13 1203 13 1180 0 c 1,17,-1
 967 174 l 1,18,-1
 995 209 l 1,19,-1
 1049 178 l 1,20,21
 1063 181 1063 181 1081 194.5 c 128,-1,22
 1099 208 1099 208 1115.5 227 c 128,-1,23
 1132 246 1132 246 1143 268 c 128,-1,24
 1154 290 1154 290 1154 310 c 2,25,-1
 1154 671 l 1,26,-1
 1055 751 l 1,27,-1
 884 615 l 1,28,-1
 884 243 l 2,29,30
 884 195 884 195 863.5 156 c 128,-1,31
 843 117 843 117 814 86.5 c 128,-1,32
 785 56 785 56 753 34.5 c 128,-1,33
 721 13 721 13 698 0 c 1,34,-1
 485 174 l 1,35,-1
 513 209 l 1,36,-1
 567 178 l 1,37,38
 581 181 581 181 599 194.5 c 128,-1,39
 617 208 617 208 633.5 227 c 128,-1,40
 650 246 650 246 661 268 c 128,-1,41
 672 290 672 290 672 310 c 2,42,-1
 672 671 l 1,43,-1
 573 751 l 1,44,-1
 402 614 l 1,45,-1
 402 -419 l 1,46,47
 441 -475 441 -475 492 -519 c 1,48,49
 439 -554 439 -554 390 -593 c 128,-1,50
 341 -632 341 -632 296 -676 c 1,51,52
 251 -632 251 -632 202 -593 c 128,-1,53
 153 -554 153 -554 100 -519 c 1,54,55
 151 -475 151 -475 190 -419 c 1,56,-1
 190 642 l 2,57,58
 190 657 190 657 186 672.5 c 128,-1,59
 182 688 182 688 175 702 c 128,-1,60
 168 716 168 716 159.5 726.5 c 128,-1,61
 151 737 151 737 142 741 c 1,62,-1
 72 709 l 1,63,-1
 40 745 l 1,64,-1
 271 930 l 1,65,-1
 350 865 l 2,66,67
 381 839 381 839 391.5 807.5 c 128,-1,68
 402 776 402 776 402 754 c 2,69,-1
 402 691 l 1,70,-1
 701 930 l 1,71,-1
 884 750 l 1,0,-1
EndSplineSet
Validated: 1
EndChar

StartChar: umbar
Encoding: 18 57349 12
Width: 1566
GlyphClass: 2
Flags: W
AnchorPoint: "inside" 500 450 basechar 0
AnchorPoint: "shook" 1400 100 basechar 0
AnchorPoint: "TehtaBelow" 1000 -150 basechar 0
AnchorPoint: "TehtaAbove" 825 1200 basechar 0
LayerCount: 2
Fore
SplineSet
1366 197 m 2,0,1
 1366 192 1366 192 1366 182.5 c 128,-1,2
 1366 173 1366 173 1365 162 c 128,-1,3
 1364 151 1364 151 1362 140 c 128,-1,4
 1360 129 1360 129 1356 121 c 1,5,6
 1405 137 1405 137 1447 163 c 0,7,8
 1480 183 1480 183 1510 208 c 128,-1,9
 1540 233 1540 233 1566 260 c 1,10,11
 1560 222 1560 222 1545 178.5 c 128,-1,12
 1530 135 1530 135 1506 97 c 0,13,14
 1480 55 1480 55 1443 27.5 c 128,-1,15
 1406 0 1406 0 1358 0 c 2,16,-1
 402 0 l 1,17,-1
 402 -419 l 1,18,19
 441 -475 441 -475 492 -519 c 1,20,21
 439 -554 439 -554 390 -593 c 128,-1,22
 341 -632 341 -632 296 -676 c 1,23,24
 251 -632 251 -632 202 -593 c 128,-1,25
 153 -554 153 -554 100 -519 c 1,26,27
 151 -475 151 -475 190 -419 c 1,28,-1
 190 642 l 2,29,30
 190 657 190 657 186 672.5 c 128,-1,31
 182 688 182 688 175 702 c 128,-1,32
 168 716 168 716 159.5 726.5 c 128,-1,33
 151 737 151 737 142 741 c 1,34,-1
 72 709 l 1,35,-1
 40 745 l 1,36,-1
 271 930 l 1,37,-1
 350 865 l 2,38,39
 381 839 381 839 391.5 807.5 c 128,-1,40
 402 776 402 776 402 754 c 2,41,-1
 402 691 l 1,42,-1
 701 930 l 1,43,-1
 884 750 l 1,44,-1
 884 691 l 1,45,-1
 1183 930 l 1,46,-1
 1352 765 l 1,47,-1
 1441 856 l 1,48,-1
 1464 856 l 1,49,-1
 1488 833 l 1,50,51
 1476 817 1476 817 1455 797 c 128,-1,52
 1434 777 1434 777 1414.5 750 c 128,-1,53
 1395 723 1395 723 1380.5 687.5 c 128,-1,54
 1366 652 1366 652 1366 605 c 2,55,-1
 1366 197 l 2,0,1
1082 104 m 1,56,57
 1110 110 1110 110 1132 153 c 128,-1,58
 1154 196 1154 196 1154 274 c 2,59,-1
 1154 671 l 1,60,-1
 1055 751 l 1,61,-1
 884 614 l 1,62,-1
 884 193 l 2,63,64
 884 168 884 168 878.5 146 c 128,-1,65
 873 124 873 124 863 104 c 1,66,-1
 1082 104 l 1,56,57
600 104 m 1,67,68
 628 110 628 110 650 153 c 128,-1,69
 672 196 672 196 672 274 c 2,70,-1
 672 671 l 1,71,-1
 573 751 l 1,72,-1
 402 614 l 1,73,-1
 402 104 l 1,74,-1
 600 104 l 1,67,68
EndSplineSet
Validated: 1
Substitution2: "Single Substitution lookup 32 subtable" umbar.nofin
Substitution2: "Single Substitution lookup 31 subtable" umbar.nofin
Substitution2: "Single Substitution lookup 30 subtable" umbar.nofin
Substitution2: "Single Substitution lookup 29 subtable" umbar.nofin
Substitution2: "Single Substitution lookup 28 subtable" umbar.nofin
EndChar

StartChar: anga
Encoding: 19 57350 13
Width: 1527
GlyphClass: 2
Flags: W
AnchorPoint: "inside" 1000 450 basechar 0
AnchorPoint: "shook" 1250 800 basechar 0
AnchorPoint: "TehtaBelow" 500 -150 basechar 0
AnchorPoint: "TehtaAbove" 825 1200 basechar 0
LayerCount: 2
Fore
SplineSet
827 930 m 1,0,-1
 1040 756 l 1,1,-1
 1012 721 l 1,2,-1
 958 752 l 1,3,4
 951 747 951 747 934 733 c 128,-1,5
 917 719 917 719 899.5 698.5 c 128,-1,6
 882 678 882 678 868.5 653 c 128,-1,7
 855 628 855 628 855 602 c 2,8,-1
 855 310 l 2,9,10
 855 290 855 290 865.5 269 c 128,-1,11
 876 248 876 248 892 229.5 c 128,-1,12
 908 211 908 211 926 197 c 128,-1,13
 944 183 944 183 958 179 c 1,14,-1
 1125 312 l 1,15,-1
 1125 754 l 2,16,17
 1125 776 1125 776 1135 807.5 c 128,-1,18
 1145 839 1145 839 1177 865 c 2,19,-1
 1256 930 l 1,20,-1
 1487 745 l 1,21,-1
 1455 709 l 1,22,-1
 1385 741 l 1,23,24
 1376 737 1376 737 1367.5 726.5 c 128,-1,25
 1359 716 1359 716 1352 702 c 128,-1,26
 1345 688 1345 688 1341 672.5 c 128,-1,27
 1337 657 1337 657 1337 642 c 2,28,-1
 1337 -419 l 1,29,30
 1376 -475 1376 -475 1427 -519 c 1,31,32
 1374 -554 1374 -554 1325 -593 c 128,-1,33
 1276 -632 1276 -632 1231 -676 c 1,34,35
 1186 -632 1186 -632 1137 -593 c 128,-1,36
 1088 -554 1088 -554 1035 -519 c 1,37,38
 1086 -475 1086 -475 1125 -419 c 1,39,-1
 1125 236 l 1,40,-1
 830 0 l 1,41,42
 807 12 807 12 775.5 33.5 c 128,-1,43
 744 55 744 55 715 84.5 c 128,-1,44
 686 114 686 114 665 152 c 128,-1,45
 644 190 644 190 643 236 c 1,46,-1
 348 0 l 1,47,48
 325 13 325 13 292.5 34.5 c 128,-1,49
 260 56 260 56 231 86.5 c 128,-1,50
 202 117 202 117 181.5 156 c 128,-1,51
 161 195 161 195 161 243 c 2,52,-1
 161 605 l 2,53,54
 161 652 161 652 146.5 687.5 c 128,-1,55
 132 723 132 723 112.5 750 c 128,-1,56
 93 777 93 777 72.5 797 c 128,-1,57
 52 817 52 817 40 833 c 1,58,-1
 64 856 l 1,59,-1
 87 856 l 1,60,-1
 176 765 l 1,61,-1
 345 930 l 1,62,-1
 558 756 l 1,63,-1
 530 721 l 1,64,-1
 476 752 l 1,65,66
 469 747 469 747 452 733 c 128,-1,67
 435 719 435 719 417.5 698.5 c 128,-1,68
 400 678 400 678 386.5 653 c 128,-1,69
 373 628 373 628 373 602 c 2,70,-1
 373 310 l 2,71,72
 373 290 373 290 383.5 269 c 128,-1,73
 394 248 394 248 410 229.5 c 128,-1,74
 426 211 426 211 444 197 c 128,-1,75
 462 183 462 183 476 179 c 1,76,-1
 643 312 l 1,77,-1
 643 750 l 1,78,-1
 827 930 l 1,0,-1
EndSplineSet
Validated: 1
Substitution2: "Single Substitution lookup 32 subtable" anga.nofin
Substitution2: "Single Substitution lookup 31 subtable" anga.nofin
Substitution2: "Single Substitution lookup 30 subtable" anga.nofin
Substitution2: "Single Substitution lookup 29 subtable" anga.nofin
Substitution2: "Single Substitution lookup 28 subtable" anga.nofin
EndChar

StartChar: ungwe
Encoding: 20 57351 14
Width: 1489
GlyphClass: 2
Flags: W
AnchorPoint: "inside" 1000 450 basechar 0
AnchorPoint: "shook" 1250 100 basechar 0
AnchorPoint: "TehtaBelow" 500 -150 basechar 0
AnchorPoint: "TehtaAbove" 825 1200 basechar 0
LayerCount: 2
Fore
SplineSet
1427 909 m 1,0,-1
 1444 890 l 1,1,-1
 1359 828 l 1,2,-1
 1359 -419 l 1,3,4
 1398 -475 1398 -475 1449 -519 c 1,5,6
 1396 -554 1396 -554 1347 -593 c 128,-1,7
 1298 -632 1298 -632 1253 -676 c 1,8,9
 1208 -632 1208 -632 1159 -593 c 128,-1,10
 1110 -554 1110 -554 1057 -519 c 1,11,12
 1108 -475 1108 -475 1147 -419 c 1,13,-1
 1147 236 l 1,14,-1
 852 0 l 1,15,16
 829 12 829 12 797.5 33.5 c 128,-1,17
 766 55 766 55 737 84.5 c 128,-1,18
 708 114 708 114 687 152 c 128,-1,19
 666 190 666 190 665 236 c 1,20,-1
 370 0 l 1,21,22
 347 13 347 13 314.5 34.5 c 128,-1,23
 282 56 282 56 253 86.5 c 128,-1,24
 224 117 224 117 203.5 156 c 128,-1,25
 183 195 183 195 183 243 c 2,26,-1
 183 737 l 2,27,28
 183 763 183 763 187 778.5 c 128,-1,29
 191 794 191 794 199 805 c 1,30,-1
 184 805 l 2,31,32
 145 805 145 805 113.5 828 c 128,-1,33
 82 851 82 851 59 886 c 128,-1,34
 36 921 36 921 21 962.5 c 128,-1,35
 6 1004 6 1004 0 1042 c 1,36,37
 37 1001 37 1001 69.5 975 c 128,-1,38
 102 949 102 949 140.5 934.5 c 128,-1,39
 179 920 179 920 228.5 914.5 c 128,-1,40
 278 909 278 909 347 909 c 2,41,-1
 1427 909 l 1,0,-1
665 737 m 2,42,43
 665 763 665 763 669 778.5 c 128,-1,44
 673 794 673 794 681 805 c 1,45,-1
 460 805 l 1,46,47
 431 773 431 773 413 735 c 128,-1,48
 395 697 395 697 395 652 c 2,49,-1
 395 310 l 2,50,51
 395 290 395 290 405.5 269 c 128,-1,52
 416 248 416 248 432 229.5 c 128,-1,53
 448 211 448 211 466 197 c 128,-1,54
 484 183 484 183 498 179 c 1,55,-1
 665 312 l 1,56,-1
 665 737 l 2,42,43
877 310 m 2,57,58
 877 290 877 290 887.5 269 c 128,-1,59
 898 248 898 248 914 229.5 c 128,-1,60
 930 211 930 211 948 197 c 128,-1,61
 966 183 966 183 980 179 c 1,62,-1
 1147 312 l 1,63,-1
 1147 805 l 1,64,-1
 942 805 l 1,65,66
 913 773 913 773 895 735 c 128,-1,67
 877 697 877 697 877 652 c 2,68,-1
 877 310 l 2,57,58
EndSplineSet
Validated: 1
EndChar

StartChar: thuule
Encoding: 21 57352 15
Width: 970
GlyphClass: 2
Flags: W
AnchorPoint: "inside" 500 450 basechar 0
AnchorPoint: "shook" 650 100 basechar 0
AnchorPoint: "TehtaAbove" 650 1200 basechar 0
AnchorPoint: "TehtaBelow" 500 -150 basechar 0
LayerCount: 2
Fore
SplineSet
134 1454 m 2,0,1
 134 1488 134 1488 125 1518 c 128,-1,2
 116 1548 116 1548 99 1574 c 0,3,4
 87 1594 87 1594 72 1611 c 128,-1,5
 57 1628 57 1628 40 1645 c 1,6,7
 45 1646 45 1646 50.5 1646.5 c 128,-1,8
 56 1647 56 1647 61 1647 c 0,9,10
 81 1647 81 1647 100 1640 c 128,-1,11
 119 1633 119 1633 136 1622 c 0,12,13
 158 1608 158 1608 177.5 1592.5 c 128,-1,14
 197 1577 197 1577 217 1560 c 1,15,16
 250 1591 250 1591 287 1621 c 0,17,18
 325 1651 325 1651 367.5 1675.5 c 128,-1,19
 410 1700 410 1700 460 1700 c 0,20,21
 466 1700 466 1700 472.5 1699.5 c 128,-1,22
 479 1699 479 1699 485 1698 c 1,23,24
 454 1673 454 1673 428.5 1642 c 128,-1,25
 403 1611 403 1611 386 1576 c 0,26,27
 367 1538 367 1538 356.5 1495 c 128,-1,28
 346 1452 346 1452 346 1410 c 2,29,-1
 346 691 l 1,30,-1
 645 930 l 1,31,-1
 814 765 l 1,32,-1
 903 856 l 1,33,-1
 926 856 l 1,34,-1
 950 833 l 1,35,36
 938 816 938 816 917 796.5 c 128,-1,37
 896 777 896 777 876.5 750 c 128,-1,38
 857 723 857 723 842.5 687.5 c 128,-1,39
 828 652 828 652 828 605 c 2,40,-1
 828 243 l 2,41,42
 828 195 828 195 807.5 156 c 128,-1,43
 787 117 787 117 758 86.5 c 128,-1,44
 729 56 729 56 697 34.5 c 128,-1,45
 665 13 665 13 642 0 c 1,46,-1
 429 174 l 1,47,-1
 457 209 l 1,48,-1
 511 178 l 1,49,50
 525 181 525 181 543 194.5 c 128,-1,51
 561 208 561 208 577.5 227 c 128,-1,52
 594 246 594 246 605 268 c 128,-1,53
 616 290 616 290 616 310 c 2,54,-1
 616 671 l 1,55,-1
 517 751 l 1,56,-1
 346 614 l 1,57,-1
 346 210 l 1,58,59
 366 182 366 182 388 157 c 128,-1,60
 410 132 410 132 436 110 c 1,61,62
 382 75 382 75 333.5 36.5 c 128,-1,63
 285 -2 285 -2 240 -47 c 1,64,65
 195 -2 195 -2 146.5 36.5 c 128,-1,66
 98 75 98 75 44 110 c 1,67,68
 70 132 70 132 92 157 c 128,-1,69
 114 182 114 182 134 210 c 1,70,-1
 134 1454 l 2,0,1
EndSplineSet
Validated: 1
EndChar

StartChar: formen
Encoding: 22 57353 16
Width: 1028
GlyphClass: 2
Flags: W
AnchorPoint: "inside" 500 450 basechar 0
AnchorPoint: "shook" 900 100 basechar 0
AnchorPoint: "TehtaAbove" 650 1200 basechar 0
AnchorPoint: "TehtaBelow" 500 -150 basechar 0
LayerCount: 2
Fore
SplineSet
134 81 m 1,0,-1
 134 1454 l 2,1,2
 134 1471 134 1471 130.5 1487 c 128,-1,3
 127 1503 127 1503 123 1516 c 0,4,5
 118 1531 118 1531 112 1545 c 0,6,7
 103 1560 103 1560 95.5 1572.5 c 128,-1,8
 88 1585 88 1585 79.5 1597 c 128,-1,9
 71 1609 71 1609 61.5 1620.5 c 128,-1,10
 52 1632 52 1632 40 1645 c 1,11,12
 66 1650 66 1650 90 1643 c 128,-1,13
 114 1636 114 1636 136 1622 c 256,14,15
 158 1608 158 1608 177.5 1591 c 128,-1,16
 197 1574 197 1574 217 1560 c 1,17,18
 243 1585 243 1585 265.5 1604 c 128,-1,19
 288 1623 288 1623 316 1643 c 0,20,21
 348 1663 348 1663 375.5 1677 c 128,-1,22
 403 1691 403 1691 438 1698 c 0,23,24
 447 1699 447 1699 461 1701 c 128,-1,25
 475 1703 475 1703 485 1698 c 1,26,27
 454 1673 454 1673 428.5 1642 c 128,-1,28
 403 1611 403 1611 386 1576 c 0,29,30
 367 1538 367 1538 357.5 1494.5 c 128,-1,31
 348 1451 348 1451 346 1410 c 2,32,-1
 346 691 l 1,33,-1
 645 930 l 1,34,-1
 814 765 l 1,35,-1
 903 856 l 1,36,-1
 926 856 l 1,37,-1
 950 833 l 1,38,39
 938 817 938 817 917 797 c 128,-1,40
 896 777 896 777 876.5 750 c 128,-1,41
 857 723 857 723 842.5 687.5 c 128,-1,42
 828 652 828 652 828 605 c 2,43,-1
 828 197 l 2,44,45
 828 192 828 192 828 182.5 c 128,-1,46
 828 173 828 173 827 162 c 128,-1,47
 826 151 826 151 824 140 c 128,-1,48
 822 129 822 129 818 121 c 1,49,50
 867 137 867 137 909 163 c 0,51,52
 942 183 942 183 972 208 c 128,-1,53
 1002 233 1002 233 1028 260 c 1,54,55
 1022 222 1022 222 1007 178.5 c 128,-1,56
 992 135 992 135 968 97 c 0,57,58
 942 55 942 55 905 27.5 c 128,-1,59
 868 0 868 0 820 0 c 2,60,-1
 66 0 l 1,61,-1
 49 19 l 1,62,-1
 134 81 l 1,0,-1
544 104 m 1,63,64
 572 110 572 110 594 153 c 128,-1,65
 616 196 616 196 616 274 c 2,66,-1
 616 671 l 1,67,-1
 517 751 l 1,68,-1
 346 614 l 1,69,-1
 346 104 l 1,70,-1
 544 104 l 1,63,64
EndSplineSet
Validated: 1
Substitution2: "Single Substitution lookup 32 subtable" formen.nofin
Substitution2: "Single Substitution lookup 31 subtable" formen.nofin
Substitution2: "Single Substitution lookup 30 subtable" formen.nofin
Substitution2: "Single Substitution lookup 29 subtable" formen.nofin
Substitution2: "Single Substitution lookup 28 subtable" formen.nofin
EndChar

StartChar: harma
Encoding: 23 57354 17
Width: 994
GlyphClass: 2
Flags: W
AnchorPoint: "inside" 500 450 basechar 0
AnchorPoint: "shook" 750 100 basechar 0
AnchorPoint: "TehtaAbove" 300 1200 basechar 0
AnchorPoint: "TehtaBelow" 500 -150 basechar 0
LayerCount: 2
Fore
SplineSet
643 1454 m 2,0,1
 643 1488 643 1488 634 1518 c 128,-1,2
 625 1548 625 1548 608 1574 c 0,3,4
 596 1594 596 1594 581 1611 c 128,-1,5
 566 1628 566 1628 549 1645 c 1,6,7
 554 1646 554 1646 559.5 1646.5 c 128,-1,8
 565 1647 565 1647 570 1647 c 0,9,10
 590 1647 590 1647 609 1640 c 128,-1,11
 628 1633 628 1633 645 1622 c 0,12,13
 667 1608 667 1608 686.5 1592.5 c 128,-1,14
 706 1577 706 1577 726 1560 c 1,15,16
 759 1591 759 1591 796 1621 c 0,17,18
 834 1651 834 1651 876.5 1675.5 c 128,-1,19
 919 1700 919 1700 969 1700 c 0,20,21
 975 1700 975 1700 981.5 1699.5 c 128,-1,22
 988 1699 988 1699 994 1698 c 1,23,24
 963 1673 963 1673 937.5 1642 c 128,-1,25
 912 1611 912 1611 895 1576 c 0,26,27
 876 1538 876 1538 865.5 1495 c 128,-1,28
 855 1452 855 1452 855 1410 c 2,29,-1
 855 210 l 1,30,31
 875 182 875 182 897 157 c 128,-1,32
 919 132 919 132 945 110 c 1,33,34
 891 75 891 75 842.5 36.5 c 128,-1,35
 794 -2 794 -2 749 -47 c 1,36,37
 704 -2 704 -2 655.5 36.5 c 128,-1,38
 607 75 607 75 553 110 c 1,39,40
 579 132 579 132 601 157 c 128,-1,41
 623 182 623 182 643 210 c 1,42,-1
 643 236 l 1,43,-1
 348 0 l 1,44,45
 325 13 325 13 292.5 34.5 c 128,-1,46
 260 56 260 56 231 86.5 c 128,-1,47
 202 117 202 117 181.5 156 c 128,-1,48
 161 195 161 195 161 243 c 2,49,-1
 161 605 l 2,50,51
 161 652 161 652 146.5 687.5 c 128,-1,52
 132 723 132 723 112.5 750 c 128,-1,53
 93 777 93 777 72.5 797 c 128,-1,54
 52 817 52 817 40 833 c 1,55,-1
 64 856 l 1,56,-1
 87 856 l 1,57,-1
 176 765 l 1,58,-1
 345 930 l 1,59,-1
 558 756 l 1,60,-1
 530 721 l 1,61,-1
 476 752 l 1,62,63
 469 747 469 747 452 733 c 128,-1,64
 435 719 435 719 417.5 698.5 c 128,-1,65
 400 678 400 678 386.5 653 c 128,-1,66
 373 628 373 628 373 602 c 2,67,-1
 373 310 l 2,68,69
 373 290 373 290 383.5 269 c 128,-1,70
 394 248 394 248 410 229 c 128,-1,71
 426 210 426 210 444 196.5 c 128,-1,72
 462 183 462 183 476 179 c 1,73,-1
 643 312 l 1,74,-1
 643 1454 l 2,0,1
EndSplineSet
Validated: 1
EndChar

StartChar: hwesta
Encoding: 24 57355 18
Width: 1016
GlyphClass: 2
Flags: W
AnchorPoint: "inside" 500 450 basechar 0
AnchorPoint: "shook" 750 100 basechar 0
AnchorPoint: "TehtaAbove" 300 1200 basechar 0
AnchorPoint: "TehtaBelow" 500 -150 basechar 0
LayerCount: 2
Fore
SplineSet
395 310 m 2,0,1
 395 290 395 290 405.5 269 c 128,-1,2
 416 248 416 248 432 229 c 128,-1,3
 448 210 448 210 466 196.5 c 128,-1,4
 484 183 484 183 498 179 c 1,5,-1
 665 312 l 1,6,-1
 665 805 l 1,7,-1
 460 805 l 1,8,9
 431 773 431 773 413 735 c 128,-1,10
 395 697 395 697 395 652 c 2,11,-1
 395 310 l 2,0,1
665 1454 m 2,12,13
 665 1488 665 1488 656 1518 c 128,-1,14
 647 1548 647 1548 630 1574 c 0,15,16
 618 1594 618 1594 603 1611 c 128,-1,17
 588 1628 588 1628 571 1645 c 1,18,19
 576 1646 576 1646 581.5 1646.5 c 128,-1,20
 587 1647 587 1647 592 1647 c 0,21,22
 612 1647 612 1647 631 1640 c 128,-1,23
 650 1633 650 1633 667 1622 c 0,24,25
 689 1608 689 1608 708.5 1592.5 c 128,-1,26
 728 1577 728 1577 748 1560 c 1,27,28
 781 1591 781 1591 818 1621 c 0,29,30
 856 1651 856 1651 898.5 1675.5 c 128,-1,31
 941 1700 941 1700 991 1700 c 0,32,33
 997 1700 997 1700 1003.5 1699.5 c 128,-1,34
 1010 1699 1010 1699 1016 1698 c 1,35,36
 985 1673 985 1673 959.5 1642 c 128,-1,37
 934 1611 934 1611 917 1576 c 0,38,39
 898 1538 898 1538 887.5 1495 c 128,-1,40
 877 1452 877 1452 877 1410 c 2,41,-1
 877 210 l 1,42,43
 897 182 897 182 919 157 c 128,-1,44
 941 132 941 132 967 110 c 1,45,46
 913 75 913 75 864.5 36.5 c 128,-1,47
 816 -2 816 -2 771 -47 c 1,48,49
 726 -2 726 -2 677.5 36.5 c 128,-1,50
 629 75 629 75 575 110 c 1,51,52
 601 132 601 132 623 157 c 128,-1,53
 645 182 645 182 665 210 c 1,54,-1
 665 236 l 1,55,-1
 370 0 l 1,56,57
 347 13 347 13 314.5 34.5 c 128,-1,58
 282 56 282 56 253 86.5 c 128,-1,59
 224 117 224 117 203.5 156 c 128,-1,60
 183 195 183 195 183 243 c 2,61,-1
 183 737 l 2,62,63
 183 763 183 763 187 778.5 c 128,-1,64
 191 794 191 794 199 805 c 1,65,-1
 184 805 l 2,66,67
 145 805 145 805 113.5 828 c 128,-1,68
 82 851 82 851 59 886 c 128,-1,69
 36 921 36 921 21 962.5 c 128,-1,70
 6 1004 6 1004 0 1042 c 1,71,72
 37 1001 37 1001 69.5 975 c 128,-1,73
 102 949 102 949 140.5 934.5 c 128,-1,74
 179 920 179 920 228 914.5 c 128,-1,75
 277 909 277 909 347 909 c 2,76,-1
 665 909 l 1,77,-1
 665 1454 l 2,12,13
EndSplineSet
Validated: 1
EndChar

StartChar: anto
Encoding: 25 57356 19
Width: 1452
GlyphClass: 2
Flags: W
AnchorPoint: "inside" 500 450 basechar 0
AnchorPoint: "shook" 1100 100 basechar 0
AnchorPoint: "TehtaAbove" 950 1200 basechar 0
AnchorPoint: "TehtaBelow" 750 -150 basechar 0
LayerCount: 2
Fore
SplineSet
134 1454 m 2,0,1
 134 1488 134 1488 125 1518 c 128,-1,2
 116 1548 116 1548 99 1574 c 0,3,4
 87 1594 87 1594 72 1611 c 128,-1,5
 57 1628 57 1628 40 1645 c 1,6,7
 45 1646 45 1646 50.5 1646.5 c 128,-1,8
 56 1647 56 1647 61 1647 c 0,9,10
 81 1647 81 1647 100 1640 c 128,-1,11
 119 1633 119 1633 136 1622 c 0,12,13
 158 1608 158 1608 177.5 1592.5 c 128,-1,14
 197 1577 197 1577 217 1560 c 1,15,16
 250 1591 250 1591 287 1621 c 0,17,18
 325 1651 325 1651 367.5 1675.5 c 128,-1,19
 410 1700 410 1700 460 1700 c 0,20,21
 466 1700 466 1700 472.5 1699.5 c 128,-1,22
 479 1699 479 1699 485 1698 c 1,23,24
 454 1673 454 1673 428.5 1642 c 128,-1,25
 403 1611 403 1611 386 1576 c 0,26,27
 367 1538 367 1538 356.5 1495 c 128,-1,28
 346 1452 346 1452 346 1410 c 2,29,-1
 346 691 l 1,30,-1
 645 930 l 1,31,-1
 828 750 l 1,32,-1
 828 691 l 1,33,-1
 1127 930 l 1,34,-1
 1296 765 l 1,35,-1
 1385 856 l 1,36,-1
 1408 856 l 1,37,-1
 1432 833 l 1,38,39
 1420 816 1420 816 1399 796.5 c 128,-1,40
 1378 777 1378 777 1358.5 750 c 128,-1,41
 1339 723 1339 723 1324.5 687.5 c 128,-1,42
 1310 652 1310 652 1310 605 c 2,43,-1
 1310 243 l 2,44,45
 1310 195 1310 195 1289.5 156 c 128,-1,46
 1269 117 1269 117 1240 86.5 c 128,-1,47
 1211 56 1211 56 1179 34.5 c 128,-1,48
 1147 13 1147 13 1124 0 c 1,49,-1
 911 174 l 1,50,-1
 939 209 l 1,51,-1
 993 178 l 1,52,53
 1007 181 1007 181 1025 194.5 c 128,-1,54
 1043 208 1043 208 1059.5 227 c 128,-1,55
 1076 246 1076 246 1087 268 c 128,-1,56
 1098 290 1098 290 1098 310 c 2,57,-1
 1098 671 l 1,58,-1
 999 751 l 1,59,-1
 828 615 l 1,60,-1
 828 243 l 2,61,62
 828 195 828 195 807.5 156 c 128,-1,63
 787 117 787 117 758 86.5 c 128,-1,64
 729 56 729 56 697 34.5 c 128,-1,65
 665 13 665 13 642 0 c 1,66,-1
 429 174 l 1,67,-1
 457 209 l 1,68,-1
 511 178 l 1,69,70
 525 181 525 181 543 194.5 c 128,-1,71
 561 208 561 208 577.5 227 c 128,-1,72
 594 246 594 246 605 268 c 128,-1,73
 616 290 616 290 616 310 c 2,74,-1
 616 671 l 1,75,-1
 517 751 l 1,76,-1
 346 614 l 1,77,-1
 346 210 l 1,78,79
 366 182 366 182 388 157 c 128,-1,80
 410 132 410 132 436 110 c 1,81,82
 382 75 382 75 333.5 36.5 c 128,-1,83
 285 -2 285 -2 240 -47 c 1,84,85
 195 -2 195 -2 146.5 36.5 c 128,-1,86
 98 75 98 75 44 110 c 1,87,88
 70 132 70 132 92 157 c 128,-1,89
 114 182 114 182 134 210 c 1,90,-1
 134 1454 l 2,0,1
EndSplineSet
Validated: 1
EndChar

StartChar: ampa
Encoding: 26 57357 20
Width: 1510
GlyphClass: 2
Flags: W
AnchorPoint: "inside" 500 450 basechar 0
AnchorPoint: "shook" 1400 100 basechar 0
AnchorPoint: "TehtaAbove" 950 1200 basechar 0
AnchorPoint: "TehtaBelow" 750 -150 basechar 0
LayerCount: 2
Fore
SplineSet
134 81 m 1,0,-1
 134 1454 l 2,1,2
 134 1471 134 1471 130.5 1487 c 128,-1,3
 127 1503 127 1503 123 1516 c 0,4,5
 118 1531 118 1531 112 1545 c 0,6,7
 103 1560 103 1560 95.5 1572.5 c 128,-1,8
 88 1585 88 1585 79.5 1597 c 128,-1,9
 71 1609 71 1609 61.5 1620.5 c 128,-1,10
 52 1632 52 1632 40 1645 c 1,11,12
 66 1650 66 1650 90 1643 c 128,-1,13
 114 1636 114 1636 136 1622 c 256,14,15
 158 1608 158 1608 177.5 1591 c 128,-1,16
 197 1574 197 1574 217 1560 c 1,17,18
 243 1585 243 1585 265.5 1604 c 128,-1,19
 288 1623 288 1623 316 1643 c 0,20,21
 348 1663 348 1663 375.5 1677 c 128,-1,22
 403 1691 403 1691 438 1698 c 0,23,24
 447 1699 447 1699 461 1701 c 128,-1,25
 475 1703 475 1703 485 1698 c 1,26,27
 454 1673 454 1673 428.5 1642 c 128,-1,28
 403 1611 403 1611 386 1576 c 0,29,30
 367 1538 367 1538 357.5 1494.5 c 128,-1,31
 348 1451 348 1451 346 1410 c 2,32,-1
 346 691 l 1,33,-1
 645 930 l 1,34,-1
 828 750 l 1,35,-1
 828 691 l 1,36,-1
 1127 930 l 1,37,-1
 1296 765 l 1,38,-1
 1385 856 l 1,39,-1
 1408 856 l 1,40,-1
 1432 833 l 1,41,42
 1420 817 1420 817 1399 797 c 128,-1,43
 1378 777 1378 777 1358.5 750 c 128,-1,44
 1339 723 1339 723 1324.5 687.5 c 128,-1,45
 1310 652 1310 652 1310 605 c 2,46,-1
 1310 197 l 2,47,48
 1310 192 1310 192 1310 182.5 c 128,-1,49
 1310 173 1310 173 1309 162 c 128,-1,50
 1308 151 1308 151 1306 140 c 128,-1,51
 1304 129 1304 129 1300 121 c 1,52,53
 1349 137 1349 137 1391 163 c 0,54,55
 1424 183 1424 183 1454 208 c 128,-1,56
 1484 233 1484 233 1510 260 c 1,57,58
 1504 222 1504 222 1489 178.5 c 128,-1,59
 1474 135 1474 135 1450 97 c 0,60,61
 1424 55 1424 55 1387 27.5 c 128,-1,62
 1350 0 1350 0 1302 0 c 2,63,-1
 66 0 l 1,64,-1
 49 19 l 1,65,-1
 134 81 l 1,0,-1
1026 104 m 1,66,67
 1054 110 1054 110 1076 153 c 128,-1,68
 1098 196 1098 196 1098 274 c 2,69,-1
 1098 671 l 1,70,-1
 999 751 l 1,71,-1
 828 614 l 1,72,-1
 828 193 l 2,73,74
 828 168 828 168 822.5 146 c 128,-1,75
 817 124 817 124 807 104 c 1,76,-1
 1026 104 l 1,66,67
544 104 m 1,77,78
 572 110 572 110 594 153 c 128,-1,79
 616 196 616 196 616 274 c 2,80,-1
 616 671 l 1,81,-1
 517 751 l 1,82,-1
 346 614 l 1,83,-1
 346 104 l 1,84,-1
 544 104 l 1,77,78
EndSplineSet
Validated: 1
Substitution2: "Single Substitution lookup 32 subtable" ampa.nofin
Substitution2: "Single Substitution lookup 31 subtable" ampa.nofin
Substitution2: "Single Substitution lookup 30 subtable" ampa.nofin
Substitution2: "Single Substitution lookup 29 subtable" ampa.nofin
Substitution2: "Single Substitution lookup 28 subtable" ampa.nofin
EndChar

StartChar: anca
Encoding: 27 57358 21
Width: 1476
GlyphClass: 2
Flags: W
AnchorPoint: "inside" 1000 450 basechar 0
AnchorPoint: "shook" 1250 100 basechar 0
AnchorPoint: "TehtaAbove" 550 1200 basechar 0
AnchorPoint: "TehtaBelow" 750 -150 basechar 0
LayerCount: 2
Fore
SplineSet
1125 1454 m 2,0,1
 1125 1488 1125 1488 1116 1518 c 128,-1,2
 1107 1548 1107 1548 1090 1574 c 0,3,4
 1078 1594 1078 1594 1063 1611 c 128,-1,5
 1048 1628 1048 1628 1031 1645 c 1,6,7
 1036 1646 1036 1646 1041.5 1646.5 c 128,-1,8
 1047 1647 1047 1647 1052 1647 c 0,9,10
 1072 1647 1072 1647 1091 1640 c 128,-1,11
 1110 1633 1110 1633 1127 1622 c 0,12,13
 1149 1608 1149 1608 1168.5 1592.5 c 128,-1,14
 1188 1577 1188 1577 1208 1560 c 1,15,16
 1241 1591 1241 1591 1278 1621 c 0,17,18
 1316 1651 1316 1651 1358.5 1675.5 c 128,-1,19
 1401 1700 1401 1700 1451 1700 c 0,20,21
 1457 1700 1457 1700 1463.5 1699.5 c 128,-1,22
 1470 1699 1470 1699 1476 1698 c 1,23,24
 1445 1673 1445 1673 1419.5 1642 c 128,-1,25
 1394 1611 1394 1611 1377 1576 c 0,26,27
 1358 1538 1358 1538 1347.5 1495 c 128,-1,28
 1337 1452 1337 1452 1337 1410 c 2,29,-1
 1337 210 l 1,30,31
 1357 182 1357 182 1379 157 c 128,-1,32
 1401 132 1401 132 1427 110 c 1,33,34
 1373 75 1373 75 1324.5 36.5 c 128,-1,35
 1276 -2 1276 -2 1231 -47 c 1,36,37
 1186 -2 1186 -2 1137.5 36.5 c 128,-1,38
 1089 75 1089 75 1035 110 c 1,39,40
 1061 132 1061 132 1083 157 c 128,-1,41
 1105 182 1105 182 1125 210 c 1,42,-1
 1125 236 l 1,43,-1
 830 0 l 1,44,45
 807 12 807 12 775.5 33 c 128,-1,46
 744 54 744 54 715 84 c 128,-1,47
 686 114 686 114 665 152 c 128,-1,48
 644 190 644 190 643 236 c 1,49,-1
 348 0 l 1,50,51
 325 13 325 13 292.5 34.5 c 128,-1,52
 260 56 260 56 231 86.5 c 128,-1,53
 202 117 202 117 181.5 156 c 128,-1,54
 161 195 161 195 161 243 c 2,55,-1
 161 605 l 2,56,57
 161 652 161 652 146.5 687.5 c 128,-1,58
 132 723 132 723 112.5 750 c 128,-1,59
 93 777 93 777 72.5 797 c 128,-1,60
 52 817 52 817 40 833 c 1,61,-1
 64 856 l 1,62,-1
 87 856 l 1,63,-1
 176 765 l 1,64,-1
 345 930 l 1,65,-1
 558 756 l 1,66,-1
 530 721 l 1,67,-1
 476 752 l 1,68,69
 469 747 469 747 452 733 c 128,-1,70
 435 719 435 719 417.5 698.5 c 128,-1,71
 400 678 400 678 386.5 653 c 128,-1,72
 373 628 373 628 373 602 c 2,73,-1
 373 310 l 2,74,75
 373 290 373 290 383.5 269 c 128,-1,76
 394 248 394 248 410 229 c 128,-1,77
 426 210 426 210 444 196.5 c 128,-1,78
 462 183 462 183 476 179 c 1,79,-1
 643 312 l 1,80,-1
 643 750 l 1,81,-1
 827 930 l 1,82,-1
 1040 756 l 1,83,-1
 1012 721 l 1,84,-1
 958 752 l 1,85,86
 951 747 951 747 934 733 c 128,-1,87
 917 719 917 719 899.5 698.5 c 128,-1,88
 882 678 882 678 868.5 653 c 128,-1,89
 855 628 855 628 855 602 c 2,90,-1
 855 310 l 2,91,92
 855 290 855 290 865.5 269 c 128,-1,93
 876 248 876 248 892 229 c 128,-1,94
 908 210 908 210 926 196.5 c 128,-1,95
 944 183 944 183 958 179 c 1,96,-1
 1125 312 l 1,97,-1
 1125 1454 l 2,0,1
EndSplineSet
Validated: 1
EndChar

StartChar: unque
Encoding: 28 57359 22
Width: 1498
GlyphClass: 2
Flags: W
AnchorPoint: "inside" 1000 450 basechar 0
AnchorPoint: "shook" 1250 100 basechar 0
AnchorPoint: "TehtaAbove" 550 1200 basechar 0
AnchorPoint: "TehtaBelow" 750 -150 basechar 0
LayerCount: 2
Fore
SplineSet
665 737 m 2,0,1
 665 763 665 763 669 778.5 c 128,-1,2
 673 794 673 794 681 805 c 1,3,-1
 460 805 l 1,4,5
 431 773 431 773 413 735 c 128,-1,6
 395 697 395 697 395 652 c 2,7,-1
 395 310 l 2,8,9
 395 290 395 290 405.5 269 c 128,-1,10
 416 248 416 248 432 229 c 128,-1,11
 448 210 448 210 466 196.5 c 128,-1,12
 484 183 484 183 498 179 c 1,13,-1
 665 312 l 1,14,-1
 665 737 l 2,0,1
877 310 m 2,15,16
 877 290 877 290 887.5 269 c 128,-1,17
 898 248 898 248 914 229 c 128,-1,18
 930 210 930 210 948 196.5 c 128,-1,19
 966 183 966 183 980 179 c 1,20,-1
 1147 312 l 1,21,-1
 1147 805 l 1,22,-1
 942 805 l 1,23,24
 913 773 913 773 895 735 c 128,-1,25
 877 697 877 697 877 652 c 2,26,-1
 877 310 l 2,15,16
1147 1454 m 2,27,28
 1147 1488 1147 1488 1138 1518 c 128,-1,29
 1129 1548 1129 1548 1112 1574 c 0,30,31
 1100 1594 1100 1594 1085 1611 c 128,-1,32
 1070 1628 1070 1628 1053 1645 c 1,33,34
 1058 1646 1058 1646 1063.5 1646.5 c 128,-1,35
 1069 1647 1069 1647 1074 1647 c 0,36,37
 1094 1647 1094 1647 1113 1640 c 128,-1,38
 1132 1633 1132 1633 1149 1622 c 0,39,40
 1171 1608 1171 1608 1190.5 1592.5 c 128,-1,41
 1210 1577 1210 1577 1230 1560 c 1,42,43
 1263 1591 1263 1591 1300 1621 c 0,44,45
 1338 1651 1338 1651 1380.5 1675.5 c 128,-1,46
 1423 1700 1423 1700 1473 1700 c 0,47,48
 1479 1700 1479 1700 1485.5 1699.5 c 128,-1,49
 1492 1699 1492 1699 1498 1698 c 1,50,51
 1467 1673 1467 1673 1441.5 1642 c 128,-1,52
 1416 1611 1416 1611 1399 1576 c 0,53,54
 1380 1538 1380 1538 1369.5 1495 c 128,-1,55
 1359 1452 1359 1452 1359 1410 c 2,56,-1
 1359 210 l 1,57,58
 1379 182 1379 182 1401 157 c 128,-1,59
 1423 132 1423 132 1449 110 c 1,60,61
 1395 75 1395 75 1346.5 36.5 c 128,-1,62
 1298 -2 1298 -2 1253 -47 c 1,63,64
 1208 -2 1208 -2 1159.5 36.5 c 128,-1,65
 1111 75 1111 75 1057 110 c 1,66,67
 1083 132 1083 132 1105 157 c 128,-1,68
 1127 182 1127 182 1147 210 c 1,69,-1
 1147 236 l 1,70,-1
 852 0 l 1,71,72
 829 12 829 12 797.5 33 c 128,-1,73
 766 54 766 54 737 84 c 128,-1,74
 708 114 708 114 687 152 c 128,-1,75
 666 190 666 190 665 236 c 1,76,-1
 370 0 l 1,77,78
 347 13 347 13 314.5 34.5 c 128,-1,79
 282 56 282 56 253 86.5 c 128,-1,80
 224 117 224 117 203.5 156 c 128,-1,81
 183 195 183 195 183 243 c 2,82,-1
 183 737 l 2,83,84
 183 763 183 763 187 778.5 c 128,-1,85
 191 794 191 794 199 805 c 1,86,-1
 184 805 l 2,87,88
 145 805 145 805 113.5 828 c 128,-1,89
 82 851 82 851 59 886 c 128,-1,90
 36 921 36 921 21 962.5 c 128,-1,91
 6 1004 6 1004 0 1042 c 1,92,93
 37 1001 37 1001 69.5 975 c 128,-1,94
 102 949 102 949 140.5 934.5 c 128,-1,95
 179 920 179 920 228 914.5 c 128,-1,96
 277 909 277 909 347 909 c 2,97,-1
 1147 909 l 1,98,-1
 1147 1454 l 2,27,28
EndSplineSet
Validated: 1
EndChar

StartChar: nuumen
Encoding: 29 57360 23
Width: 1508
GlyphClass: 2
Flags: W
AnchorPoint: "inside" 500 450 basechar 0
AnchorPoint: "shook" 1150 100 basechar 0
AnchorPoint: "TehtaAbove" 825 1200 basechar 0
AnchorPoint: "TehtaBelow" 750 -150 basechar 0
LayerCount: 2
Fore
SplineSet
884 750 m 1,0,-1
 884 691 l 1,1,-1
 1183 930 l 1,2,-1
 1352 765 l 1,3,-1
 1441 856 l 1,4,-1
 1464 856 l 1,5,-1
 1488 833 l 1,6,7
 1476 817 1476 817 1455 797 c 128,-1,8
 1434 777 1434 777 1414.5 750 c 128,-1,9
 1395 723 1395 723 1380.5 687.5 c 128,-1,10
 1366 652 1366 652 1366 605 c 2,11,-1
 1366 243 l 2,12,13
 1366 195 1366 195 1345.5 156 c 128,-1,14
 1325 117 1325 117 1296 86.5 c 128,-1,15
 1267 56 1267 56 1235 34.5 c 128,-1,16
 1203 13 1203 13 1180 0 c 1,17,-1
 967 174 l 1,18,-1
 995 209 l 1,19,-1
 1049 178 l 1,20,21
 1063 181 1063 181 1081 194.5 c 128,-1,22
 1099 208 1099 208 1115.5 227 c 128,-1,23
 1132 246 1132 246 1143 268 c 128,-1,24
 1154 290 1154 290 1154 310 c 2,25,-1
 1154 671 l 1,26,-1
 1055 751 l 1,27,-1
 884 615 l 1,28,-1
 884 243 l 2,29,30
 884 195 884 195 863.5 156 c 128,-1,31
 843 117 843 117 814 86.5 c 128,-1,32
 785 56 785 56 753 34.5 c 128,-1,33
 721 13 721 13 698 0 c 1,34,-1
 485 174 l 1,35,-1
 513 209 l 1,36,-1
 567 178 l 1,37,38
 581 181 581 181 599 194.5 c 128,-1,39
 617 208 617 208 633.5 227 c 128,-1,40
 650 246 650 246 661 268 c 128,-1,41
 672 290 672 290 672 310 c 2,42,-1
 672 671 l 1,43,-1
 573 751 l 1,44,-1
 402 614 l 1,45,-1
 402 210 l 1,46,47
 441 154 441 154 492 110 c 1,48,49
 439 75 439 75 390 36 c 128,-1,50
 341 -3 341 -3 296 -47 c 1,51,52
 251 -3 251 -3 202 36 c 128,-1,53
 153 75 153 75 100 110 c 1,54,55
 151 154 151 154 190 210 c 1,56,-1
 190 642 l 2,57,58
 190 657 190 657 186 672.5 c 128,-1,59
 182 688 182 688 175 702 c 128,-1,60
 168 716 168 716 159.5 726.5 c 128,-1,61
 151 737 151 737 142 741 c 1,62,-1
 72 709 l 1,63,-1
 40 745 l 1,64,-1
 271 930 l 1,65,-1
 350 865 l 2,66,67
 381 839 381 839 391.5 807.5 c 128,-1,68
 402 776 402 776 402 754 c 2,69,-1
 402 691 l 1,70,-1
 701 930 l 1,71,-1
 884 750 l 1,0,-1
EndSplineSet
Validated: 1
EndChar

StartChar: malta
Encoding: 30 57361 24
Width: 1566
GlyphClass: 2
Flags: W
AnchorPoint: "inside" 500 450 basechar 0
AnchorPoint: "shook" 1450 100 basechar 0
AnchorPoint: "TehtaAbove" 825 1200 basechar 0
AnchorPoint: "TehtaBelow" 750 -150 basechar 0
LayerCount: 2
Fore
SplineSet
190 81 m 1,0,-1
 190 642 l 2,1,2
 190 657 190 657 186 672.5 c 128,-1,3
 182 688 182 688 175 702 c 128,-1,4
 168 716 168 716 159.5 726.5 c 128,-1,5
 151 737 151 737 142 741 c 1,6,-1
 72 709 l 1,7,-1
 40 745 l 1,8,-1
 271 930 l 1,9,-1
 350 865 l 2,10,11
 381 839 381 839 391.5 807.5 c 128,-1,12
 402 776 402 776 402 754 c 2,13,-1
 402 691 l 1,14,-1
 701 930 l 1,15,-1
 884 750 l 1,16,-1
 884 691 l 1,17,-1
 1183 930 l 1,18,-1
 1352 765 l 1,19,-1
 1441 856 l 1,20,-1
 1464 856 l 1,21,-1
 1488 833 l 1,22,23
 1476 817 1476 817 1455 797 c 128,-1,24
 1434 777 1434 777 1414.5 750 c 128,-1,25
 1395 723 1395 723 1380.5 687.5 c 128,-1,26
 1366 652 1366 652 1366 605 c 2,27,-1
 1366 197 l 2,28,29
 1366 192 1366 192 1366 182.5 c 128,-1,30
 1366 173 1366 173 1365 162 c 128,-1,31
 1364 151 1364 151 1362 140 c 128,-1,32
 1360 129 1360 129 1356 121 c 1,33,34
 1405 137 1405 137 1447 163 c 0,35,36
 1480 183 1480 183 1510 208 c 128,-1,37
 1540 233 1540 233 1566 260 c 1,38,39
 1560 222 1560 222 1545 178.5 c 128,-1,40
 1530 135 1530 135 1506 97 c 0,41,42
 1480 55 1480 55 1443 27.5 c 128,-1,43
 1406 0 1406 0 1358 0 c 2,44,-1
 122 0 l 1,45,-1
 105 19 l 1,46,-1
 190 81 l 1,0,-1
1082 104 m 1,47,48
 1110 110 1110 110 1132 153 c 128,-1,49
 1154 196 1154 196 1154 274 c 2,50,-1
 1154 671 l 1,51,-1
 1055 751 l 1,52,-1
 884 614 l 1,53,-1
 884 193 l 2,54,55
 884 168 884 168 878.5 146 c 128,-1,56
 873 124 873 124 863 104 c 1,57,-1
 1082 104 l 1,47,48
600 104 m 1,58,59
 628 110 628 110 650 153 c 128,-1,60
 672 196 672 196 672 274 c 2,61,-1
 672 671 l 1,62,-1
 573 751 l 1,63,-1
 402 614 l 1,64,-1
 402 104 l 1,65,-1
 600 104 l 1,58,59
EndSplineSet
Validated: 1
Substitution2: "Single Substitution lookup 32 subtable" malta.nofin
Substitution2: "Single Substitution lookup 31 subtable" malta.nofin
Substitution2: "Single Substitution lookup 30 subtable" malta.nofin
Substitution2: "Single Substitution lookup 29 subtable" malta.nofin
Substitution2: "Single Substitution lookup 28 subtable" malta.nofin
EndChar

StartChar: noldo
Encoding: 31 57362 25
Width: 1527
GlyphClass: 2
Flags: W
AnchorPoint: "inside" 1000 450 basechar 0
AnchorPoint: "shook" 1250 800 basechar 0
AnchorPoint: "TehtaAbove" 825 1200 basechar 0
AnchorPoint: "TehtaBelow" 750 -150 basechar 0
LayerCount: 2
Fore
SplineSet
1231 -47 m 1,0,1
 1186 -3 1186 -3 1137 36 c 128,-1,2
 1088 75 1088 75 1035 110 c 1,3,4
 1086 154 1086 154 1125 210 c 1,5,-1
 1125 236 l 1,6,-1
 830 0 l 1,7,8
 807 12 807 12 775.5 33.5 c 128,-1,9
 744 55 744 55 715 84.5 c 128,-1,10
 686 114 686 114 665 152 c 128,-1,11
 644 190 644 190 643 236 c 1,12,-1
 348 0 l 1,13,14
 325 13 325 13 292.5 34.5 c 128,-1,15
 260 56 260 56 231 86.5 c 128,-1,16
 202 117 202 117 181.5 156 c 128,-1,17
 161 195 161 195 161 243 c 2,18,-1
 161 605 l 2,19,20
 161 652 161 652 146.5 687.5 c 128,-1,21
 132 723 132 723 112.5 750 c 128,-1,22
 93 777 93 777 72.5 797 c 128,-1,23
 52 817 52 817 40 833 c 1,24,-1
 64 856 l 1,25,-1
 87 856 l 1,26,-1
 176 765 l 1,27,-1
 345 930 l 1,28,-1
 558 756 l 1,29,-1
 530 721 l 1,30,-1
 476 752 l 1,31,32
 469 747 469 747 452 733 c 128,-1,33
 435 719 435 719 417.5 698.5 c 128,-1,34
 400 678 400 678 386.5 653 c 128,-1,35
 373 628 373 628 373 602 c 2,36,-1
 373 310 l 2,37,38
 373 290 373 290 383.5 269 c 128,-1,39
 394 248 394 248 410 229.5 c 128,-1,40
 426 211 426 211 444 197 c 128,-1,41
 462 183 462 183 476 179 c 1,42,-1
 643 312 l 1,43,-1
 643 750 l 1,44,-1
 827 930 l 1,45,-1
 1040 756 l 1,46,-1
 1012 721 l 1,47,-1
 958 752 l 1,48,49
 951 747 951 747 934 733 c 128,-1,50
 917 719 917 719 899.5 698.5 c 128,-1,51
 882 678 882 678 868.5 653 c 128,-1,52
 855 628 855 628 855 602 c 2,53,-1
 855 310 l 2,54,55
 855 290 855 290 865.5 269 c 128,-1,56
 876 248 876 248 892 229.5 c 128,-1,57
 908 211 908 211 926 197 c 128,-1,58
 944 183 944 183 958 179 c 1,59,-1
 1125 312 l 1,60,-1
 1125 754 l 2,61,62
 1125 776 1125 776 1135 807.5 c 128,-1,63
 1145 839 1145 839 1177 865 c 2,64,-1
 1256 930 l 1,65,-1
 1487 745 l 1,66,-1
 1455 709 l 1,67,-1
 1385 741 l 1,68,69
 1376 737 1376 737 1367.5 726.5 c 128,-1,70
 1359 716 1359 716 1352 702 c 128,-1,71
 1345 688 1345 688 1341 672.5 c 128,-1,72
 1337 657 1337 657 1337 642 c 2,73,-1
 1337 210 l 1,74,75
 1376 154 1376 154 1427 110 c 1,76,77
 1374 75 1374 75 1325 36 c 128,-1,78
 1276 -3 1276 -3 1231 -47 c 1,0,1
EndSplineSet
Validated: 1
Substitution2: "Single Substitution lookup 32 subtable" noldo.nofin
Substitution2: "Single Substitution lookup 31 subtable" noldo.nofin
Substitution2: "Single Substitution lookup 30 subtable" noldo.nofin
Substitution2: "Single Substitution lookup 29 subtable" noldo.nofin
Substitution2: "Single Substitution lookup 28 subtable" noldo.nofin
EndChar

StartChar: nwalme
Encoding: 32 57363 26
Width: 1489
GlyphClass: 2
Flags: W
AnchorPoint: "inside" 1000 450 basechar 0
AnchorPoint: "shook" 1250 800 basechar 0
AnchorPoint: "TehtaAbove" 825 1200 basechar 0
AnchorPoint: "TehtaBelow" 750 -150 basechar 0
LayerCount: 2
Fore
SplineSet
1427 909 m 1,0,-1
 1444 890 l 1,1,-1
 1359 828 l 1,2,-1
 1359 210 l 1,3,4
 1398 154 1398 154 1449 110 c 1,5,6
 1396 75 1396 75 1347 36 c 128,-1,7
 1298 -3 1298 -3 1253 -47 c 1,8,9
 1208 -3 1208 -3 1159 36 c 128,-1,10
 1110 75 1110 75 1057 110 c 1,11,12
 1108 154 1108 154 1147 210 c 1,13,-1
 1147 236 l 1,14,-1
 852 0 l 1,15,16
 829 12 829 12 797.5 33.5 c 128,-1,17
 766 55 766 55 737 84.5 c 128,-1,18
 708 114 708 114 687 152 c 128,-1,19
 666 190 666 190 665 236 c 1,20,-1
 370 0 l 1,21,22
 347 13 347 13 314.5 34.5 c 128,-1,23
 282 56 282 56 253 86.5 c 128,-1,24
 224 117 224 117 203.5 156 c 128,-1,25
 183 195 183 195 183 243 c 2,26,-1
 183 737 l 2,27,28
 183 763 183 763 187 778.5 c 128,-1,29
 191 794 191 794 199 805 c 1,30,-1
 184 805 l 2,31,32
 145 805 145 805 113.5 828 c 128,-1,33
 82 851 82 851 59 886 c 128,-1,34
 36 921 36 921 21 962.5 c 128,-1,35
 6 1004 6 1004 0 1042 c 1,36,37
 37 1001 37 1001 69.5 975 c 128,-1,38
 102 949 102 949 140.5 934.5 c 128,-1,39
 179 920 179 920 228.5 914.5 c 128,-1,40
 278 909 278 909 347 909 c 2,41,-1
 1427 909 l 1,0,-1
665 737 m 2,42,43
 665 763 665 763 669 778.5 c 128,-1,44
 673 794 673 794 681 805 c 1,45,-1
 460 805 l 1,46,47
 431 773 431 773 413 735 c 128,-1,48
 395 697 395 697 395 652 c 2,49,-1
 395 310 l 2,50,51
 395 290 395 290 405.5 269 c 128,-1,52
 416 248 416 248 432 229.5 c 128,-1,53
 448 211 448 211 466 197 c 128,-1,54
 484 183 484 183 498 179 c 1,55,-1
 665 312 l 1,56,-1
 665 737 l 2,42,43
877 310 m 2,57,58
 877 290 877 290 887.5 269 c 128,-1,59
 898 248 898 248 914 229.5 c 128,-1,60
 930 211 930 211 948 197 c 128,-1,61
 966 183 966 183 980 179 c 1,62,-1
 1147 312 l 1,63,-1
 1147 805 l 1,64,-1
 942 805 l 1,65,66
 913 773 913 773 895 735 c 128,-1,67
 877 697 877 697 877 652 c 2,68,-1
 877 310 l 2,57,58
EndSplineSet
Validated: 1
EndChar

StartChar: oore
Encoding: 33 57364 27
Width: 1026
GlyphClass: 2
Flags: W
AnchorPoint: "inside" 500 450 basechar 0
AnchorPoint: "shook" 650 100 basechar 0
AnchorPoint: "TehtaAbove" 575 1200 basechar 0
AnchorPoint: "TehtaBelow" 500 -150 basechar 0
LayerCount: 2
Fore
SplineSet
296 -47 m 1,0,1
 251 -3 251 -3 202 36 c 128,-1,2
 153 75 153 75 100 110 c 1,3,4
 151 154 151 154 190 210 c 1,5,-1
 190 642 l 2,6,7
 190 657 190 657 186 672.5 c 128,-1,8
 182 688 182 688 175 702 c 128,-1,9
 168 716 168 716 159.5 726.5 c 128,-1,10
 151 737 151 737 142 741 c 1,11,-1
 72 709 l 1,12,-1
 40 745 l 1,13,-1
 271 930 l 1,14,-1
 350 865 l 2,15,16
 381 839 381 839 391.5 807.5 c 128,-1,17
 402 776 402 776 402 754 c 2,18,-1
 402 691 l 1,19,-1
 701 930 l 1,20,-1
 870 765 l 1,21,-1
 959 856 l 1,22,-1
 982 856 l 1,23,-1
 1006 833 l 1,24,25
 994 817 994 817 973 797 c 128,-1,26
 952 777 952 777 932.5 750 c 128,-1,27
 913 723 913 723 898.5 687.5 c 128,-1,28
 884 652 884 652 884 605 c 2,29,-1
 884 243 l 2,30,31
 884 195 884 195 863.5 156 c 128,-1,32
 843 117 843 117 814 86.5 c 128,-1,33
 785 56 785 56 753 34.5 c 128,-1,34
 721 13 721 13 698 0 c 1,35,-1
 485 174 l 1,36,-1
 513 209 l 1,37,-1
 567 178 l 1,38,39
 581 181 581 181 599 194.5 c 128,-1,40
 617 208 617 208 633.5 227 c 128,-1,41
 650 246 650 246 661 268 c 128,-1,42
 672 290 672 290 672 310 c 2,43,-1
 672 671 l 1,44,-1
 573 751 l 1,45,-1
 402 614 l 1,46,-1
 402 210 l 1,47,48
 441 154 441 154 492 110 c 1,49,50
 439 75 439 75 390 36 c 128,-1,51
 341 -3 341 -3 296 -47 c 1,0,1
EndSplineSet
Validated: 1
EndChar

StartChar: vala
Encoding: 34 57365 28
Width: 1084
GlyphClass: 2
Flags: W
AnchorPoint: "inside" 500 450 basechar 0
AnchorPoint: "shook" 950 100 basechar 0
AnchorPoint: "TehtaAbove" 575 1200 basechar 0
AnchorPoint: "TehtaBelow" 500 -150 basechar 0
LayerCount: 2
Fore
SplineSet
190 81 m 1,0,-1
 190 642 l 2,1,2
 190 657 190 657 186 672.5 c 128,-1,3
 182 688 182 688 175 702 c 128,-1,4
 168 716 168 716 159.5 726.5 c 128,-1,5
 151 737 151 737 142 741 c 1,6,-1
 72 709 l 1,7,-1
 40 745 l 1,8,-1
 271 930 l 1,9,-1
 350 865 l 2,10,11
 381 839 381 839 391.5 807.5 c 128,-1,12
 402 776 402 776 402 754 c 2,13,-1
 402 691 l 1,14,-1
 701 930 l 1,15,-1
 870 765 l 1,16,-1
 959 856 l 1,17,-1
 982 856 l 1,18,-1
 1006 833 l 1,19,20
 994 817 994 817 973 797 c 128,-1,21
 952 777 952 777 932.5 750 c 128,-1,22
 913 723 913 723 898.5 687.5 c 128,-1,23
 884 652 884 652 884 605 c 2,24,-1
 884 197 l 2,25,26
 884 192 884 192 884 182.5 c 128,-1,27
 884 173 884 173 883 162 c 128,-1,28
 882 151 882 151 880 140 c 128,-1,29
 878 129 878 129 874 121 c 1,30,31
 923 137 923 137 965 163 c 0,32,33
 998 183 998 183 1028 208 c 128,-1,34
 1058 233 1058 233 1084 260 c 1,35,36
 1078 222 1078 222 1063 178.5 c 128,-1,37
 1048 135 1048 135 1024 97 c 0,38,39
 998 55 998 55 961 27.5 c 128,-1,40
 924 0 924 0 876 0 c 2,41,-1
 122 0 l 1,42,-1
 105 19 l 1,43,-1
 190 81 l 1,0,-1
600 104 m 1,44,45
 628 110 628 110 650 153 c 128,-1,46
 672 196 672 196 672 274 c 2,47,-1
 672 671 l 1,48,-1
 573 751 l 1,49,-1
 402 614 l 1,50,-1
 402 104 l 1,51,-1
 600 104 l 1,44,45
EndSplineSet
Validated: 1
Substitution2: "Single Substitution lookup 32 subtable" vala.nofin
Substitution2: "Single Substitution lookup 31 subtable" vala.nofin
Substitution2: "Single Substitution lookup 30 subtable" vala.nofin
Substitution2: "Single Substitution lookup 29 subtable" vala.nofin
Substitution2: "Single Substitution lookup 28 subtable" vala.nofin
EndChar

StartChar: anna
Encoding: 35 57366 29
Width: 1045
GlyphClass: 2
Flags: W
AnchorPoint: "shook" 750 100 basechar 0
AnchorPoint: "inside" 500 450 basechar 0
AnchorPoint: "TehtaAbove" 575 1200 basechar 0
AnchorPoint: "TehtaBelow" 500 -150 basechar 0
LayerCount: 2
Fore
SplineSet
749 -47 m 1,0,1
 704 -3 704 -3 655 36 c 128,-1,2
 606 75 606 75 553 110 c 1,3,4
 604 154 604 154 643 210 c 1,5,-1
 643 236 l 1,6,-1
 348 0 l 1,7,8
 325 13 325 13 292.5 34.5 c 128,-1,9
 260 56 260 56 231 86.5 c 128,-1,10
 202 117 202 117 181.5 156 c 128,-1,11
 161 195 161 195 161 243 c 2,12,-1
 161 605 l 2,13,14
 161 652 161 652 146.5 687.5 c 128,-1,15
 132 723 132 723 112.5 750 c 128,-1,16
 93 777 93 777 72.5 797 c 128,-1,17
 52 817 52 817 40 833 c 1,18,-1
 64 856 l 1,19,-1
 87 856 l 1,20,-1
 176 765 l 1,21,-1
 345 930 l 1,22,-1
 558 756 l 1,23,-1
 530 721 l 1,24,-1
 476 752 l 1,25,26
 469 747 469 747 452 733 c 128,-1,27
 435 719 435 719 417.5 698.5 c 128,-1,28
 400 678 400 678 386.5 653 c 128,-1,29
 373 628 373 628 373 602 c 2,30,-1
 373 310 l 2,31,32
 373 290 373 290 383.5 269 c 128,-1,33
 394 248 394 248 410 229.5 c 128,-1,34
 426 211 426 211 444 197 c 128,-1,35
 462 183 462 183 476 179 c 1,36,-1
 643 312 l 1,37,-1
 643 754 l 2,38,39
 643 776 643 776 653 807.5 c 128,-1,40
 663 839 663 839 695 865 c 2,41,-1
 774 930 l 1,42,-1
 1005 745 l 1,43,-1
 973 709 l 1,44,-1
 903 741 l 1,45,46
 894 737 894 737 885.5 726.5 c 128,-1,47
 877 716 877 716 870 702 c 128,-1,48
 863 688 863 688 859 672.5 c 128,-1,49
 855 657 855 657 855 642 c 2,50,-1
 855 210 l 1,51,52
 894 154 894 154 945 110 c 1,53,54
 892 75 892 75 843 36 c 128,-1,55
 794 -3 794 -3 749 -47 c 1,0,1
EndSplineSet
Validated: 1
Substitution2: "Single Substitution lookup 32 subtable" anna.nofin
Substitution2: "Single Substitution lookup 31 subtable" anna.nofin
Substitution2: "Single Substitution lookup 30 subtable" anna.nofin
Substitution2: "Single Substitution lookup 29 subtable" anna.nofin
Substitution2: "Single Substitution lookup 28 subtable" anna.nofin
EndChar

StartChar: wilya
Encoding: 36 57367 30
Width: 1007
GlyphClass: 2
Flags: W
AnchorPoint: "inside" 500 450 basechar 0
AnchorPoint: "shook" 800 800 basechar 0
AnchorPoint: "TehtaAbove" 575 1200 basechar 0
AnchorPoint: "TehtaBelow" 500 -150 basechar 0
LayerCount: 2
Fore
SplineSet
183 737 m 2,0,1
 183 763 183 763 187 778.5 c 128,-1,2
 191 794 191 794 199 805 c 1,3,-1
 184 805 l 2,4,5
 145 805 145 805 113.5 828 c 128,-1,6
 82 851 82 851 59 886 c 128,-1,7
 36 921 36 921 21 962.5 c 128,-1,8
 6 1004 6 1004 0 1042 c 1,9,10
 37 1001 37 1001 69.5 975 c 128,-1,11
 102 949 102 949 140.5 934.5 c 128,-1,12
 179 920 179 920 228.5 914.5 c 128,-1,13
 278 909 278 909 347 909 c 2,14,-1
 945 909 l 1,15,-1
 962 890 l 1,16,-1
 877 828 l 1,17,-1
 877 210 l 1,18,19
 916 154 916 154 967 110 c 1,20,21
 914 75 914 75 865 36 c 128,-1,22
 816 -3 816 -3 771 -47 c 1,23,24
 726 -3 726 -3 677 36 c 128,-1,25
 628 75 628 75 575 110 c 1,26,27
 626 154 626 154 665 210 c 1,28,-1
 665 236 l 1,29,-1
 370 0 l 1,30,31
 347 13 347 13 314.5 34.5 c 128,-1,32
 282 56 282 56 253 86.5 c 128,-1,33
 224 117 224 117 203.5 156 c 128,-1,34
 183 195 183 195 183 243 c 2,35,-1
 183 737 l 2,0,1
395 310 m 2,36,37
 395 290 395 290 405.5 269 c 128,-1,38
 416 248 416 248 432 229.5 c 128,-1,39
 448 211 448 211 466 197 c 128,-1,40
 484 183 484 183 498 179 c 1,41,-1
 665 312 l 1,42,-1
 665 805 l 1,43,-1
 460 805 l 1,44,45
 431 773 431 773 413 735 c 128,-1,46
 395 697 395 697 395 652 c 2,47,-1
 395 310 l 2,36,37
EndSplineSet
Validated: 1
EndChar

StartChar: tinco_ext
Encoding: 37 57368 31
Width: 970
GlyphClass: 2
Flags: W
AnchorPoint: "inside" 500 450 basechar 0
AnchorPoint: "shook" 650 100 basechar 0
AnchorPoint: "TehtaAbove" 650 1200 basechar 0
AnchorPoint: "TehtaBelow" 750 -150 basechar 0
LayerCount: 2
Fore
SplineSet
346 691 m 1,0,-1
 645 930 l 1,1,-1
 814 765 l 1,2,-1
 903 856 l 1,3,-1
 926 856 l 1,4,-1
 950 833 l 1,5,6
 938 816 938 816 917 796.5 c 128,-1,7
 896 777 896 777 876.5 750 c 128,-1,8
 857 723 857 723 842.5 687.5 c 128,-1,9
 828 652 828 652 828 605 c 2,10,-1
 828 243 l 2,11,12
 828 195 828 195 807.5 156 c 128,-1,13
 787 117 787 117 758 86.5 c 128,-1,14
 729 56 729 56 697 34.5 c 128,-1,15
 665 13 665 13 642 0 c 1,16,-1
 429 174 l 1,17,-1
 457 209 l 1,18,-1
 511 178 l 1,19,20
 525 181 525 181 543 194.5 c 128,-1,21
 561 208 561 208 577.5 227 c 128,-1,22
 594 246 594 246 605 268 c 128,-1,23
 616 290 616 290 616 310 c 2,24,-1
 616 671 l 1,25,-1
 517 751 l 1,26,-1
 346 614 l 1,27,-1
 346 -419 l 1,28,29
 366 -447 366 -447 388 -472 c 128,-1,30
 410 -497 410 -497 436 -519 c 1,31,32
 382 -554 382 -554 333.5 -592.5 c 128,-1,33
 285 -631 285 -631 240 -676 c 1,34,35
 195 -631 195 -631 146.5 -592.5 c 128,-1,36
 98 -554 98 -554 44 -519 c 1,37,38
 70 -497 70 -497 92 -472 c 128,-1,39
 114 -447 114 -447 134 -419 c 1,40,-1
 134 1454 l 2,41,42
 134 1488 134 1488 125 1518 c 128,-1,43
 116 1548 116 1548 99 1574 c 0,44,45
 87 1594 87 1594 72 1611 c 128,-1,46
 57 1628 57 1628 40 1645 c 1,47,48
 45 1646 45 1646 50.5 1646.5 c 128,-1,49
 56 1647 56 1647 61 1647 c 0,50,51
 81 1647 81 1647 100 1640 c 128,-1,52
 119 1633 119 1633 136 1622 c 0,53,54
 158 1608 158 1608 177.5 1592.5 c 128,-1,55
 197 1577 197 1577 217 1560 c 1,56,57
 250 1591 250 1591 287 1621 c 0,58,59
 325 1651 325 1651 367.5 1675.5 c 128,-1,60
 410 1700 410 1700 460 1700 c 0,61,62
 466 1700 466 1700 472.5 1699.5 c 128,-1,63
 479 1699 479 1699 485 1698 c 1,64,65
 454 1673 454 1673 428.5 1642 c 128,-1,66
 403 1611 403 1611 386 1576 c 0,67,68
 367 1538 367 1538 356.5 1495 c 128,-1,69
 346 1452 346 1452 346 1410 c 2,70,-1
 346 691 l 1,0,-1
EndSplineSet
Validated: 1
EndChar

StartChar: parma_ext
Encoding: 38 57369 32
Width: 1028
GlyphClass: 2
Flags: W
AnchorPoint: "inside" 500 450 basechar 0
AnchorPoint: "shook" 950 100 basechar 0
AnchorPoint: "TehtaAbove" 650 1200 basechar 0
AnchorPoint: "TehtaBelow" 750 -150 basechar 0
LayerCount: 2
Fore
SplineSet
346 1410 m 2,0,-1
 346 691 l 1,1,-1
 645 930 l 1,2,-1
 814 765 l 1,3,-1
 903 856 l 1,4,-1
 926 856 l 1,5,-1
 950 833 l 1,6,7
 938 817 938 817 917 797 c 128,-1,8
 896 777 896 777 876.5 750 c 128,-1,9
 857 723 857 723 842.5 687.5 c 128,-1,10
 828 652 828 652 828 605 c 2,11,-1
 828 197 l 2,12,13
 828 192 828 192 828 182.5 c 128,-1,14
 828 173 828 173 827 162 c 128,-1,15
 826 151 826 151 824 140 c 128,-1,16
 822 129 822 129 818 121 c 1,17,18
 867 137 867 137 909 163 c 0,19,20
 942 183 942 183 972 208 c 128,-1,21
 1002 233 1002 233 1028 260 c 1,22,23
 1022 222 1022 222 1007 178.5 c 128,-1,24
 992 135 992 135 968 97 c 0,25,26
 942 55 942 55 905 27.5 c 128,-1,27
 868 0 868 0 820 0 c 2,28,-1
 346 0 l 1,29,-1
 346 -419 l 1,30,31
 385 -475 385 -475 436 -519 c 1,32,33
 383 -554 383 -554 334 -593 c 128,-1,34
 285 -632 285 -632 240 -676 c 1,35,36
 195 -632 195 -632 146 -593 c 128,-1,37
 97 -554 97 -554 44 -519 c 1,38,39
 95 -475 95 -475 134 -419 c 1,40,-1
 134 1454 l 2,41,42
 134 1471 134 1471 130.5 1487 c 128,-1,43
 127 1503 127 1503 123 1516 c 0,44,45
 118 1531 118 1531 112 1545 c 0,46,47
 103 1560 103 1560 95.5 1572.5 c 128,-1,48
 88 1585 88 1585 79.5 1597 c 128,-1,49
 71 1609 71 1609 61.5 1620.5 c 128,-1,50
 52 1632 52 1632 40 1645 c 1,51,52
 66 1650 66 1650 90 1643 c 128,-1,53
 114 1636 114 1636 136 1622 c 256,54,55
 158 1608 158 1608 177.5 1591 c 128,-1,56
 197 1574 197 1574 217 1560 c 1,57,58
 243 1585 243 1585 265.5 1604 c 128,-1,59
 288 1623 288 1623 316 1643 c 0,60,61
 348 1663 348 1663 375.5 1677 c 128,-1,62
 403 1691 403 1691 438 1698 c 0,63,64
 447 1699 447 1699 461 1701 c 128,-1,65
 475 1703 475 1703 485 1698 c 1,66,67
 454 1673 454 1673 428.5 1642 c 128,-1,68
 403 1611 403 1611 386 1576 c 0,69,70
 367 1538 367 1538 356.5 1494.5 c 128,-1,71
 346 1451 346 1451 346 1410 c 2,0,-1
544 104 m 1,72,73
 572 110 572 110 594 153 c 128,-1,74
 616 196 616 196 616 274 c 2,75,-1
 616 671 l 1,76,-1
 517 751 l 1,77,-1
 346 614 l 1,78,-1
 346 104 l 1,79,-1
 544 104 l 1,72,73
EndSplineSet
Validated: 1
Substitution2: "Single Substitution lookup 32 subtable" parma_ext.nofin
Substitution2: "Single Substitution lookup 31 subtable" parma_ext.nofin
Substitution2: "Single Substitution lookup 30 subtable" parma_ext.nofin
Substitution2: "Single Substitution lookup 29 subtable" parma_ext.nofin
Substitution2: "Single Substitution lookup 28 subtable" parma_ext.nofin
EndChar

StartChar: calma_ext
Encoding: 39 57370 33
Width: 994
GlyphClass: 2
Flags: W
AnchorPoint: "inside" 500 450 basechar 0
AnchorPoint: "shook" 750 100 basechar 0
AnchorPoint: "TehtaAbove" 300 1200 basechar 0
AnchorPoint: "TehtaBelow" 325 -150 basechar 0
LayerCount: 2
Fore
SplineSet
643 1454 m 2,0,1
 643 1488 643 1488 634 1518 c 128,-1,2
 625 1548 625 1548 608 1574 c 0,3,4
 596 1594 596 1594 581 1611 c 128,-1,5
 566 1628 566 1628 549 1645 c 1,6,7
 554 1646 554 1646 559.5 1646.5 c 128,-1,8
 565 1647 565 1647 570 1647 c 0,9,10
 590 1647 590 1647 609 1640 c 128,-1,11
 628 1633 628 1633 645 1622 c 0,12,13
 667 1608 667 1608 686.5 1592.5 c 128,-1,14
 706 1577 706 1577 726 1560 c 1,15,16
 759 1591 759 1591 796 1621 c 0,17,18
 834 1651 834 1651 876.5 1675.5 c 128,-1,19
 919 1700 919 1700 969 1700 c 0,20,21
 975 1700 975 1700 981.5 1699.5 c 128,-1,22
 988 1699 988 1699 994 1698 c 1,23,24
 963 1673 963 1673 937.5 1642 c 128,-1,25
 912 1611 912 1611 895 1576 c 0,26,27
 876 1538 876 1538 865.5 1495 c 128,-1,28
 855 1452 855 1452 855 1410 c 2,29,-1
 855 -419 l 1,30,31
 875 -447 875 -447 897 -472 c 128,-1,32
 919 -497 919 -497 945 -519 c 1,33,34
 891 -554 891 -554 842.5 -592.5 c 128,-1,35
 794 -631 794 -631 749 -676 c 1,36,37
 704 -631 704 -631 655.5 -592.5 c 128,-1,38
 607 -554 607 -554 553 -519 c 1,39,40
 579 -497 579 -497 601 -472 c 128,-1,41
 623 -447 623 -447 643 -419 c 1,42,-1
 643 236 l 1,43,-1
 348 0 l 1,44,45
 325 13 325 13 292.5 34.5 c 128,-1,46
 260 56 260 56 231 86.5 c 128,-1,47
 202 117 202 117 181.5 156 c 128,-1,48
 161 195 161 195 161 243 c 2,49,-1
 161 605 l 2,50,51
 161 652 161 652 146.5 687.5 c 128,-1,52
 132 723 132 723 112.5 750 c 128,-1,53
 93 777 93 777 72.5 797 c 128,-1,54
 52 817 52 817 40 833 c 1,55,-1
 64 856 l 1,56,-1
 87 856 l 1,57,-1
 176 765 l 1,58,-1
 345 930 l 1,59,-1
 558 756 l 1,60,-1
 530 721 l 1,61,-1
 476 752 l 1,62,63
 469 747 469 747 452 733 c 128,-1,64
 435 719 435 719 417.5 698.5 c 128,-1,65
 400 678 400 678 386.5 653 c 128,-1,66
 373 628 373 628 373 602 c 2,67,-1
 373 310 l 2,68,69
 373 290 373 290 383.5 269 c 128,-1,70
 394 248 394 248 410 229 c 128,-1,71
 426 210 426 210 444 196.5 c 128,-1,72
 462 183 462 183 476 179 c 1,73,-1
 643 312 l 1,74,-1
 643 1454 l 2,0,1
EndSplineSet
Validated: 1
EndChar

StartChar: quesse_ext
Encoding: 40 57371 34
Width: 1016
GlyphClass: 2
Flags: W
AnchorPoint: "inside" 500 450 basechar 0
AnchorPoint: "shook" 800 100 basechar 0
AnchorPoint: "TehtaAbove" 300 1200 basechar 0
AnchorPoint: "TehtaBelow" 325 -150 basechar 0
LayerCount: 2
Fore
SplineSet
395 310 m 2,0,1
 395 290 395 290 405.5 269 c 128,-1,2
 416 248 416 248 432 229 c 128,-1,3
 448 210 448 210 466 196.5 c 128,-1,4
 484 183 484 183 498 179 c 1,5,-1
 665 312 l 1,6,-1
 665 805 l 1,7,-1
 460 805 l 1,8,9
 431 773 431 773 413 735 c 128,-1,10
 395 697 395 697 395 652 c 2,11,-1
 395 310 l 2,0,1
665 1454 m 2,12,13
 665 1488 665 1488 656 1518 c 128,-1,14
 647 1548 647 1548 630 1574 c 0,15,16
 618 1594 618 1594 603 1611 c 128,-1,17
 588 1628 588 1628 571 1645 c 1,18,19
 576 1646 576 1646 581.5 1646.5 c 128,-1,20
 587 1647 587 1647 592 1647 c 0,21,22
 612 1647 612 1647 631 1640 c 128,-1,23
 650 1633 650 1633 667 1622 c 0,24,25
 689 1608 689 1608 708.5 1592.5 c 128,-1,26
 728 1577 728 1577 748 1560 c 1,27,28
 781 1591 781 1591 818 1621 c 0,29,30
 856 1651 856 1651 898.5 1675.5 c 128,-1,31
 941 1700 941 1700 991 1700 c 0,32,33
 997 1700 997 1700 1003.5 1699.5 c 128,-1,34
 1010 1699 1010 1699 1016 1698 c 1,35,36
 985 1673 985 1673 959.5 1642 c 128,-1,37
 934 1611 934 1611 917 1576 c 0,38,39
 898 1538 898 1538 887.5 1495 c 128,-1,40
 877 1452 877 1452 877 1410 c 2,41,-1
 877 -419 l 1,42,43
 897 -447 897 -447 919 -472 c 128,-1,44
 941 -497 941 -497 967 -519 c 1,45,46
 913 -554 913 -554 864.5 -592.5 c 128,-1,47
 816 -631 816 -631 771 -676 c 1,48,49
 726 -631 726 -631 677.5 -592.5 c 128,-1,50
 629 -554 629 -554 575 -519 c 1,51,52
 601 -497 601 -497 623 -472 c 128,-1,53
 645 -447 645 -447 665 -419 c 1,54,-1
 665 236 l 1,55,-1
 370 0 l 1,56,57
 347 13 347 13 314.5 34.5 c 128,-1,58
 282 56 282 56 253 86.5 c 128,-1,59
 224 117 224 117 203.5 156 c 128,-1,60
 183 195 183 195 183 243 c 2,61,-1
 183 737 l 2,62,63
 183 763 183 763 187 778.5 c 128,-1,64
 191 794 191 794 199 805 c 1,65,-1
 184 805 l 2,66,67
 145 805 145 805 113.5 828 c 128,-1,68
 82 851 82 851 59 886 c 128,-1,69
 36 921 36 921 21 962.5 c 128,-1,70
 6 1004 6 1004 0 1042 c 1,71,72
 37 1001 37 1001 69.5 975 c 128,-1,73
 102 949 102 949 140.5 934.5 c 128,-1,74
 179 920 179 920 228 914.5 c 128,-1,75
 277 909 277 909 347 909 c 2,76,-1
 665 909 l 1,77,-1
 665 1454 l 2,12,13
EndSplineSet
Validated: 1
EndChar

StartChar: ando_ext
Encoding: 41 57372 35
Width: 1452
GlyphClass: 2
Flags: W
AnchorPoint: "inside" 500 450 basechar 0
AnchorPoint: "shook" 1150 100 basechar 0
AnchorPoint: "TehtaBelow" 1000 -150 basechar 0
AnchorPoint: "TehtaAbove" 950 1200 basechar 0
LayerCount: 2
Fore
SplineSet
134 1454 m 2,0,1
 134 1488 134 1488 125 1518 c 128,-1,2
 116 1548 116 1548 99 1574 c 0,3,4
 87 1594 87 1594 72 1611 c 128,-1,5
 57 1628 57 1628 40 1645 c 1,6,7
 45 1646 45 1646 50.5 1646.5 c 128,-1,8
 56 1647 56 1647 61 1647 c 0,9,10
 81 1647 81 1647 100 1640 c 128,-1,11
 119 1633 119 1633 136 1622 c 0,12,13
 158 1608 158 1608 177.5 1592.5 c 128,-1,14
 197 1577 197 1577 217 1560 c 1,15,16
 250 1591 250 1591 287 1621 c 0,17,18
 325 1651 325 1651 367.5 1675.5 c 128,-1,19
 410 1700 410 1700 460 1700 c 0,20,21
 466 1700 466 1700 472.5 1699.5 c 128,-1,22
 479 1699 479 1699 485 1698 c 1,23,24
 454 1673 454 1673 428.5 1642 c 128,-1,25
 403 1611 403 1611 386 1576 c 0,26,27
 367 1538 367 1538 356.5 1495 c 128,-1,28
 346 1452 346 1452 346 1410 c 2,29,-1
 346 691 l 1,30,-1
 645 930 l 1,31,-1
 828 750 l 1,32,-1
 828 691 l 1,33,-1
 1127 930 l 1,34,-1
 1296 765 l 1,35,-1
 1385 856 l 1,36,-1
 1408 856 l 1,37,-1
 1432 833 l 1,38,39
 1420 816 1420 816 1399 796.5 c 128,-1,40
 1378 777 1378 777 1358.5 750 c 128,-1,41
 1339 723 1339 723 1324.5 687.5 c 128,-1,42
 1310 652 1310 652 1310 605 c 2,43,-1
 1310 243 l 2,44,45
 1310 195 1310 195 1289.5 156 c 128,-1,46
 1269 117 1269 117 1240 86.5 c 128,-1,47
 1211 56 1211 56 1179 34.5 c 128,-1,48
 1147 13 1147 13 1124 0 c 1,49,-1
 911 174 l 1,50,-1
 939 209 l 1,51,-1
 993 178 l 1,52,53
 1007 181 1007 181 1025 194.5 c 128,-1,54
 1043 208 1043 208 1059.5 227 c 128,-1,55
 1076 246 1076 246 1087 268 c 128,-1,56
 1098 290 1098 290 1098 310 c 2,57,-1
 1098 671 l 1,58,-1
 999 751 l 1,59,-1
 828 614 l 1,60,-1
 828 243 l 2,61,62
 828 195 828 195 807.5 156 c 128,-1,63
 787 117 787 117 758 86.5 c 128,-1,64
 729 56 729 56 697 34.5 c 128,-1,65
 665 13 665 13 642 0 c 1,66,-1
 429 174 l 1,67,-1
 457 209 l 1,68,-1
 511 178 l 1,69,70
 525 181 525 181 543 194.5 c 128,-1,71
 561 208 561 208 577.5 227 c 128,-1,72
 594 246 594 246 605 268 c 128,-1,73
 616 290 616 290 616 310 c 2,74,-1
 616 671 l 1,75,-1
 517 751 l 1,76,-1
 346 614 l 1,77,-1
 346 -419 l 1,78,79
 366 -447 366 -447 388 -472 c 128,-1,80
 410 -497 410 -497 436 -519 c 1,81,82
 382 -554 382 -554 333.5 -592.5 c 128,-1,83
 285 -631 285 -631 240 -676 c 1,84,85
 195 -631 195 -631 146.5 -592.5 c 128,-1,86
 98 -554 98 -554 44 -519 c 1,87,88
 70 -497 70 -497 92 -472 c 128,-1,89
 114 -447 114 -447 134 -419 c 1,90,-1
 134 1454 l 2,0,1
EndSplineSet
Validated: 1
EndChar

StartChar: umbar_ext
Encoding: 42 57373 36
Width: 1510
GlyphClass: 2
Flags: W
AnchorPoint: "inside" 500 450 basechar 0
AnchorPoint: "shook" 1400 100 basechar 0
AnchorPoint: "TehtaBelow" 1000 -150 basechar 0
AnchorPoint: "TehtaAbove" 950 1200 basechar 0
LayerCount: 2
Fore
SplineSet
346 1410 m 2,0,-1
 346 691 l 1,1,-1
 645 930 l 1,2,-1
 828 750 l 1,3,-1
 828 691 l 1,4,-1
 1127 930 l 1,5,-1
 1296 765 l 1,6,-1
 1385 856 l 1,7,-1
 1408 856 l 1,8,-1
 1432 833 l 1,9,10
 1420 817 1420 817 1399 797 c 128,-1,11
 1378 777 1378 777 1358.5 750 c 128,-1,12
 1339 723 1339 723 1324.5 687.5 c 128,-1,13
 1310 652 1310 652 1310 605 c 2,14,-1
 1310 197 l 2,15,16
 1310 192 1310 192 1310 182.5 c 128,-1,17
 1310 173 1310 173 1309 162 c 128,-1,18
 1308 151 1308 151 1306 140 c 128,-1,19
 1304 129 1304 129 1300 121 c 1,20,21
 1349 137 1349 137 1391 163 c 0,22,23
 1424 183 1424 183 1454 208 c 128,-1,24
 1484 233 1484 233 1510 260 c 1,25,26
 1504 222 1504 222 1489 178.5 c 128,-1,27
 1474 135 1474 135 1450 97 c 0,28,29
 1424 55 1424 55 1387 27.5 c 128,-1,30
 1350 0 1350 0 1302 0 c 2,31,-1
 346 0 l 1,32,-1
 346 -419 l 1,33,34
 385 -475 385 -475 436 -519 c 1,35,36
 383 -554 383 -554 334 -593 c 128,-1,37
 285 -632 285 -632 240 -676 c 1,38,39
 195 -632 195 -632 146 -593 c 128,-1,40
 97 -554 97 -554 44 -519 c 1,41,42
 95 -475 95 -475 134 -419 c 1,43,-1
 134 1454 l 2,44,45
 134 1471 134 1471 130.5 1487 c 128,-1,46
 127 1503 127 1503 123 1516 c 0,47,48
 118 1531 118 1531 112 1545 c 0,49,50
 103 1560 103 1560 95.5 1572.5 c 128,-1,51
 88 1585 88 1585 79.5 1597 c 128,-1,52
 71 1609 71 1609 61.5 1620.5 c 128,-1,53
 52 1632 52 1632 40 1645 c 1,54,55
 66 1650 66 1650 90 1643 c 128,-1,56
 114 1636 114 1636 136 1622 c 256,57,58
 158 1608 158 1608 177.5 1591 c 128,-1,59
 197 1574 197 1574 217 1560 c 1,60,61
 243 1585 243 1585 265.5 1604 c 128,-1,62
 288 1623 288 1623 316 1643 c 0,63,64
 348 1663 348 1663 375.5 1677 c 128,-1,65
 403 1691 403 1691 438 1698 c 0,66,67
 447 1699 447 1699 461 1701 c 128,-1,68
 475 1703 475 1703 485 1698 c 1,69,70
 454 1673 454 1673 428.5 1642 c 128,-1,71
 403 1611 403 1611 386 1576 c 0,72,73
 367 1538 367 1538 356.5 1494.5 c 128,-1,74
 346 1451 346 1451 346 1410 c 2,0,-1
1026 104 m 1,75,76
 1054 110 1054 110 1076 153 c 128,-1,77
 1098 196 1098 196 1098 274 c 2,78,-1
 1098 671 l 1,79,-1
 999 751 l 1,80,-1
 828 615 l 1,81,-1
 828 193 l 2,82,83
 828 168 828 168 822.5 146 c 128,-1,84
 817 124 817 124 807 104 c 1,85,-1
 1026 104 l 1,75,76
544 104 m 1,86,87
 572 110 572 110 594 153 c 128,-1,88
 616 196 616 196 616 274 c 2,89,-1
 616 671 l 1,90,-1
 517 751 l 1,91,-1
 346 614 l 1,92,-1
 346 104 l 1,93,-1
 544 104 l 1,86,87
EndSplineSet
Validated: 1
Substitution2: "Single Substitution lookup 32 subtable" umbar_ext.nofin
Substitution2: "Single Substitution lookup 31 subtable" umbar_ext.nofin
Substitution2: "Single Substitution lookup 30 subtable" umbar_ext.nofin
Substitution2: "Single Substitution lookup 29 subtable" umbar_ext.nofin
Substitution2: "Single Substitution lookup 28 subtable" umbar_ext.nofin
EndChar

StartChar: anga_ext
Encoding: 43 57374 37
Width: 1476
GlyphClass: 2
Flags: W
AnchorPoint: "inside" 1000 450 basechar 0
AnchorPoint: "shook" 1250 100 basechar 0
AnchorPoint: "TehtaAbove" 550 1200 basechar 0
AnchorPoint: "TehtaBelow" 500 -150 basechar 0
LayerCount: 2
Fore
SplineSet
1125 1454 m 2,0,1
 1125 1488 1125 1488 1116 1518 c 128,-1,2
 1107 1548 1107 1548 1090 1574 c 0,3,4
 1078 1594 1078 1594 1063 1611 c 128,-1,5
 1048 1628 1048 1628 1031 1645 c 1,6,7
 1036 1646 1036 1646 1041.5 1646.5 c 128,-1,8
 1047 1647 1047 1647 1052 1647 c 0,9,10
 1072 1647 1072 1647 1091 1640 c 128,-1,11
 1110 1633 1110 1633 1127 1622 c 0,12,13
 1149 1608 1149 1608 1168.5 1592.5 c 128,-1,14
 1188 1577 1188 1577 1208 1560 c 1,15,16
 1241 1591 1241 1591 1278 1621 c 0,17,18
 1316 1651 1316 1651 1358.5 1675.5 c 128,-1,19
 1401 1700 1401 1700 1451 1700 c 0,20,21
 1457 1700 1457 1700 1463.5 1699.5 c 128,-1,22
 1470 1699 1470 1699 1476 1698 c 1,23,24
 1445 1673 1445 1673 1419.5 1642 c 128,-1,25
 1394 1611 1394 1611 1377 1576 c 0,26,27
 1358 1538 1358 1538 1347.5 1495 c 128,-1,28
 1337 1452 1337 1452 1337 1410 c 2,29,-1
 1337 -419 l 1,30,31
 1357 -447 1357 -447 1379 -472 c 128,-1,32
 1401 -497 1401 -497 1427 -519 c 1,33,34
 1373 -554 1373 -554 1324.5 -592.5 c 128,-1,35
 1276 -631 1276 -631 1231 -676 c 1,36,37
 1186 -631 1186 -631 1137.5 -592.5 c 128,-1,38
 1089 -554 1089 -554 1035 -519 c 1,39,40
 1061 -497 1061 -497 1083 -472 c 128,-1,41
 1105 -447 1105 -447 1125 -419 c 1,42,-1
 1125 236 l 1,43,-1
 830 0 l 1,44,45
 807 12 807 12 775.5 33 c 128,-1,46
 744 54 744 54 715 84 c 128,-1,47
 686 114 686 114 665 152 c 128,-1,48
 644 190 644 190 643 236 c 1,49,-1
 348 0 l 1,50,51
 325 13 325 13 292.5 34.5 c 128,-1,52
 260 56 260 56 231 86.5 c 128,-1,53
 202 117 202 117 181.5 156 c 128,-1,54
 161 195 161 195 161 243 c 2,55,-1
 161 605 l 2,56,57
 161 652 161 652 146.5 687.5 c 128,-1,58
 132 723 132 723 112.5 750 c 128,-1,59
 93 777 93 777 72.5 797 c 128,-1,60
 52 817 52 817 40 833 c 1,61,-1
 64 856 l 1,62,-1
 87 856 l 1,63,-1
 176 765 l 1,64,-1
 345 930 l 1,65,-1
 558 756 l 1,66,-1
 530 721 l 1,67,-1
 476 752 l 1,68,69
 469 747 469 747 452 733 c 128,-1,70
 435 719 435 719 417.5 698.5 c 128,-1,71
 400 678 400 678 386.5 653 c 128,-1,72
 373 628 373 628 373 602 c 2,73,-1
 373 310 l 2,74,75
 373 290 373 290 383.5 269 c 128,-1,76
 394 248 394 248 410 229 c 128,-1,77
 426 210 426 210 444 196.5 c 128,-1,78
 462 183 462 183 476 179 c 1,79,-1
 643 312 l 1,80,-1
 643 750 l 1,81,-1
 827 930 l 1,82,-1
 1040 756 l 1,83,-1
 1012 721 l 1,84,-1
 958 752 l 1,85,86
 951 747 951 747 934 733 c 128,-1,87
 917 719 917 719 899.5 698.5 c 128,-1,88
 882 678 882 678 868.5 653 c 128,-1,89
 855 628 855 628 855 602 c 2,90,-1
 855 310 l 2,91,92
 855 290 855 290 865.5 269 c 128,-1,93
 876 248 876 248 892 229 c 128,-1,94
 908 210 908 210 926 196.5 c 128,-1,95
 944 183 944 183 958 179 c 1,96,-1
 1125 312 l 1,97,-1
 1125 1454 l 2,0,1
EndSplineSet
Validated: 1
EndChar

StartChar: ungwe_ext
Encoding: 44 57375 38
Width: 1498
GlyphClass: 2
Flags: W
AnchorPoint: "inside" 1000 450 basechar 0
AnchorPoint: "shook" 1250 100 basechar 0
AnchorPoint: "TehtaAbove" 550 1200 basechar 0
AnchorPoint: "TehtaBelow" 500 -150 basechar 0
LayerCount: 2
Fore
SplineSet
665 737 m 2,0,1
 665 763 665 763 669 778.5 c 128,-1,2
 673 794 673 794 681 805 c 1,3,-1
 460 805 l 1,4,5
 431 773 431 773 413 735 c 128,-1,6
 395 697 395 697 395 652 c 2,7,-1
 395 310 l 2,8,9
 395 290 395 290 405.5 269 c 128,-1,10
 416 248 416 248 432 229 c 128,-1,11
 448 210 448 210 466 196.5 c 128,-1,12
 484 183 484 183 498 179 c 1,13,-1
 665 312 l 1,14,-1
 665 737 l 2,0,1
877 310 m 2,15,16
 877 290 877 290 887.5 269 c 128,-1,17
 898 248 898 248 914 229 c 128,-1,18
 930 210 930 210 948 196.5 c 128,-1,19
 966 183 966 183 980 179 c 1,20,-1
 1147 312 l 1,21,-1
 1147 805 l 1,22,-1
 942 805 l 1,23,24
 913 773 913 773 895 735 c 128,-1,25
 877 697 877 697 877 652 c 2,26,-1
 877 310 l 2,15,16
1147 1454 m 2,27,28
 1147 1488 1147 1488 1138 1518 c 128,-1,29
 1129 1548 1129 1548 1112 1574 c 0,30,31
 1100 1594 1100 1594 1085 1611 c 128,-1,32
 1070 1628 1070 1628 1053 1645 c 1,33,34
 1058 1646 1058 1646 1063.5 1646.5 c 128,-1,35
 1069 1647 1069 1647 1074 1647 c 0,36,37
 1094 1647 1094 1647 1113 1640 c 128,-1,38
 1132 1633 1132 1633 1149 1622 c 0,39,40
 1171 1608 1171 1608 1190.5 1592.5 c 128,-1,41
 1210 1577 1210 1577 1230 1560 c 1,42,43
 1263 1591 1263 1591 1300 1621 c 0,44,45
 1338 1651 1338 1651 1380.5 1675.5 c 128,-1,46
 1423 1700 1423 1700 1473 1700 c 0,47,48
 1479 1700 1479 1700 1485.5 1699.5 c 128,-1,49
 1492 1699 1492 1699 1498 1698 c 1,50,51
 1467 1673 1467 1673 1441.5 1642 c 128,-1,52
 1416 1611 1416 1611 1399 1576 c 0,53,54
 1380 1538 1380 1538 1369.5 1495 c 128,-1,55
 1359 1452 1359 1452 1359 1410 c 2,56,-1
 1359 -419 l 1,57,58
 1379 -447 1379 -447 1401 -472 c 128,-1,59
 1423 -497 1423 -497 1449 -519 c 1,60,61
 1395 -554 1395 -554 1346.5 -592.5 c 128,-1,62
 1298 -631 1298 -631 1253 -676 c 1,63,64
 1208 -631 1208 -631 1159.5 -592.5 c 128,-1,65
 1111 -554 1111 -554 1057 -519 c 1,66,67
 1083 -497 1083 -497 1105 -472 c 128,-1,68
 1127 -447 1127 -447 1147 -419 c 1,69,-1
 1147 236 l 1,70,-1
 852 0 l 1,71,72
 829 12 829 12 797.5 33 c 128,-1,73
 766 54 766 54 737 84 c 128,-1,74
 708 114 708 114 687 152 c 128,-1,75
 666 190 666 190 665 236 c 1,76,-1
 370 0 l 1,77,78
 347 13 347 13 314.5 34.5 c 128,-1,79
 282 56 282 56 253 86.5 c 128,-1,80
 224 117 224 117 203.5 156 c 128,-1,81
 183 195 183 195 183 243 c 2,82,-1
 183 737 l 2,83,84
 183 763 183 763 187 778.5 c 128,-1,85
 191 794 191 794 199 805 c 1,86,-1
 184 805 l 2,87,88
 145 805 145 805 113.5 828 c 128,-1,89
 82 851 82 851 59 886 c 128,-1,90
 36 921 36 921 21 962.5 c 128,-1,91
 6 1004 6 1004 0 1042 c 1,92,93
 37 1001 37 1001 69.5 975 c 128,-1,94
 102 949 102 949 140.5 934.5 c 128,-1,95
 179 920 179 920 228 914.5 c 128,-1,96
 277 909 277 909 347 909 c 2,97,-1
 1147 909 l 1,98,-1
 1147 1454 l 2,27,28
EndSplineSet
Validated: 1
EndChar

StartChar: roomen
Encoding: 45 57376 39
Width: 898
GlyphClass: 2
Flags: W
AnchorPoint: "inside" 500 450 basechar 0
AnchorPoint: "shook" 700 800 basechar 0
AnchorPoint: "TehtaBelow" 500 -150 basechar 0
AnchorPoint: "TehtaAbove" 500 1200 basechar 0
LayerCount: 2
Fore
SplineSet
690 930 m 1,0,1
 716 916 716 916 744.5 883.5 c 128,-1,2
 773 851 773 851 797.5 805 c 128,-1,3
 822 759 822 759 838.5 702.5 c 128,-1,4
 855 646 855 646 857 584 c 0,5,6
 858 536 858 536 848.5 488.5 c 128,-1,7
 839 441 839 441 820 396 c 128,-1,8
 801 351 801 351 774.5 310 c 128,-1,9
 748 269 748 269 716 235 c 0,10,11
 687 205 687 205 652 175.5 c 128,-1,12
 617 146 617 146 579.5 118 c 128,-1,13
 542 90 542 90 504 64.5 c 128,-1,14
 466 39 466 39 430 15 c 0,15,16
 369 -25 369 -25 307.5 -59 c 128,-1,17
 246 -93 246 -93 189 -139 c 0,18,19
 171 -154 171 -154 150.5 -170 c 128,-1,20
 130 -186 130 -186 113 -205 c 128,-1,21
 96 -224 96 -224 85 -245 c 128,-1,22
 74 -266 74 -266 74 -290 c 0,23,24
 75 -322 75 -322 91 -346.5 c 128,-1,25
 107 -371 107 -371 132 -387.5 c 128,-1,26
 157 -404 157 -404 186 -412 c 128,-1,27
 215 -420 215 -420 242 -419 c 0,28,29
 316 -418 316 -418 376 -349 c 0,30,31
 395 -326 395 -326 415 -311.5 c 128,-1,32
 435 -297 435 -297 461 -297 c 0,33,34
 482 -297 482 -297 498 -313.5 c 128,-1,35
 514 -330 514 -330 514 -353 c 0,36,37
 513 -384 513 -384 490.5 -405 c 128,-1,38
 468 -426 468 -426 434 -440 c 0,39,40
 413 -449 413 -449 389.5 -454.5 c 128,-1,41
 366 -460 366 -460 343.5 -463.5 c 128,-1,42
 321 -467 321 -467 300.5 -468.5 c 128,-1,43
 280 -470 280 -470 264 -470 c 0,44,45
 226 -470 226 -470 183.5 -460 c 128,-1,46
 141 -450 141 -450 105 -428 c 128,-1,47
 69 -406 69 -406 45 -371 c 128,-1,48
 21 -336 21 -336 21 -285 c 0,49,50
 21 -246 21 -246 37 -214.5 c 128,-1,51
 53 -183 53 -183 75.5 -152.5 c 128,-1,52
 98 -122 98 -122 122.5 -89.5 c 128,-1,53
 147 -57 147 -57 164 -17 c 1,54,55
 175 25 175 25 177 66.5 c 128,-1,56
 179 108 179 108 179 150 c 2,57,-1
 179 642 l 2,58,59
 179 657 179 657 175 672.5 c 128,-1,60
 171 688 171 688 164 702 c 128,-1,61
 157 716 157 716 148.5 726.5 c 128,-1,62
 140 737 140 737 131 741 c 1,63,-1
 61 709 l 1,64,-1
 29 745 l 1,65,-1
 260 930 l 1,66,-1
 339 865 l 2,67,68
 370 839 370 839 380.5 807.5 c 128,-1,69
 391 776 391 776 391 754 c 2,70,-1
 391 691 l 1,71,-1
 690 930 l 1,0,1
391 52 m 1,72,73
 441 86 441 86 489 129.5 c 128,-1,74
 537 173 537 173 572 223 c 0,75,76
 607 272 607 272 630.5 333.5 c 128,-1,77
 654 395 654 395 656 456 c 0,78,79
 658 537 658 537 633.5 612.5 c 128,-1,80
 609 688 609 688 562 751 c 1,81,-1
 391 614 l 1,82,-1
 391 52 l 1,72,73
EndSplineSet
Validated: 33
EndChar

StartChar: arda
Encoding: 46 57377 40
Width: 1038
GlyphClass: 2
Flags: W
AnchorPoint: "inside" 650 450 basechar 0
AnchorPoint: "shook" 850 800 basechar 0
AnchorPoint: "TehtaBelow" 600 -150 basechar 0
AnchorPoint: "TehtaAbove" 600 1200 basechar 0
LayerCount: 2
Fore
SplineSet
830 930 m 1,0,1
 856 916 856 916 884.5 883.5 c 128,-1,2
 913 851 913 851 937.5 805 c 128,-1,3
 962 759 962 759 978.5 702.5 c 128,-1,4
 995 646 995 646 997 584 c 0,5,6
 998 536 998 536 988.5 488.5 c 128,-1,7
 979 441 979 441 960 396 c 128,-1,8
 941 351 941 351 914.5 310 c 128,-1,9
 888 269 888 269 856 235 c 0,10,11
 827 205 827 205 792 175.5 c 128,-1,12
 757 146 757 146 719.5 118 c 128,-1,13
 682 90 682 90 644 64.5 c 128,-1,14
 606 39 606 39 570 15 c 0,15,16
 509 -25 509 -25 447.5 -59 c 128,-1,17
 386 -93 386 -93 329 -139 c 0,18,19
 311 -154 311 -154 290.5 -170 c 128,-1,20
 270 -186 270 -186 253 -205 c 128,-1,21
 236 -224 236 -224 225 -245 c 128,-1,22
 214 -266 214 -266 214 -290 c 0,23,24
 215 -322 215 -322 231 -346.5 c 128,-1,25
 247 -371 247 -371 272 -387.5 c 128,-1,26
 297 -404 297 -404 326 -412 c 128,-1,27
 355 -420 355 -420 382 -419 c 0,28,29
 456 -418 456 -418 516 -349 c 0,30,31
 535 -326 535 -326 555 -311.5 c 128,-1,32
 575 -297 575 -297 601 -297 c 0,33,34
 622 -297 622 -297 638 -313.5 c 128,-1,35
 654 -330 654 -330 654 -353 c 0,36,37
 653 -384 653 -384 630.5 -405 c 128,-1,38
 608 -426 608 -426 574 -440 c 0,39,40
 553 -449 553 -449 529.5 -454.5 c 128,-1,41
 506 -460 506 -460 483.5 -463.5 c 128,-1,42
 461 -467 461 -467 440.5 -468.5 c 128,-1,43
 420 -470 420 -470 404 -470 c 0,44,45
 366 -470 366 -470 323.5 -460 c 128,-1,46
 281 -450 281 -450 245 -428 c 128,-1,47
 209 -406 209 -406 185 -371 c 128,-1,48
 161 -336 161 -336 161 -285 c 0,49,50
 161 -246 161 -246 177 -214.5 c 128,-1,51
 193 -183 193 -183 215.5 -152.5 c 128,-1,52
 238 -122 238 -122 262.5 -89.5 c 128,-1,53
 287 -57 287 -57 304 -17 c 1,54,55
 315 25 315 25 317 66.5 c 128,-1,56
 319 108 319 108 319 150 c 2,57,-1
 319 199 l 1,58,-1
 92 0 l 1,59,-1
 -20 127 l 1,60,-1
 139 266 l 1,61,-1
 221 173 l 1,62,-1
 319 259 l 1,63,-1
 319 642 l 2,64,65
 319 657 319 657 315 672.5 c 128,-1,66
 311 688 311 688 304 702 c 128,-1,67
 297 716 297 716 288.5 726.5 c 128,-1,68
 280 737 280 737 271 741 c 1,69,-1
 201 709 l 1,70,-1
 169 745 l 1,71,-1
 400 930 l 1,72,-1
 479 865 l 2,73,74
 510 839 510 839 520.5 807.5 c 128,-1,75
 531 776 531 776 531 754 c 2,76,-1
 531 691 l 1,77,-1
 830 930 l 1,0,1
531 52 m 1,78,79
 581 86 581 86 629 129.5 c 128,-1,80
 677 173 677 173 712 223 c 0,81,82
 747 272 747 272 770.5 333.5 c 128,-1,83
 794 395 794 395 796 456 c 0,84,85
 798 537 798 537 773.5 612.5 c 128,-1,86
 749 688 749 688 702 751 c 1,87,-1
 531 614 l 1,88,-1
 531 52 l 1,78,79
EndSplineSet
Validated: 33
EndChar

StartChar: lambe
Encoding: 47 57378 41
Width: 1601
GlyphClass: 2
Flags: W
AnchorPoint: "TehtaBelow" 910 -750 basechar 0
AnchorPoint: "inside" 1290 220 basechar 0
AnchorPoint: "shook" 1570 -100 basechar 0
AnchorPoint: "lambe_bar" 1100 500 basechar 0
AnchorPoint: "TehtaAbove" 900 1200 basechar 0
LayerCount: 2
Fore
SplineSet
653 726 m 1,0,1
 582 674 582 674 527.5 607 c 128,-1,2
 473 540 473 540 436.5 465.5 c 128,-1,3
 400 391 400 391 380.5 312 c 128,-1,4
 361 233 361 233 360 157 c 0,5,6
 358 73 358 73 379.5 -2.5 c 128,-1,7
 401 -78 401 -78 441.5 -142 c 128,-1,8
 482 -206 482 -206 538.5 -257.5 c 128,-1,9
 595 -309 595 -309 663.5 -344.5 c 128,-1,10
 732 -380 732 -380 809.5 -398.5 c 128,-1,11
 887 -417 887 -417 970 -415 c 0,12,13
 1122 -411 1122 -411 1252 -346.5 c 128,-1,14
 1382 -282 1382 -282 1480 -169 c 0,15,16
 1503 -142 1503 -142 1524.5 -114 c 128,-1,17
 1546 -86 1546 -86 1560 -63 c 1,18,19
 1573 -56 1573 -56 1584 -58.5 c 128,-1,20
 1595 -61 1595 -61 1599 -78 c 1,21,22
 1583 -126 1583 -126 1562.5 -170 c 128,-1,23
 1542 -214 1542 -214 1515 -256 c 0,24,25
 1462 -337 1462 -337 1391.5 -399.5 c 128,-1,26
 1321 -462 1321 -462 1237.5 -504.5 c 128,-1,27
 1154 -547 1154 -547 1061 -569 c 128,-1,28
 968 -591 968 -591 871 -591 c 0,29,30
 781 -591 781 -591 691.5 -570 c 128,-1,31
 602 -549 602 -549 521.5 -510 c 128,-1,32
 441 -471 441 -471 372.5 -415 c 128,-1,33
 304 -359 304 -359 254.5 -288.5 c 128,-1,34
 205 -218 205 -218 177.5 -135 c 128,-1,35
 150 -52 150 -52 153 41 c 0,36,37
 154 120 154 120 171 197 c 128,-1,38
 188 274 188 274 214 330 c 0,39,40
 234 373 234 373 258.5 412 c 128,-1,41
 283 451 283 451 312 489 c 0,42,43
 337 522 337 522 363.5 550 c 128,-1,44
 390 578 390 578 421.5 606 c 128,-1,45
 453 634 453 634 489.5 662.5 c 128,-1,46
 526 691 526 691 570 726 c 1,47,48
 541 730 541 730 512 732 c 128,-1,49
 483 734 483 734 453 734 c 0,50,51
 391 734 391 734 332.5 720 c 128,-1,52
 274 706 274 706 227 671 c 0,53,54
 177 633 177 633 131 580 c 128,-1,55
 85 527 85 527 56 450 c 0,56,57
 54 444 54 444 48 445 c 128,-1,58
 42 446 42 446 40 451 c 0,59,60
 43 499 43 499 58.5 547.5 c 128,-1,61
 74 596 74 596 98 642 c 128,-1,62
 122 688 122 688 153 728 c 128,-1,63
 184 768 184 768 218 800 c 0,64,65
 253 832 253 832 295.5 855.5 c 128,-1,66
 338 879 338 879 384.5 894.5 c 128,-1,67
 431 910 431 910 480 917.5 c 128,-1,68
 529 925 529 925 577 925 c 0,69,70
 655 925 655 925 756.5 909 c 128,-1,71
 858 893 858 893 965 876 c 0,72,73
 1015 868 1015 868 1064 859.5 c 128,-1,74
 1113 851 1113 851 1159.5 843.5 c 128,-1,75
 1206 836 1206 836 1248.5 831.5 c 128,-1,76
 1291 827 1291 827 1327 827 c 0,77,78
 1364 827 1364 827 1392.5 831.5 c 128,-1,79
 1421 836 1421 836 1447 849.5 c 128,-1,80
 1473 863 1473 863 1502 888.5 c 128,-1,81
 1531 914 1531 914 1570 956 c 0,82,83
 1575 964 1575 964 1581 962.5 c 128,-1,84
 1587 961 1587 961 1588 953 c 0,85,86
 1591 928 1591 928 1586 895.5 c 128,-1,87
 1581 863 1581 863 1565.5 828.5 c 128,-1,88
 1550 794 1550 794 1523 760.5 c 128,-1,89
 1496 727 1496 727 1454 700.5 c 128,-1,90
 1412 674 1412 674 1354 657.5 c 128,-1,91
 1296 641 1296 641 1219 641 c 0,92,93
 1192 641 1192 641 1147 645.5 c 128,-1,94
 1102 650 1102 650 1049 657.5 c 128,-1,95
 996 665 996 665 938.5 674 c 128,-1,96
 881 683 881 683 827 692.5 c 128,-1,97
 773 702 773 702 727.5 710.5 c 128,-1,98
 682 719 682 719 653 726 c 1,0,1
417.100585938 434.056640625 m 1,99,-1
 389.783203125 478.611328125 l 1,100,-1
 955.854492188 824.41796875 l 1,101,-1
 983.096679688 779.825195312 l 1,102,-1
 417.100585938 434.056640625 l 1,99,-1
957.30859375 -499.993164062 m 1,103,-1
 845.048828125 -500.077148438 l 1,104,-1
 845.048828125 823.954101562 l 1,105,-1
 957.303710938 823.954101562 l 1,106,-1
 957.30859375 -499.993164062 l 1,103,-1
763.555664062 -35.2685546875 m 1,107,-1
 319.354492188 -222.216796875 l 1,108,-1
 319.389648438 -170.029296875 l 1,109,-1
 528.375 -80.96484375 l 1,110,-1
 528.37109375 510.706054688 l 1,111,-1
 319.473632812 422.56640625 l 1,112,-1
 338.256835938 445.78515625 l 1,113,-1
 763.677734375 664.049804688 l 1,114,-1
 763.555664062 -35.2685546875 l 1,107,-1
EndSplineSet
Validated: 37
EndChar

StartChar: alda
Encoding: 48 57379 42
Width: 1664
GlyphClass: 2
Flags: W
AnchorPoint: "TehtaBelow" 990 -750 basechar 0
AnchorPoint: "lambe_bar" 1100 500 basechar 0
AnchorPoint: "inside" 1000 -250 basechar 0
AnchorPoint: "shook" 1450 -100 basechar 0
AnchorPoint: "TehtaAbove" 900 1200 basechar 0
LayerCount: 2
Fore
SplineSet
511 732 m 1,0,1
 497 733 497 733 482.5 733.5 c 128,-1,2
 468 734 468 734 453 734 c 0,3,4
 391 734 391 734 332.5 720 c 128,-1,5
 274 706 274 706 227 671 c 0,6,7
 177 633 177 633 131 580 c 128,-1,8
 85 527 85 527 56 450 c 0,9,10
 54 444 54 444 48 445 c 128,-1,11
 42 446 42 446 40 451 c 0,12,13
 43 499 43 499 58.5 547.5 c 128,-1,14
 74 596 74 596 98 642 c 128,-1,15
 122 688 122 688 153 728 c 128,-1,16
 184 768 184 768 218 800 c 0,17,18
 253 832 253 832 295.5 855.5 c 128,-1,19
 338 879 338 879 384.5 894.5 c 128,-1,20
 431 910 431 910 480 917.5 c 128,-1,21
 529 925 529 925 577 925 c 0,22,23
 655 925 655 925 756.5 909 c 128,-1,24
 858 893 858 893 965 876 c 0,25,26
 1015 868 1015 868 1064 859.5 c 128,-1,27
 1113 851 1113 851 1159.5 843.5 c 128,-1,28
 1206 836 1206 836 1248.5 831.5 c 128,-1,29
 1291 827 1291 827 1327 827 c 0,30,31
 1364 827 1364 827 1392.5 831.5 c 128,-1,32
 1421 836 1421 836 1447 849.5 c 128,-1,33
 1473 863 1473 863 1502 888.5 c 128,-1,34
 1531 914 1531 914 1570 956 c 0,35,36
 1575 964 1575 964 1581 962.5 c 128,-1,37
 1587 961 1587 961 1588 953 c 0,38,39
 1589 948 1589 948 1589 943 c 2,40,-1
 1589 933 l 2,41,42
 1589 894 1589 894 1572 843.5 c 128,-1,43
 1555 793 1555 793 1512.5 748 c 128,-1,44
 1470 703 1470 703 1398.5 672 c 128,-1,45
 1327 641 1327 641 1219 641 c 0,46,47
 1188 641 1188 641 1142.5 646.5 c 128,-1,48
 1097 652 1097 652 1043.5 660.5 c 128,-1,49
 990 669 990 669 931.5 679.5 c 128,-1,50
 873 690 873 690 816 699.5 c 128,-1,51
 759 709 759 709 707 716 c 128,-1,52
 655 723 655 723 614 726 c 1,53,54
 592 706 592 706 574.5 690 c 128,-1,55
 557 674 557 674 545 657 c 128,-1,56
 533 640 533 640 526.5 620.5 c 128,-1,57
 520 601 520 601 520 575 c 0,58,59
 520 533 520 533 548 499.5 c 128,-1,60
 576 466 576 466 620 440 c 128,-1,61
 664 414 664 414 717.5 394.5 c 128,-1,62
 771 375 771 375 822.5 361 c 128,-1,63
 874 347 874 347 916.5 338 c 128,-1,64
 959 329 959 329 981 324 c 0,65,66
 1045 308 1045 308 1115.5 284 c 128,-1,67
 1186 260 1186 260 1253 227.5 c 128,-1,68
 1320 195 1320 195 1381 153 c 128,-1,69
 1442 111 1442 111 1488 58.5 c 128,-1,70
 1534 6 1534 6 1561 -57 c 128,-1,71
 1588 -120 1588 -120 1588 -194 c 0,72,73
 1588 -246 1588 -246 1574 -294 c 128,-1,74
 1560 -342 1560 -342 1535 -384.5 c 128,-1,75
 1510 -427 1510 -427 1474.5 -463.5 c 128,-1,76
 1439 -500 1439 -500 1396 -530 c 0,77,78
 1366 -551 1366 -551 1329.5 -572 c 128,-1,79
 1293 -593 1293 -593 1253.5 -610 c 128,-1,80
 1214 -627 1214 -627 1174 -637.5 c 128,-1,81
 1134 -648 1134 -648 1097 -648 c 0,82,83
 1055 -648 1055 -648 1008.5 -638.5 c 128,-1,84
 962 -629 962 -629 914 -617 c 0,85,86
 863 -604 863 -604 809.5 -581 c 128,-1,87
 756 -558 756 -558 712.5 -526 c 128,-1,88
 669 -494 669 -494 641 -452.5 c 128,-1,89
 613 -411 613 -411 613 -360 c 0,90,91
 613 -317 613 -317 630 -275.5 c 128,-1,92
 647 -234 647 -234 675.5 -198 c 128,-1,93
 704 -162 704 -162 739.5 -133.5 c 128,-1,94
 775 -105 775 -105 813 -87 c 0,95,96
 829 -80 829 -80 842 -80 c 0,97,98
 853 -80 853 -80 863 -83.5 c 128,-1,99
 873 -87 873 -87 877 -95 c 1,100,101
 842 -127 842 -127 820 -164 c 128,-1,102
 798 -201 798 -201 798 -249 c 0,103,104
 798 -279 798 -279 807 -303 c 128,-1,105
 816 -327 816 -327 832 -346 c 128,-1,106
 848 -365 848 -365 869.5 -380 c 128,-1,107
 891 -395 891 -395 916 -407 c 0,108,109
 949 -423 949 -423 988 -437.5 c 128,-1,110
 1027 -452 1027 -452 1068 -463.5 c 128,-1,111
 1109 -475 1109 -475 1149.5 -482 c 128,-1,112
 1190 -489 1190 -489 1225 -489 c 0,113,114
 1275 -489 1275 -489 1306.5 -465 c 128,-1,115
 1338 -441 1338 -441 1361 -399 c 0,116,117
 1377 -370 1377 -370 1388.5 -334.5 c 128,-1,118
 1400 -299 1400 -299 1400 -259 c 0,119,120
 1400 -175 1400 -175 1363 -111.5 c 128,-1,121
 1326 -48 1326 -48 1267 -2 c 128,-1,122
 1208 44 1208 44 1135 75 c 128,-1,123
 1062 106 1062 106 991 124 c 0,124,125
 948 135 948 135 881.5 149.5 c 128,-1,126
 815 164 815 164 740.5 184 c 128,-1,127
 666 204 666 204 591.5 230 c 128,-1,128
 517 256 517 256 456.5 289.5 c 128,-1,129
 396 323 396 323 358.5 366 c 128,-1,130
 321 409 321 409 321 463 c 0,131,132
 321 503 321 503 340.5 541.5 c 128,-1,133
 360 580 360 580 388.5 615.5 c 128,-1,134
 417 651 417 651 450.5 680.5 c 128,-1,135
 484 710 484 710 511 732 c 1,0,1
1021.83886719 -437.873046875 m 1,136,-1
 965.635742188 -340.6953125 l 1,137,-1
 1419.45996094 -78.6796875 l 1,138,-1
 1475.58789062 -175.895507812 l 1,139,-1
 1021.83886719 -437.873046875 l 1,136,-1
1020.41992188 -207.125 m 1,140,-1
 964.216796875 -109.946289062 l 1,141,-1
 1331.43945312 102.069335938 l 1,142,-1
 1387.56640625 4.853515625 l 1,143,-1
 1020.41992188 -207.125 l 1,140,-1
1054.97265625 -544.864257812 m 1,144,-1
 942.711914062 -544.948242188 l 1,145,-1
 942.711914062 757.083007812 l 1,146,-1
 1054.96777344 757.083007812 l 1,147,-1
 1054.97265625 -544.864257812 l 1,144,-1
EndSplineSet
Validated: 5
EndChar

StartChar: silme
Encoding: 49 57380 43
Width: 911
GlyphClass: 2
Flags: W
AnchorPoint: "inside" 450 450 basechar 0
AnchorPoint: "shook" 700 800 basechar 0
AnchorPoint: "TehtaAbove" 100 1200 basechar 0
AnchorPoint: "TehtaBelow" 450 -150 basechar 0
LayerCount: 2
Fore
SplineSet
591 621 m 2,0,1
 591 641 591 641 580 663 c 128,-1,2
 569 685 569 685 552.5 704 c 128,-1,3
 536 723 536 723 518 736.5 c 128,-1,4
 500 750 500 750 486 753 c 1,5,-1
 432 722 l 1,6,-1
 404 757 l 1,7,-1
 617 931 l 1,8,9
 640 918 640 918 672 896.5 c 128,-1,10
 704 875 704 875 733 844.5 c 128,-1,11
 762 814 762 814 782.5 775 c 128,-1,12
 803 736 803 736 803 688 c 2,13,-1
 803 365 l 2,14,15
 803 345 803 345 803.5 324 c 128,-1,16
 804 303 804 303 810 284.5 c 128,-1,17
 816 266 816 266 829 250.5 c 128,-1,18
 842 235 842 235 867 225 c 0,19,20
 870 223 870 223 870.5 217 c 128,-1,21
 871 211 871 211 868 207 c 0,22,23
 833 192 833 192 776 174 c 128,-1,24
 719 156 719 156 654 132 c 128,-1,25
 589 108 589 108 523.5 76 c 128,-1,26
 458 44 458 44 407 0 c 1,27,28
 230 147 230 147 145 292 c 128,-1,29
 60 437 60 437 60 585 c 2,30,-1
 60 618 l 2,31,32
 60 720 60 720 86 806 c 128,-1,33
 112 892 112 892 155 973 c 0,34,35
 191 1039 191 1039 231.5 1093.5 c 128,-1,36
 272 1148 272 1148 316.5 1196.5 c 128,-1,37
 361 1245 361 1245 409 1291.5 c 128,-1,38
 457 1338 457 1338 508 1389 c 0,39,40
 527 1408 527 1408 548.5 1430 c 128,-1,41
 570 1452 570 1452 588 1476.5 c 128,-1,42
 606 1501 606 1501 617.5 1527.5 c 128,-1,43
 629 1554 629 1554 629 1582 c 0,44,45
 629 1604 629 1604 618 1623 c 128,-1,46
 607 1642 607 1642 581 1665 c 1,47,-1
 614 1707 l 1,48,49
 651 1696 651 1696 679.5 1675.5 c 128,-1,50
 708 1655 708 1655 727.5 1628 c 128,-1,51
 747 1601 747 1601 757 1569 c 128,-1,52
 767 1537 767 1537 767 1504 c 0,53,54
 767 1460 767 1460 753.5 1422.5 c 128,-1,55
 740 1385 740 1385 718 1351.5 c 128,-1,56
 696 1318 696 1318 668.5 1288 c 128,-1,57
 641 1258 641 1258 613 1229 c 0,58,59
 566 1181 566 1181 518 1133.5 c 128,-1,60
 470 1086 470 1086 427 1035 c 128,-1,61
 384 984 384 984 350 927.5 c 128,-1,62
 316 871 316 871 297 805 c 0,63,64
 289 776 289 776 284 743.5 c 128,-1,65
 279 711 279 711 277 679.5 c 128,-1,66
 275 648 275 648 274.5 620 c 128,-1,67
 274 592 274 592 274 573 c 2,68,-1
 274 390 l 2,69,70
 274 348 274 348 283.5 317.5 c 128,-1,71
 293 287 293 287 305.5 266 c 128,-1,72
 318 245 318 245 330.5 232 c 128,-1,73
 343 219 343 219 349 213 c 1,74,-1
 591 317 l 1,75,-1
 591 621 l 2,0,1
EndSplineSet
Validated: 1
EndChar

StartChar: silme_nuquerna
Encoding: 50 57381 44
Width: 911
GlyphClass: 2
Flags: W
AnchorPoint: "inside" 450 450 basechar 0
AnchorPoint: "shook" 600 800 basechar 0
AnchorPoint: "TehtaBelow" 700 -500 basechar 0
AnchorPoint: "TehtaAbove" 575 1200 basechar 0
LayerCount: 2
Fore
SplineSet
320 310 m 2,0,1
 320 290 320 290 331 268 c 128,-1,2
 342 246 342 246 358.5 227 c 128,-1,3
 375 208 375 208 393 194.5 c 128,-1,4
 411 181 411 181 425 178 c 1,5,-1
 479 209 l 1,6,-1
 507 174 l 1,7,-1
 294 0 l 1,8,9
 271 13 271 13 239 34.5 c 128,-1,10
 207 56 207 56 178 86.5 c 128,-1,11
 149 117 149 117 128.5 156 c 128,-1,12
 108 195 108 195 108 243 c 2,13,-1
 108 566 l 2,14,15
 108 586 108 586 107.5 607 c 128,-1,16
 107 628 107 628 101 646.5 c 128,-1,17
 95 665 95 665 82 680.5 c 128,-1,18
 69 696 69 696 44 706 c 0,19,20
 41 708 41 708 40.5 714 c 128,-1,21
 40 720 40 720 43 724 c 0,22,23
 77 739 77 739 134.5 757 c 128,-1,24
 192 775 192 775 257 799 c 128,-1,25
 322 823 322 823 387.5 855 c 128,-1,26
 453 887 453 887 504 931 c 1,27,28
 681 784 681 784 766 639 c 128,-1,29
 851 494 851 494 851 346 c 2,30,-1
 851 313 l 2,31,32
 851 211 851 211 825 125 c 128,-1,33
 799 39 799 39 756 -42 c 0,34,35
 720 -108 720 -108 679.5 -162.5 c 128,-1,36
 639 -217 639 -217 594.5 -265.5 c 128,-1,37
 550 -314 550 -314 502 -360.5 c 128,-1,38
 454 -407 454 -407 403 -458 c 0,39,40
 383 -477 383 -477 362 -499 c 128,-1,41
 341 -521 341 -521 323 -545.5 c 128,-1,42
 305 -570 305 -570 293.5 -596.5 c 128,-1,43
 282 -623 282 -623 282 -651 c 0,44,45
 282 -673 282 -673 293 -692 c 128,-1,46
 304 -711 304 -711 330 -734 c 1,47,-1
 297 -776 l 1,48,49
 260 -765 260 -765 231.5 -744.5 c 128,-1,50
 203 -724 203 -724 183.5 -697 c 128,-1,51
 164 -670 164 -670 154 -638 c 128,-1,52
 144 -606 144 -606 144 -573 c 0,53,54
 144 -530 144 -530 157.5 -492 c 128,-1,55
 171 -454 171 -454 193 -420.5 c 128,-1,56
 215 -387 215 -387 242.5 -357 c 128,-1,57
 270 -327 270 -327 298 -298 c 0,58,59
 345 -250 345 -250 393 -202.5 c 128,-1,60
 441 -155 441 -155 483.5 -104 c 128,-1,61
 526 -53 526 -53 560.5 3.5 c 128,-1,62
 595 60 595 60 614 126 c 0,63,64
 622 154 622 154 626.5 187 c 128,-1,65
 631 220 631 220 633.5 251.5 c 128,-1,66
 636 283 636 283 636.5 311 c 128,-1,67
 637 339 637 339 637 358 c 2,68,-1
 637 541 l 2,69,70
 637 583 637 583 627.5 613.5 c 128,-1,71
 618 644 618 644 605.5 665 c 128,-1,72
 593 686 593 686 580.5 699 c 128,-1,73
 568 712 568 712 562 718 c 1,74,-1
 320 614 l 1,75,-1
 320 310 l 2,0,1
EndSplineSet
Validated: 1
EndChar

StartChar: esse
Encoding: 51 57382 45
Width: 911
GlyphClass: 2
Flags: W
AnchorPoint: "inside" 450 -300 basechar 0
AnchorPoint: "shook" 650 800 basechar 0
AnchorPoint: "TehtaAbove" 100 1200 basechar 0
AnchorPoint: "TehtaBelow" 450 -900 basechar 0
LayerCount: 2
Fore
SplineSet
591 -409 m 1,0,-1
 591 -215 l 2,1,2
 591 -195 591 -195 580 -173 c 128,-1,3
 569 -151 569 -151 552.5 -132 c 128,-1,4
 536 -113 536 -113 518 -99.5 c 128,-1,5
 500 -86 500 -86 486 -83 c 1,6,-1
 432 -114 l 1,7,-1
 404 -79 l 1,8,-1
 617 95 l 1,9,10
 640 82 640 82 672 60.5 c 128,-1,11
 704 39 704 39 733 8.5 c 128,-1,12
 762 -22 762 -22 782.5 -61 c 128,-1,13
 803 -100 803 -100 803 -148 c 2,14,-1
 803 -355 l 2,15,16
 803 -376 803 -376 803 -399 c 128,-1,17
 803 -422 803 -422 808 -443.5 c 128,-1,18
 813 -465 813 -465 826.5 -482.5 c 128,-1,19
 840 -500 840 -500 867 -511 c 0,20,21
 870 -513 870 -513 870.5 -519 c 128,-1,22
 871 -525 871 -525 868 -529 c 0,23,24
 833 -540 833 -540 770 -559 c 128,-1,25
 707 -578 707 -578 634 -604 c 128,-1,26
 561 -630 561 -630 489.5 -663 c 128,-1,27
 418 -696 418 -696 367 -736 c 1,28,29
 293 -668 293 -668 235.5 -605 c 128,-1,30
 178 -542 178 -542 139 -476 c 128,-1,31
 100 -410 100 -410 80 -336.5 c 128,-1,32
 60 -263 60 -263 60 -173 c 0,33,34
 60 -49 60 -49 104.5 57 c 128,-1,35
 149 163 149 163 230 238 c 1,36,37
 222 246 222 246 215 254.5 c 128,-1,38
 208 263 208 263 201 271 c 0,39,40
 126 365 126 365 93 473.5 c 128,-1,41
 60 582 60 582 60 685 c 0,42,43
 60 796 60 796 101 890 c 128,-1,44
 142 984 142 984 205.5 1067.5 c 128,-1,45
 269 1151 269 1151 346 1226.5 c 128,-1,46
 423 1302 423 1302 495 1376 c 0,47,48
 513 1394 513 1394 534 1415 c 128,-1,49
 555 1436 555 1436 573.5 1459 c 128,-1,50
 592 1482 592 1482 606.5 1506.5 c 128,-1,51
 621 1531 621 1531 626 1557 c 0,52,53
 633 1589 633 1589 623 1612.5 c 128,-1,54
 613 1636 613 1636 581 1665 c 1,55,-1
 614 1707 l 1,56,57
 657 1695 657 1695 688 1669.5 c 128,-1,58
 719 1644 719 1644 738 1611 c 128,-1,59
 757 1578 757 1578 763.5 1540 c 128,-1,60
 770 1502 770 1502 763 1463 c 0,61,62
 756 1426 756 1426 741 1394.5 c 128,-1,63
 726 1363 726 1363 706 1335 c 128,-1,64
 686 1307 686 1307 662 1281 c 128,-1,65
 638 1255 638 1255 613 1229 c 0,66,67
 554 1168 554 1168 493.5 1106.5 c 128,-1,68
 433 1045 433 1045 384 978.5 c 128,-1,69
 335 912 335 912 304.5 837 c 128,-1,70
 274 762 274 762 274 673 c 2,71,-1
 274 441 l 2,72,73
 274 392 274 392 287 358 c 128,-1,74
 300 324 300 324 315 303 c 1,75,76
 341 321 341 321 376.5 339.5 c 128,-1,77
 412 358 412 358 450 375.5 c 128,-1,78
 488 393 488 393 525 406.5 c 128,-1,79
 562 420 562 420 591 428 c 1,80,-1
 591 621 l 2,81,82
 591 641 591 641 580 663 c 128,-1,83
 569 685 569 685 552.5 704 c 128,-1,84
 536 723 536 723 518 736.5 c 128,-1,85
 500 750 500 750 486 753 c 1,86,-1
 432 722 l 1,87,-1
 404 757 l 1,88,-1
 617 931 l 1,89,90
 640 918 640 918 672 896.5 c 128,-1,91
 704 875 704 875 733 844.5 c 128,-1,92
 762 814 762 814 782.5 775 c 128,-1,93
 803 736 803 736 803 688 c 2,94,-1
 803 481 l 2,95,96
 803 460 803 460 803 437 c 128,-1,97
 803 414 803 414 808 392.5 c 128,-1,98
 813 371 813 371 826.5 353.5 c 128,-1,99
 840 336 840 336 867 325 c 0,100,101
 870 323 870 323 870.5 317 c 128,-1,102
 871 311 871 311 868 307 c 0,103,104
 823 298 823 298 769 283 c 128,-1,105
 715 268 715 268 659.5 249.5 c 128,-1,106
 604 231 604 231 551 208.5 c 128,-1,107
 498 186 498 186 456 161 c 0,108,109
 402 128 402 128 366.5 94 c 128,-1,110
 331 60 331 60 310.5 22 c 128,-1,111
 290 -16 290 -16 282 -61.5 c 128,-1,112
 274 -107 274 -107 274 -163 c 2,113,-1
 274 -394 l 2,114,115
 274 -438 274 -438 284.5 -470 c 128,-1,116
 295 -502 295 -502 309 -523 c 1,117,-1
 591 -409 l 1,0,-1
EndSplineSet
Validated: 33
EndChar

StartChar: esse_nuquerna
Encoding: 52 57383 46
Width: 911
GlyphClass: 2
Flags: W
AnchorPoint: "inside" 450 450 basechar 0
AnchorPoint: "shook" 650 800 basechar 0
AnchorPoint: "TehtaBelow" 700 -500 basechar 0
AnchorPoint: "TehtaAbove" 500 1850 basechar 0
LayerCount: 2
Fore
SplineSet
320 1340 m 1,0,-1
 320 1146 l 2,1,2
 320 1126 320 1126 331 1104 c 128,-1,3
 342 1082 342 1082 358.5 1063 c 128,-1,4
 375 1044 375 1044 393 1030.5 c 128,-1,5
 411 1017 411 1017 425 1014 c 1,6,-1
 479 1045 l 1,7,-1
 507 1010 l 1,8,-1
 294 836 l 1,9,10
 271 849 271 849 239 870.5 c 128,-1,11
 207 892 207 892 178 922.5 c 128,-1,12
 149 953 149 953 128.5 992 c 128,-1,13
 108 1031 108 1031 108 1079 c 2,14,-1
 108 1286 l 2,15,16
 108 1307 108 1307 108 1330 c 128,-1,17
 108 1353 108 1353 103 1374.5 c 128,-1,18
 98 1396 98 1396 84.5 1413.5 c 128,-1,19
 71 1431 71 1431 44 1442 c 0,20,21
 41 1444 41 1444 40.5 1450 c 128,-1,22
 40 1456 40 1456 43 1460 c 0,23,24
 66 1467 66 1467 102.5 1478 c 128,-1,25
 139 1489 139 1489 183.5 1503 c 128,-1,26
 228 1517 228 1517 277 1534.5 c 128,-1,27
 326 1552 326 1552 374 1572.5 c 128,-1,28
 422 1593 422 1593 466 1616.5 c 128,-1,29
 510 1640 510 1640 544 1667 c 1,30,31
 618 1599 618 1599 675.5 1536 c 128,-1,32
 733 1473 733 1473 772 1407 c 128,-1,33
 811 1341 811 1341 831 1267.5 c 128,-1,34
 851 1194 851 1194 851 1104 c 0,35,36
 851 980 851 980 806.5 874 c 128,-1,37
 762 768 762 768 681 693 c 1,38,39
 689 685 689 685 696 676.5 c 128,-1,40
 703 668 703 668 710 660 c 0,41,42
 785 566 785 566 818 457.5 c 128,-1,43
 851 349 851 349 851 246 c 0,44,45
 851 135 851 135 810 41 c 128,-1,46
 769 -53 769 -53 705.5 -136.5 c 128,-1,47
 642 -220 642 -220 565 -296 c 128,-1,48
 488 -372 488 -372 416 -445 c 0,49,50
 398 -463 398 -463 377 -484 c 128,-1,51
 356 -505 356 -505 337.5 -528 c 128,-1,52
 319 -551 319 -551 304.5 -575.5 c 128,-1,53
 290 -600 290 -600 285 -626 c 0,54,55
 278 -658 278 -658 288 -681.5 c 128,-1,56
 298 -705 298 -705 330 -734 c 1,57,-1
 297 -776 l 1,58,59
 254 -764 254 -764 223 -738.5 c 128,-1,60
 192 -713 192 -713 173 -680 c 128,-1,61
 154 -647 154 -647 147.5 -609 c 128,-1,62
 141 -571 141 -571 148 -532 c 0,63,64
 155 -495 155 -495 170 -463.5 c 128,-1,65
 185 -432 185 -432 205 -404 c 128,-1,66
 225 -376 225 -376 249 -350 c 128,-1,67
 273 -324 273 -324 298 -298 c 0,68,69
 357 -237 357 -237 417.5 -176 c 128,-1,70
 478 -115 478 -115 526.5 -48 c 128,-1,71
 575 19 575 19 606 94 c 128,-1,72
 637 169 637 169 637 258 c 2,73,-1
 637 490 l 2,74,75
 637 539 637 539 624 573 c 128,-1,76
 611 607 611 607 596 628 c 1,77,78
 570 610 570 610 534.5 591.5 c 128,-1,79
 499 573 499 573 461 555.5 c 128,-1,80
 423 538 423 538 386 524 c 128,-1,81
 349 510 349 510 320 503 c 1,82,-1
 320 310 l 2,83,84
 320 290 320 290 331 268 c 128,-1,85
 342 246 342 246 358.5 227 c 128,-1,86
 375 208 375 208 393 194.5 c 128,-1,87
 411 181 411 181 425 178 c 1,88,-1
 479 209 l 1,89,-1
 507 174 l 1,90,-1
 294 0 l 1,91,92
 271 13 271 13 239 34.5 c 128,-1,93
 207 56 207 56 178 86.5 c 128,-1,94
 149 117 149 117 128.5 156 c 128,-1,95
 108 195 108 195 108 243 c 2,96,-1
 108 450 l 2,97,98
 108 471 108 471 108 494 c 128,-1,99
 108 517 108 517 103 538.5 c 128,-1,100
 98 560 98 560 84.5 577.5 c 128,-1,101
 71 595 71 595 44 606 c 0,102,103
 41 608 41 608 40.5 614 c 128,-1,104
 40 620 40 620 43 624 c 0,105,106
 88 633 88 633 142 647.5 c 128,-1,107
 196 662 196 662 251.5 681 c 128,-1,108
 307 700 307 700 360 722.5 c 128,-1,109
 413 745 413 745 455 770 c 0,110,111
 509 803 509 803 544.5 837 c 128,-1,112
 580 871 580 871 600.5 909 c 128,-1,113
 621 947 621 947 629 992.5 c 128,-1,114
 637 1038 637 1038 637 1094 c 2,115,-1
 637 1325 l 2,116,117
 637 1369 637 1369 626.5 1401 c 128,-1,118
 616 1433 616 1433 602 1454 c 1,119,-1
 320 1340 l 1,0,-1
EndSplineSet
Validated: 33
EndChar

StartChar: hyarmen
Encoding: 53 57384 47
Width: 1251
GlyphClass: 2
Flags: W
AnchorPoint: "inside" 600 300 basechar 0
AnchorPoint: "shook" 1000 100 basechar 0
AnchorPoint: "TehtaAbove" 832 1200 basechar 0
AnchorPoint: "TehtaBelow" 607 -150 basechar 0
LayerCount: 2
Fore
SplineSet
1000 0 m 1,0,1
 968 12 968 12 943.5 31 c 128,-1,2
 919 50 919 50 897 71 c 0,3,4
 853 113 853 113 816 167.5 c 128,-1,5
 779 222 779 222 750 282 c 0,6,7
 709 365 709 365 667 459.5 c 128,-1,8
 625 554 625 554 583 650 c 1,9,-1
 283 0 l 1,10,-1
 49 117 l 1,11,-1
 131 307 l 1,12,-1
 325 226 l 1,13,-1
 554 720 l 1,14,15
 518 805 518 805 484.5 888 c 128,-1,16
 451 971 451 971 417 1051 c 0,17,18
 398 1094 398 1094 381.5 1137.5 c 128,-1,19
 365 1181 365 1181 346.5 1223.5 c 128,-1,20
 328 1266 328 1266 306 1307 c 128,-1,21
 284 1348 284 1348 255 1387 c 0,22,23
 222 1432 222 1432 176 1461.5 c 128,-1,24
 130 1491 130 1491 76 1491 c 0,25,26
 51 1491 51 1491 28 1482.5 c 128,-1,27
 5 1474 5 1474 -16 1460.5 c 128,-1,28
 -37 1447 -37 1447 -56.5 1430 c 128,-1,29
 -76 1413 -76 1413 -94 1395 c 1,30,-1
 -127 1426 l 1,31,32
 -121 1440 -121 1440 -117 1449.5 c 128,-1,33
 -113 1459 -113 1459 -108.5 1467.5 c 128,-1,34
 -104 1476 -104 1476 -98.5 1485.5 c 128,-1,35
 -93 1495 -93 1495 -85 1509 c 0,36,37
 -39 1579 -39 1579 26 1614 c 0,38,39
 90 1648 90 1648 171 1649 c 0,40,41
 217 1650 217 1650 259 1636 c 128,-1,42
 301 1622 301 1622 337 1597.5 c 128,-1,43
 373 1573 373 1573 402.5 1541 c 128,-1,44
 432 1509 432 1509 455 1474 c 0,45,46
 486 1427 486 1427 510.5 1375 c 128,-1,47
 535 1323 535 1323 558 1267 c 0,48,49
 576 1222 576 1222 599.5 1166 c 128,-1,50
 623 1110 623 1110 647.5 1052.5 c 128,-1,51
 672 995 672 995 695 941 c 128,-1,52
 718 887 718 887 735 847 c 0,53,54
 742 830 742 830 758 793.5 c 128,-1,55
 774 757 774 757 795 710.5 c 128,-1,56
 816 664 816 664 839.5 612.5 c 128,-1,57
 863 561 863 561 884 514 c 128,-1,58
 905 467 905 467 921.5 429.5 c 128,-1,59
 938 392 938 392 946 374 c 0,60,61
 966 338 966 338 980 312 c 128,-1,62
 994 286 994 286 1012 260 c 0,63,64
 1028 237 1028 237 1045.5 218 c 128,-1,65
 1063 199 1063 199 1096 178 c 1,66,67
 1109 183 1109 183 1126 194.5 c 128,-1,68
 1143 206 1143 206 1160 218.5 c 128,-1,69
 1177 231 1177 231 1191.5 244 c 128,-1,70
 1206 257 1206 257 1215 265 c 1,71,-1
 1250 227 l 1,72,73
 1246 219 1246 219 1239 210 c 128,-1,74
 1232 201 1232 201 1223 190 c 0,75,76
 1210 174 1210 174 1195 159.5 c 128,-1,77
 1180 145 1180 145 1169 134 c 0,78,79
 1125 93 1125 93 1085 62 c 128,-1,80
 1045 31 1045 31 1000 0 c 1,0,1
EndSplineSet
Validated: 33
EndChar

StartChar: hwesta_sindarinwa
Encoding: 54 57385 48
Width: 1174
GlyphClass: 2
Flags: W
AnchorPoint: "inside" 500 450 basechar 0
AnchorPoint: "shook" 1000 100 basechar 0
AnchorPoint: "TehtaBelow" 500 -150 basechar 0
AnchorPoint: "TehtaAbove" 300 1200 basechar 0
LayerCount: 2
Fore
SplineSet
374 133 m 1,0,1
 374 134 374 134 385 139.5 c 128,-1,2
 396 145 396 145 414 154 c 128,-1,3
 432 163 432 163 455 173.5 c 128,-1,4
 478 184 478 184 502 195 c 0,5,6
 530 208 530 208 562 222.5 c 128,-1,7
 594 237 594 237 630 254 c 1,8,-1
 630 625 l 1,9,-1
 473 751 l 1,10,11
 459 746 459 746 441.5 732 c 128,-1,12
 424 718 424 718 409 700 c 128,-1,13
 394 682 394 682 384 661 c 128,-1,14
 374 640 374 640 374 620 c 2,15,-1
 374 133 l 1,0,1
630 1454 m 2,16,17
 630 1488 630 1488 621 1518 c 128,-1,18
 612 1548 612 1548 595 1574 c 0,19,20
 583 1594 583 1594 568 1611 c 128,-1,21
 553 1628 553 1628 536 1645 c 1,22,23
 541 1646 541 1646 546.5 1646.5 c 128,-1,24
 552 1647 552 1647 557 1647 c 0,25,26
 577 1647 577 1647 596 1640 c 128,-1,27
 615 1633 615 1633 632 1622 c 0,28,29
 654 1608 654 1608 673.5 1592.5 c 128,-1,30
 693 1577 693 1577 713 1560 c 1,31,32
 746 1591 746 1591 783 1621 c 0,33,34
 821 1651 821 1651 863.5 1675.5 c 128,-1,35
 906 1700 906 1700 956 1700 c 0,36,37
 962 1700 962 1700 968.5 1699.5 c 128,-1,38
 975 1699 975 1699 981 1698 c 1,39,40
 950 1673 950 1673 924.5 1642 c 128,-1,41
 899 1611 899 1611 882 1576 c 0,42,43
 863 1538 863 1538 852.5 1495 c 128,-1,44
 842 1452 842 1452 842 1410 c 2,45,-1
 842 315 l 1,46,47
 873 303 873 303 897 278 c 128,-1,48
 921 253 921 253 942 228.5 c 128,-1,49
 963 204 963 204 984.5 185 c 128,-1,50
 1006 166 1006 166 1033 166 c 0,51,52
 1048 166 1048 166 1065 177.5 c 128,-1,53
 1082 189 1082 189 1098 205.5 c 128,-1,54
 1114 222 1114 222 1127.5 239.5 c 128,-1,55
 1141 257 1141 257 1147 268 c 0,56,57
 1158 284 1158 284 1166 276 c 128,-1,58
 1174 268 1174 268 1174 250 c 0,59,60
 1173 216 1173 216 1162 172.5 c 128,-1,61
 1151 129 1151 129 1129.5 91 c 128,-1,62
 1108 53 1108 53 1074 26.5 c 128,-1,63
 1040 0 1040 0 993 0 c 0,64,65
 961 0 961 0 936.5 13 c 128,-1,66
 912 26 912 26 890 42 c 128,-1,67
 868 58 868 58 845.5 71 c 128,-1,68
 823 84 823 84 795 84 c 0,69,70
 777 84 777 84 753 82 c 128,-1,71
 729 80 729 80 697 65 c 0,72,73
 640 39 640 39 586 10 c 128,-1,74
 532 -19 532 -19 486 -47 c 1,75,76
 464 -25 464 -25 422 0.5 c 128,-1,77
 380 26 380 26 332.5 50 c 128,-1,78
 285 74 285 74 239 93 c 128,-1,79
 193 112 193 112 163 120 c 1,80,-1
 163 605 l 2,81,82
 163 652 163 652 148.5 687.5 c 128,-1,83
 134 723 134 723 114 750 c 128,-1,84
 94 777 94 777 73 797 c 128,-1,85
 52 817 52 817 40 833 c 1,86,-1
 64 856 l 1,87,-1
 87 856 l 1,88,-1
 176 765 l 1,89,90
 190 796 190 796 211.5 822 c 128,-1,91
 233 848 233 848 256.5 868.5 c 128,-1,92
 280 889 280 889 303.5 904.5 c 128,-1,93
 327 920 327 920 345 930 c 1,94,-1
 630 702 l 1,95,-1
 630 1454 l 2,16,17
EndSplineSet
Validated: 1
EndChar

StartChar: yanta
Encoding: 55 57386 49
Width: 1242
GlyphClass: 2
Flags: W
AnchorPoint: "inside" 600 300 basechar 0
AnchorPoint: "shook" 1000 100 basechar 0
AnchorPoint: "TehtaAbove" 575 1200 basechar 0
AnchorPoint: "TehtaBelow" 650 -150 basechar 0
LayerCount: 2
Fore
SplineSet
316 226 m 1,0,-1
 531 692 l 1,1,2
 504 721 504 721 467.5 739.5 c 128,-1,3
 431 758 431 758 390 759 c 0,4,5
 360 760 360 760 334 750.5 c 128,-1,6
 308 741 308 741 285.5 726 c 128,-1,7
 263 711 263 711 243.5 691 c 128,-1,8
 224 671 224 671 207 651 c 1,9,-1
 180 692 l 2,10,11
 179 699 179 699 186.5 718 c 128,-1,12
 194 737 194 737 209.5 761 c 128,-1,13
 225 785 225 785 249 811.5 c 128,-1,14
 273 838 273 838 306.5 860 c 128,-1,15
 340 882 340 882 383 896.5 c 128,-1,16
 426 911 426 911 480 912 c 0,17,18
 536 913 536 913 584 894.5 c 128,-1,19
 632 876 632 876 677 835 c 0,20,21
 722 793 722 793 757 744 c 128,-1,22
 792 695 792 695 818 640 c 0,23,24
 836 599 836 599 854.5 558 c 128,-1,25
 873 517 873 517 889.5 481 c 128,-1,26
 906 445 906 445 918.5 417 c 128,-1,27
 931 389 931 389 937 374 c 0,28,29
 957 338 957 338 971 312 c 128,-1,30
 985 286 985 286 1003 260 c 0,31,32
 1019 237 1019 237 1036.5 218 c 128,-1,33
 1054 199 1054 199 1087 178 c 1,34,35
 1100 183 1100 183 1116.5 194 c 128,-1,36
 1133 205 1133 205 1150 218 c 128,-1,37
 1167 231 1167 231 1182 244 c 128,-1,38
 1197 257 1197 257 1206 265 c 1,39,-1
 1241 227 l 1,40,41
 1237 219 1237 219 1230 210 c 128,-1,42
 1223 201 1223 201 1214 190 c 0,43,44
 1201 174 1201 174 1186 159.5 c 128,-1,45
 1171 145 1171 145 1160 134 c 0,46,47
 1116 93 1116 93 1076 62 c 128,-1,48
 1036 31 1036 31 991 0 c 1,49,50
 959 12 959 12 934.5 31 c 128,-1,51
 910 50 910 50 888 71 c 0,52,53
 844 113 844 113 807 167.5 c 128,-1,54
 770 222 770 222 741 282 c 0,55,56
 711 347 711 347 683 411.5 c 128,-1,57
 655 476 655 476 625 541 c 0,58,59
 613 567 613 567 600 591 c 128,-1,60
 587 615 587 615 572 641 c 1,61,-1
 274 0 l 1,62,-1
 40 117 l 1,63,-1
 122 307 l 1,64,-1
 316 226 l 1,0,-1
EndSplineSet
Validated: 33
EndChar

StartChar: uure
Encoding: 56 57387 50
Width: 923
GlyphClass: 2
Flags: W
AnchorPoint: "inside" 500 450 basechar 0
AnchorPoint: "shook" 650 100 basechar 0
AnchorPoint: "TehtaAbove" 500 1200 basechar 0
AnchorPoint: "TehtaBelow" 500 -150 basechar 0
LayerCount: 2
Fore
SplineSet
622 636 m 1,0,1
 558 667 558 667 491.5 692.5 c 128,-1,2
 425 718 425 718 352 728 c 1,3,-1
 352 248 l 1,4,-1
 622 125 l 1,5,-1
 622 636 l 1,0,1
833 128 m 1,6,7
 798 116 798 116 756.5 97 c 128,-1,8
 715 78 715 78 672 54.5 c 128,-1,9
 629 31 629 31 586 5 c 128,-1,10
 543 -21 543 -21 504 -47 c 1,11,12
 489 -32 489 -32 460.5 -15 c 128,-1,13
 432 2 432 2 397 19 c 128,-1,14
 362 36 362 36 323.5 52.5 c 128,-1,15
 285 69 285 69 249 83 c 0,16,17
 205 101 205 101 164.5 105 c 128,-1,18
 124 109 124 109 77 111 c 1,19,20
 72 117 72 117 72 120.5 c 128,-1,21
 72 124 72 124 73 129 c 0,22,23
 93 146 93 146 109.5 168 c 128,-1,24
 126 190 126 190 141 219 c 1,25,-1
 141 605 l 2,26,27
 141 652 141 652 126.5 687.5 c 128,-1,28
 112 723 112 723 92.5 750 c 128,-1,29
 73 777 73 777 52.5 797 c 128,-1,30
 32 817 32 817 20 833 c 1,31,-1
 44 856 l 1,32,-1
 67 856 l 1,33,-1
 156 765 l 1,34,35
 188 775 188 775 232.5 794.5 c 128,-1,36
 277 814 277 814 321.5 837.5 c 128,-1,37
 366 861 366 861 404.5 885.5 c 128,-1,38
 443 910 443 910 464 930 c 1,39,40
 512 907 512 907 554.5 887 c 128,-1,41
 597 867 597 867 640.5 848.5 c 128,-1,42
 684 830 684 830 730.5 811 c 128,-1,43
 777 792 777 792 833 771 c 1,44,-1
 833 128 l 1,6,7
EndSplineSet
Validated: 1
EndChar

StartChar: aara
Encoding: 57 57388 51
Width: 538
GlyphClass: 2
Flags: W
AnchorPoint: "shook" 300 100 basechar 0
AnchorPoint: "TehtaAbove" 300 1200 basechar 0
AnchorPoint: "TehtaBelow" 300 -650 basechar 0
LayerCount: 2
Fore
SplineSet
79 709 m 1,0,-1
 47 745 l 1,1,-1
 286 930 l 1,2,3
 334 880 334 880 382 833 c 128,-1,4
 430 786 430 786 498 745 c 1,5,6
 483 716 483 716 472 688.5 c 128,-1,7
 461 661 461 661 447 632 c 0,8,9
 415 567 415 567 399.5 502 c 128,-1,10
 384 437 384 437 382 360 c 0,11,12
 380 299 380 299 389 237 c 128,-1,13
 398 175 398 175 405 112 c 0,14,15
 407 92 407 92 409.5 63.5 c 128,-1,16
 412 35 412 35 414 3.5 c 128,-1,17
 416 -28 416 -28 417.5 -60 c 128,-1,18
 419 -92 419 -92 419 -119 c 0,19,20
 418 -159 418 -159 417.5 -187.5 c 128,-1,21
 417 -216 417 -216 413 -241 c 128,-1,22
 409 -266 409 -266 400 -291.5 c 128,-1,23
 391 -317 391 -317 374 -350 c 0,24,25
 347 -404 347 -404 305 -449 c 128,-1,26
 263 -494 263 -494 215 -529 c 0,27,28
 205 -536 205 -536 188.5 -547 c 128,-1,29
 172 -558 172 -558 152 -569 c 0,30,31
 143 -574 143 -574 127 -581 c 128,-1,32
 111 -588 111 -588 94.5 -593.5 c 128,-1,33
 78 -599 78 -599 62.5 -599.5 c 128,-1,34
 47 -600 47 -600 40 -592 c 1,35,36
 41 -582 41 -582 58 -568.5 c 128,-1,37
 75 -555 75 -555 108 -522 c 0,38,39
 143 -487 143 -487 170 -448 c 128,-1,40
 197 -409 197 -409 215 -360 c 0,41,42
 226 -329 226 -329 229.5 -296 c 128,-1,43
 233 -263 233 -263 234 -230 c 0,44,45
 235 -188 235 -188 230.5 -148 c 128,-1,46
 226 -108 226 -108 219 -68 c 128,-1,47
 212 -28 212 -28 203 12 c 128,-1,48
 194 52 194 52 187 93 c 0,49,50
 176 155 176 155 168.5 218 c 128,-1,51
 161 281 161 281 163 342 c 0,52,53
 164 385 164 385 167 428.5 c 128,-1,54
 170 472 170 472 177.5 514.5 c 128,-1,55
 185 557 185 557 198.5 598 c 128,-1,56
 212 639 212 639 233 678 c 1,57,-1
 148 763 l 1,58,-1
 79 709 l 1,0,-1
EndSplineSet
Validated: 33
EndChar

StartChar: halla
Encoding: 58 57389 52
Width: 525
GlyphClass: 2
Flags: W
AnchorPoint: "shook" 250 100 basechar 0
AnchorPoint: "TehtaAbove" 250 1850 basechar 0
AnchorPoint: "TehtaBelow" 250 -150 basechar 0
LayerCount: 2
Fore
SplineSet
134 1454 m 2,0,1
 134 1488 134 1488 125 1518 c 128,-1,2
 116 1548 116 1548 99 1574 c 0,3,4
 87 1594 87 1594 72 1611 c 128,-1,5
 57 1628 57 1628 40 1645 c 1,6,7
 45 1646 45 1646 50.5 1646.5 c 128,-1,8
 56 1647 56 1647 61 1647 c 0,9,10
 81 1647 81 1647 100 1640 c 128,-1,11
 119 1633 119 1633 136 1622 c 0,12,13
 158 1608 158 1608 177.5 1592.5 c 128,-1,14
 197 1577 197 1577 217 1560 c 1,15,16
 250 1591 250 1591 287 1621 c 0,17,18
 325 1651 325 1651 367.5 1675.5 c 128,-1,19
 410 1700 410 1700 460 1700 c 0,20,21
 466 1700 466 1700 472.5 1699.5 c 128,-1,22
 479 1699 479 1699 485 1698 c 1,23,24
 454 1673 454 1673 428.5 1642 c 128,-1,25
 403 1611 403 1611 386 1576 c 0,26,27
 367 1538 367 1538 356.5 1495 c 128,-1,28
 346 1452 346 1452 346 1410 c 2,29,-1
 346 210 l 1,30,31
 366 182 366 182 388 157 c 128,-1,32
 410 132 410 132 436 110 c 1,33,34
 382 75 382 75 333.5 36.5 c 128,-1,35
 285 -2 285 -2 240 -47 c 1,36,37
 195 -2 195 -2 146.5 36.5 c 128,-1,38
 98 75 98 75 44 110 c 1,39,40
 70 132 70 132 92 157 c 128,-1,41
 114 182 114 182 134 210 c 1,42,-1
 134 1454 l 2,0,1
EndSplineSet
Validated: 1
EndChar

StartChar: telco
Encoding: 59 57390 53
Width: 532
GlyphClass: 2
Flags: W
AnchorPoint: "shook" 300 100 basechar 0
AnchorPoint: "TehtaBelow" 300 -150 basechar 0
AnchorPoint: "TehtaAbove" 300 1200 basechar 0
LayerCount: 2
Fore
SplineSet
296 -47 m 1,0,1
 251 -3 251 -3 202 36 c 128,-1,2
 153 75 153 75 100 110 c 1,3,4
 151 154 151 154 190 210 c 1,5,-1
 190 642 l 2,6,7
 190 657 190 657 186 672.5 c 128,-1,8
 182 688 182 688 175 702 c 128,-1,9
 168 716 168 716 159.5 726.5 c 128,-1,10
 151 737 151 737 142 741 c 1,11,-1
 72 709 l 1,12,-1
 40 745 l 1,13,-1
 271 930 l 1,14,-1
 350 865 l 2,15,16
 381 839 381 839 391.5 807.5 c 128,-1,17
 402 776 402 776 402 754 c 2,18,-1
 402 691 l 1,19,-1
 402 210 l 1,20,21
 441 154 441 154 492 110 c 1,22,23
 439 75 439 75 390 36 c 128,-1,24
 341 -3 341 -3 296 -47 c 1,0,1
EndSplineSet
Validated: 1
EndChar

StartChar: stemless_tinco
Encoding: 60 57392 54
Width: 875
GlyphClass: 2
Flags: W
AnchorPoint: "inside" 300 450 basechar 0
AnchorPoint: "shook" 600 100 basechar 0
AnchorPoint: "TehtaAbove" 450 1200 basechar 0
AnchorPoint: "TehtaBelow" 450 -150 basechar 0
LayerCount: 2
Fore
SplineSet
554 635 m 1,0,-1
 289 756 l 1,1,-1
 79 655 l 1,2,3
 67 662 67 662 57.5 670.5 c 128,-1,4
 48 679 48 679 43.5 689.5 c 128,-1,5
 39 700 39 700 40.5 714 c 128,-1,6
 42 728 42 728 52 745 c 1,7,8
 96 765 96 765 143.5 789 c 128,-1,9
 191 813 191 813 237 838 c 128,-1,10
 283 863 283 863 325.5 887 c 128,-1,11
 368 911 368 911 402 930 c 1,12,13
 417 915 417 915 445.5 898 c 128,-1,14
 474 881 474 881 509 864 c 128,-1,15
 544 847 544 847 582.5 830.5 c 128,-1,16
 621 814 621 814 657 800 c 0,17,18
 700 782 700 782 741 777.5 c 128,-1,19
 782 773 782 773 829 772 c 1,20,21
 834 766 834 766 834 762.5 c 128,-1,22
 834 759 834 759 833 754 c 0,23,24
 796 723 796 723 765 664 c 1,25,-1
 765 120 l 1,26,27
 735 112 735 112 689 93 c 128,-1,28
 643 74 643 74 595.5 50 c 128,-1,29
 548 26 548 26 506 0.5 c 128,-1,30
 464 -25 464 -25 442 -47 c 1,31,32
 394 -24 394 -24 348 -3 c 128,-1,33
 302 18 302 18 255 38.5 c 128,-1,34
 208 59 208 59 158 79 c 128,-1,35
 108 99 108 99 52 120 c 1,36,-1
 275 251 l 1,37,38
 339 220 339 220 410 192.5 c 128,-1,39
 481 165 481 165 554 155 c 1,40,-1
 554 635 l 1,0,-1
EndSplineSet
Validated: 1
EndChar

StartChar: stemless_parma
Encoding: 61 57393 55
Width: 1170
GlyphClass: 2
Flags: W
AnchorPoint: "inside" 550 600 basechar 0
AnchorPoint: "TehtaBelow" 590 -450 basechar 0
AnchorPoint: "TehtaAbove" 590 1200 basechar 0
LayerCount: 2
Fore
SplineSet
162 704 m 1,0,1
 193 715 193 715 231.5 731.5 c 128,-1,2
 270 748 270 748 311.5 768 c 128,-1,3
 353 788 353 788 395 810.5 c 128,-1,4
 437 833 437 833 475.5 854.5 c 128,-1,5
 514 876 514 876 546 895.5 c 128,-1,6
 578 915 578 915 600 930 c 1,7,8
 615 915 615 915 643.5 898 c 128,-1,9
 672 881 672 881 707 864 c 128,-1,10
 742 847 742 847 780.5 830.5 c 128,-1,11
 819 814 819 814 855 800 c 0,12,13
 898 782 898 782 939 777.5 c 128,-1,14
 980 773 980 773 1027 772 c 1,15,16
 1032 766 1032 766 1032 762.5 c 128,-1,17
 1032 759 1032 759 1031 754 c 0,18,19
 994 723 994 723 963 664 c 1,20,-1
 963 340 l 1,21,-1
 416 -74 l 1,22,23
 471 -71 471 -71 533 -83.5 c 128,-1,24
 595 -96 595 -96 657.5 -112.5 c 128,-1,25
 720 -129 720 -129 779.5 -143 c 128,-1,26
 839 -157 839 -157 889 -157 c 0,27,28
 924 -157 924 -157 952 -147 c 128,-1,29
 980 -137 980 -137 1003 -120 c 128,-1,30
 1026 -103 1026 -103 1046.5 -79 c 128,-1,31
 1067 -55 1067 -55 1087 -27 c 1,32,33
 1106 -94 1106 -94 1087.5 -148.5 c 128,-1,34
 1069 -203 1069 -203 1028 -242 c 128,-1,35
 987 -281 987 -281 930.5 -302 c 128,-1,36
 874 -323 874 -323 817 -323 c 0,37,38
 763 -323 763 -323 708 -310.5 c 128,-1,39
 653 -298 653 -298 592 -284 c 0,40,41
 526 -268 526 -268 464.5 -255 c 128,-1,42
 403 -242 403 -242 356 -242 c 0,43,44
 324 -242 324 -242 294.5 -253 c 128,-1,45
 265 -264 265 -264 239.5 -281.5 c 128,-1,46
 214 -299 214 -299 193.5 -321 c 128,-1,47
 173 -343 173 -343 161 -364 c 1,48,49
 159 -345 159 -345 158.5 -327.5 c 128,-1,50
 158 -310 158 -310 160 -293 c 0,51,52
 163 -259 163 -259 170.5 -232.5 c 128,-1,53
 178 -206 178 -206 191 -185 c 128,-1,54
 204 -164 204 -164 222 -146 c 128,-1,55
 240 -128 240 -128 263 -110 c 2,56,-1
 752 260 l 1,57,-1
 752 635 l 1,58,-1
 487 756 l 1,59,60
 452 748 452 748 424.5 733.5 c 128,-1,61
 397 719 397 719 374 701 c 1,62,-1
 374 515 l 2,63,64
 374 495 374 495 385 473 c 128,-1,65
 396 451 396 451 412.5 432 c 128,-1,66
 429 413 429 413 447 399.5 c 128,-1,67
 465 386 465 386 479 383 c 1,68,-1
 533 414 l 1,69,-1
 561 379 l 1,70,-1
 348 205 l 1,71,72
 325 218 325 218 293 239.5 c 128,-1,73
 261 261 261 261 232 291.5 c 128,-1,74
 203 322 203 322 182.5 361 c 128,-1,75
 162 400 162 400 162 448 c 2,76,-1
 162 704 l 1,0,1
EndSplineSet
Validated: 33
EndChar

StartChar: stemless_calma
Encoding: 62 57394 56
Width: 841
GlyphClass: 2
Flags: W
AnchorPoint: "inside" 600 450 basechar 0
AnchorPoint: "shook" 650 100 basechar 0
AnchorPoint: "TehtaBelow" 404 -150 basechar 0
AnchorPoint: "TehtaAbove" 454 1200 basechar 0
LayerCount: 2
Fore
SplineSet
295 248 m 1,0,-1
 560 127 l 1,1,-1
 770 228 l 1,2,3
 795 214 795 214 805.5 193 c 128,-1,4
 816 172 816 172 797 138 c 1,5,6
 753 118 753 118 705.5 94 c 128,-1,7
 658 70 658 70 612 45 c 128,-1,8
 566 20 566 20 523.5 -4 c 128,-1,9
 481 -28 481 -28 447 -47 c 1,10,11
 432 -32 432 -32 403.5 -15 c 128,-1,12
 375 2 375 2 340 19 c 128,-1,13
 305 36 305 36 266.5 52.5 c 128,-1,14
 228 69 228 69 192 83 c 0,15,16
 147 101 147 101 107.5 105 c 128,-1,17
 68 109 68 109 20 111 c 1,18,19
 15 117 15 117 15 120.5 c 128,-1,20
 15 124 15 124 16 129 c 0,21,22
 55 162 55 162 84 219 c 1,23,-1
 84 763 l 1,24,25
 114 771 114 771 160 790 c 128,-1,26
 206 809 206 809 253.5 833 c 128,-1,27
 301 857 301 857 343 882.5 c 128,-1,28
 385 908 385 908 407 930 c 1,29,30
 455 907 455 907 501 886 c 128,-1,31
 547 865 547 865 594 844.5 c 128,-1,32
 641 824 641 824 691 804 c 128,-1,33
 741 784 741 784 797 763 c 1,34,-1
 574 632 l 1,35,36
 510 663 510 663 439 690.5 c 128,-1,37
 368 718 368 718 295 728 c 1,38,-1
 295 248 l 1,0,-1
EndSplineSet
Validated: 1
Substitution2: "Single Substitution lookup 6 subtable" osse.tick
Substitution2: "Single Substitution lookup 5 subtable" osse.tick
Substitution2: "Single Substitution lookup 4 subtable" osse.tick
Substitution2: "Single Substitution lookup 3 subtable" osse.tick
Substitution2: "Single Substitution lookup 2 subtable" osse.tick
Substitution2: "Single Substitution lookup 1 subtable" osse.tick
EndChar

StartChar: stemless_quesse
Encoding: 63 57395 57
Width: 855
GlyphClass: 2
Flags: W
AnchorPoint: "inside" 600 450 basechar 0
AnchorPoint: "TehtaAbove" 450 1200 basechar 0
AnchorPoint: "TehtaBelow" 400 -150 basechar 0
LayerCount: 2
Fore
SplineSet
61 900 m 1,0,1
 85 888 85 888 104 881 c 128,-1,2
 123 874 123 874 142.5 871 c 128,-1,3
 162 868 162 868 184.5 867 c 128,-1,4
 207 866 207 866 237 866 c 0,5,6
 250 866 250 866 291.5 872 c 128,-1,7
 333 878 333 878 383.5 885.5 c 128,-1,8
 434 893 434 893 484 899.5 c 128,-1,9
 534 906 534 906 565 906 c 0,10,11
 657 906 657 906 729 826 c 0,12,13
 748 804 748 804 760 786 c 128,-1,14
 772 768 772 768 780.5 749 c 128,-1,15
 789 730 789 730 796.5 708 c 128,-1,16
 804 686 804 686 815 656 c 1,17,-1
 797 652 l 1,18,19
 776 678 776 678 755.5 693 c 128,-1,20
 735 708 735 708 714 716 c 128,-1,21
 693 724 693 724 670.5 726 c 128,-1,22
 648 728 648 728 623 728 c 0,23,24
 604 728 604 728 577.5 724 c 128,-1,25
 551 720 551 720 523 715 c 128,-1,26
 495 710 495 710 468 706 c 128,-1,27
 441 702 441 702 421 702 c 0,28,29
 404 702 404 702 387 702.5 c 128,-1,30
 370 703 370 703 353 706 c 1,31,32
 366 681 366 681 377.5 662.5 c 128,-1,33
 389 644 389 644 397.5 613 c 128,-1,34
 406 582 406 582 410.5 528.5 c 128,-1,35
 415 475 415 475 415 380 c 2,36,-1
 415 310 l 2,37,38
 415 290 415 290 426 268 c 128,-1,39
 437 246 437 246 453.5 227 c 128,-1,40
 470 208 470 208 488 194.5 c 128,-1,41
 506 181 506 181 520 178 c 1,42,-1
 574 209 l 1,43,-1
 602 174 l 1,44,-1
 389 0 l 1,45,46
 366 13 366 13 334 34.5 c 128,-1,47
 302 56 302 56 273 86.5 c 128,-1,48
 244 117 244 117 223.5 156 c 128,-1,49
 203 195 203 195 203 243 c 2,50,-1
 203 462 l 2,51,52
 203 530 203 530 194 587 c 128,-1,53
 185 644 185 644 165.5 693 c 128,-1,54
 146 742 146 742 115 784 c 128,-1,55
 84 826 84 826 40 864 c 1,56,-1
 61 900 l 1,0,1
EndSplineSet
Validated: 1
EndChar

StartChar: telco_ligating
Encoding: 64 57396 58
Width: 1240
GlyphClass: 2
Flags: W
AnchorPoint: "inside" 600 450 basechar 0
AnchorPoint: "TehtaBelow" 300 -150 basechar 0
AnchorPoint: "TehtaAbove" 600 1200 basechar 0
LayerCount: 2
Fore
SplineSet
296 -47 m 1,0,1
 251 -2 251 -2 202.5 36.5 c 128,-1,2
 154 75 154 75 100 110 c 1,3,4
 126 132 126 132 148 157 c 128,-1,5
 170 182 170 182 190 210 c 1,6,-1
 190 642 l 2,7,8
 190 657 190 657 186 672.5 c 128,-1,9
 182 688 182 688 175 702 c 128,-1,10
 168 716 168 716 159.5 726.5 c 128,-1,11
 151 737 151 737 142 741 c 1,12,-1
 72 709 l 1,13,-1
 40 745 l 1,14,-1
 271 930 l 1,15,-1
 350 865 l 2,16,17
 365 852 365 852 375 837 c 128,-1,18
 385 822 385 822 391 807 c 128,-1,19
 397 792 397 792 399.5 778.5 c 128,-1,20
 402 765 402 765 402 754 c 2,21,-1
 402 699 l 1,22,-1
 602 884 l 1,23,24
 641 875 641 875 691 869.5 c 128,-1,25
 741 864 741 864 794.5 866.5 c 128,-1,26
 848 869 848 869 901 880 c 128,-1,27
 954 891 954 891 999 915 c 1,28,29
 1005 912 1005 912 1006.5 909 c 128,-1,30
 1008 906 1008 906 1008 901 c 0,31,32
 1005 855 1005 855 991 822 c 128,-1,33
 977 789 977 789 954 764 c 128,-1,34
 931 739 931 739 900.5 719 c 128,-1,35
 870 699 870 699 834 679 c 1,36,-1
 488 679 l 1,37,-1
 402 627 l 1,38,-1
 402 210 l 1,39,40
 422 182 422 182 444 157 c 128,-1,41
 466 132 466 132 492 110 c 1,42,43
 438 75 438 75 389.5 36.5 c 128,-1,44
 341 -2 341 -2 296 -47 c 1,0,1
EndSplineSet
Validated: 33
EndChar

StartChar: anna_sindarinwa
Encoding: 65 57397 59
Width: 1045
GlyphClass: 2
Flags: W
AnchorPoint: "shook" 750 100 basechar 0
AnchorPoint: "inside" 500 450 basechar 0
AnchorPoint: "TehtaAbove" 575 1200 basechar 0
AnchorPoint: "TehtaBelow" 500 -150 basechar 0
LayerCount: 2
Fore
SplineSet
749 -47 m 1,0,1
 704 -3 704 -3 655 36 c 128,-1,2
 606 75 606 75 553 110 c 1,3,4
 604 154 604 154 643 210 c 1,5,-1
 643 236 l 1,6,-1
 348 0 l 1,7,8
 325 13 325 13 292.5 34.5 c 128,-1,9
 260 56 260 56 231 86.5 c 128,-1,10
 202 117 202 117 181.5 156 c 128,-1,11
 161 195 161 195 161 243 c 2,12,-1
 161 605 l 2,13,14
 161 652 161 652 146.5 687.5 c 128,-1,15
 132 723 132 723 112.5 750 c 128,-1,16
 93 777 93 777 72.5 797 c 128,-1,17
 52 817 52 817 40 833 c 1,18,-1
 64 856 l 1,19,-1
 87 856 l 1,20,-1
 176 765 l 1,21,-1
 345 930 l 1,22,-1
 558 756 l 1,23,-1
 530 721 l 1,24,-1
 476 752 l 1,25,26
 469 747 469 747 452 733 c 128,-1,27
 435 719 435 719 417.5 698.5 c 128,-1,28
 400 678 400 678 386.5 653 c 128,-1,29
 373 628 373 628 373 602 c 2,30,-1
 373 310 l 2,31,32
 373 290 373 290 383.5 269 c 128,-1,33
 394 248 394 248 410 229.5 c 128,-1,34
 426 211 426 211 444 197 c 128,-1,35
 462 183 462 183 476 179 c 1,36,-1
 643 312 l 1,37,-1
 643 754 l 2,38,39
 643 776 643 776 653 807.5 c 128,-1,40
 663 839 663 839 695 865 c 2,41,-1
 774 930 l 1,42,-1
 1005 745 l 1,43,-1
 973 709 l 1,44,-1
 903 741 l 1,45,46
 894 737 894 737 885.5 726.5 c 128,-1,47
 877 716 877 716 870 702 c 128,-1,48
 863 688 863 688 859 672.5 c 128,-1,49
 855 657 855 657 855 642 c 2,50,-1
 855 210 l 1,51,52
 894 154 894 154 945 110 c 1,53,54
 892 75 892 75 843 36 c 128,-1,55
 794 -3 794 -3 749 -47 c 1,0,1
EndSplineSet
Validated: 1
EndChar

StartChar: anna_open
Encoding: 66 57398 60
Width: 924
GlyphClass: 2
Flags: W
AnchorPoint: "shook" 630 100 basechar 0
AnchorPoint: "inside" 400 450 basechar 0
AnchorPoint: "TehtaBelow" 350 -150 basechar 0
AnchorPoint: "TehtaAbove" 425 1200 basechar 0
LayerCount: 2
Fore
SplineSet
628 -47 m 1,0,1
 583 -3 583 -3 534 36 c 128,-1,2
 485 75 485 75 432 110 c 1,3,4
 483 154 483 154 522 210 c 1,5,-1
 522 236 l 1,6,-1
 227 0 l 1,7,8
 204 13 204 13 171.5 34.5 c 128,-1,9
 139 56 139 56 110 86.5 c 128,-1,10
 81 117 81 117 60.5 156 c 128,-1,11
 40 195 40 195 40 243 c 2,12,-1
 40 805 l 1,13,-1
 174 930 l 1,14,-1
 252 862 l 1,15,-1
 252 310 l 2,16,17
 252 290 252 290 262.5 269 c 128,-1,18
 273 248 273 248 289 229.5 c 128,-1,19
 305 211 305 211 323 197 c 128,-1,20
 341 183 341 183 355 179 c 1,21,-1
 522 312 l 1,22,-1
 522 754 l 2,23,24
 522 776 522 776 532 807.5 c 128,-1,25
 542 839 542 839 574 865 c 2,26,-1
 653 930 l 1,27,-1
 884 745 l 1,28,-1
 852 709 l 1,29,-1
 782 741 l 1,30,31
 773 737 773 737 764.5 726.5 c 128,-1,32
 756 716 756 716 749 702 c 128,-1,33
 742 688 742 688 738 672.5 c 128,-1,34
 734 657 734 657 734 642 c 2,35,-1
 734 210 l 1,36,37
 773 154 773 154 824 110 c 1,38,39
 771 75 771 75 722 36 c 128,-1,40
 673 -3 673 -3 628 -47 c 1,0,1
EndSplineSet
Validated: 1
EndChar

StartChar: christopher_qu
Encoding: 67 57399 61
Width: 1124
GlyphClass: 2
Flags: W
AnchorPoint: "inside" 600 450 basechar 0
AnchorPoint: "shook" 900 800 basechar 0
AnchorPoint: "TehtaBelow" 400 -150 basechar 0
AnchorPoint: "TehtaAbove" 650 1200 basechar 0
LayerCount: 2
Fore
SplineSet
240 609 m 2,0,1
 240 656 240 656 225.5 691.5 c 128,-1,2
 211 727 211 727 191.5 754 c 128,-1,3
 172 781 172 781 151 801 c 128,-1,4
 130 821 130 821 118 837 c 1,5,-1
 142 860 l 1,6,-1
 165 860 l 1,7,-1
 254 769 l 1,8,-1
 423 934 l 1,9,-1
 722 695 l 1,10,-1
 722 754 l 2,11,12
 722 776 722 776 732.5 807.5 c 128,-1,13
 743 839 743 839 774 865 c 2,14,-1
 853 930 l 1,15,-1
 1084 745 l 1,16,-1
 1052 709 l 1,17,-1
 982 741 l 1,18,19
 973 737 973 737 964.5 726.5 c 128,-1,20
 956 716 956 716 949 702 c 128,-1,21
 942 688 942 688 938 672.5 c 128,-1,22
 934 657 934 657 934 642 c 2,23,-1
 934 -419 l 1,24,25
 973 -475 973 -475 1024 -519 c 1,26,27
 971 -554 971 -554 922 -593 c 128,-1,28
 873 -632 873 -632 828 -676 c 1,29,30
 783 -632 783 -632 734 -593 c 128,-1,31
 685 -554 685 -554 632 -519 c 1,32,33
 683 -475 683 -475 722 -419 c 1,34,-1
 722 0 l 1,35,-1
 248 0 l 2,36,37
 200 0 200 0 163 27.5 c 128,-1,38
 126 55 126 55 100 97 c 0,39,40
 76 135 76 135 61 178.5 c 128,-1,41
 46 222 46 222 40 260 c 1,42,43
 66 233 66 233 96 208 c 128,-1,44
 126 183 126 183 159 163 c 0,45,46
 201 137 201 137 250 121 c 1,47,48
 246 129 246 129 244 140 c 128,-1,49
 242 151 242 151 241 162 c 128,-1,50
 240 173 240 173 240 182.5 c 128,-1,51
 240 192 240 192 240 197 c 2,52,-1
 240 609 l 2,0,1
722 104 m 1,53,-1
 722 618 l 1,54,-1
 551 755 l 1,55,-1
 452 675 l 1,56,-1
 452 274 l 2,57,58
 452 196 452 196 474 153 c 128,-1,59
 496 110 496 110 524 104 c 1,60,-1
 722 104 l 1,53,-1
EndSplineSet
Validated: 1
EndChar

StartChar: formen_reversed
Encoding: 68 57400 62
Width: 1073
GlyphClass: 2
Flags: W
AnchorPoint: "inside" 600 450 basechar 0
AnchorPoint: "shook" 850 100 basechar 0
AnchorPoint: "TehtaAbove" 300 1200 basechar 0
AnchorPoint: "TehtaBelow" 500 -150 basechar 0
LayerCount: 2
Fore
SplineSet
248 0 m 1,0,1
 200 0 200 0 163 27.5 c 128,-1,2
 126 55 126 55 100 97 c 0,3,4
 76 135 76 135 61 178.5 c 128,-1,5
 46 222 46 222 40 260 c 1,6,7
 66 233 66 233 96 208 c 128,-1,8
 126 183 126 183 159 163 c 0,9,10
 201 137 201 137 250 121 c 1,11,12
 246 129 246 129 244 140 c 128,-1,13
 242 151 242 151 241 162 c 128,-1,14
 240 173 240 173 240 182.5 c 128,-1,15
 240 192 240 192 240 197 c 2,16,-1
 240 605 l 2,17,18
 240 652 240 652 225.5 687.5 c 128,-1,19
 211 723 211 723 191.5 750 c 128,-1,20
 172 777 172 777 151 797 c 128,-1,21
 130 817 130 817 118 833 c 1,22,-1
 142 856 l 1,23,-1
 165 856 l 1,24,-1
 254 765 l 1,25,-1
 423 930 l 1,26,-1
 722 691 l 1,27,-1
 722 1454 l 2,28,29
 722 1471 722 1471 718.5 1487 c 128,-1,30
 715 1503 715 1503 711 1516 c 0,31,32
 706 1531 706 1531 700 1545 c 0,33,34
 691 1560 691 1560 683.5 1572.5 c 128,-1,35
 676 1585 676 1585 667.5 1597 c 128,-1,36
 659 1609 659 1609 649.5 1620.5 c 128,-1,37
 640 1632 640 1632 628 1645 c 1,38,39
 654 1650 654 1650 678 1643 c 128,-1,40
 702 1636 702 1636 724 1622 c 256,41,42
 746 1608 746 1608 765.5 1591 c 128,-1,43
 785 1574 785 1574 805 1560 c 1,44,45
 831 1585 831 1585 853 1604.5 c 128,-1,46
 875 1624 875 1624 904 1643 c 0,47,48
 936 1663 936 1663 966.5 1678.5 c 128,-1,49
 997 1694 997 1694 1026 1698 c 0,50,51
 1035 1700 1035 1700 1049 1701.5 c 128,-1,52
 1063 1703 1063 1703 1073 1698 c 1,53,54
 1042 1673 1042 1673 1016.5 1642 c 128,-1,55
 991 1611 991 1611 974 1576 c 0,56,57
 955 1538 955 1538 944.5 1494.5 c 128,-1,58
 934 1451 934 1451 934 1410 c 2,59,-1
 934 81 l 1,60,-1
 1019 19 l 1,61,-1
 1002 0 l 1,62,-1
 248 0 l 1,63,-1
 248 0 l 1,0,1
722 614 m 1,64,-1
 551 751 l 1,65,-1
 452 671 l 1,66,-1
 452 274 l 2,67,68
 452 196 452 196 474 153 c 128,-1,69
 496 110 496 110 524 104 c 1,70,-1
 722 104 l 1,71,-1
 722 614 l 1,64,-1
EndSplineSet
Validated: 5
EndChar

StartChar: bombadil_hw
Encoding: 69 57401 63
Width: 918
GlyphClass: 2
Flags: W
AnchorPoint: "inside" 400 450 basechar 0
AnchorPoint: "shook" 650 100 basechar 0
AnchorPoint: "TehtaBelow" 450 -150 basechar 0
AnchorPoint: "TehtaAbove" 250 1200 basechar 0
LayerCount: 2
Fore
SplineSet
208 0 m 1,0,1
 182 14 182 14 153.5 46.5 c 128,-1,2
 125 79 125 79 100.5 125 c 128,-1,3
 76 171 76 171 59 227.5 c 128,-1,4
 42 284 42 284 41 346 c 0,5,6
 40 394 40 394 49.5 441.5 c 128,-1,7
 59 489 59 489 78 534 c 128,-1,8
 97 579 97 579 123.5 620 c 128,-1,9
 150 661 150 661 182 695 c 0,10,11
 211 725 211 725 246 754.5 c 128,-1,12
 281 784 281 784 318.5 811.5 c 128,-1,13
 356 839 356 839 394 865 c 128,-1,14
 432 891 432 891 468 915 c 0,15,16
 529 955 529 955 590.5 989 c 128,-1,17
 652 1023 652 1023 709 1069 c 0,18,19
 727 1084 727 1084 747.5 1100 c 128,-1,20
 768 1116 768 1116 785 1135 c 128,-1,21
 802 1154 802 1154 813 1175 c 128,-1,22
 824 1196 824 1196 824 1220 c 0,23,24
 823 1252 823 1252 807 1276.5 c 128,-1,25
 791 1301 791 1301 766 1317.5 c 128,-1,26
 741 1334 741 1334 712 1342 c 128,-1,27
 683 1350 683 1350 656 1349 c 0,28,29
 582 1348 582 1348 522 1279 c 0,30,31
 503 1256 503 1256 483 1241.5 c 128,-1,32
 463 1227 463 1227 437 1227 c 0,33,34
 416 1227 416 1227 400 1243.5 c 128,-1,35
 384 1260 384 1260 384 1283 c 0,36,37
 385 1314 385 1314 407.5 1335 c 128,-1,38
 430 1356 430 1356 464 1370 c 0,39,40
 485 1379 485 1379 508.5 1384.5 c 128,-1,41
 532 1390 532 1390 554.5 1393.5 c 128,-1,42
 577 1397 577 1397 597.5 1398.5 c 128,-1,43
 618 1400 618 1400 634 1400 c 0,44,45
 672 1400 672 1400 714.5 1390 c 128,-1,46
 757 1380 757 1380 793 1358 c 128,-1,47
 829 1336 829 1336 853 1301 c 128,-1,48
 877 1266 877 1266 877 1215 c 0,49,50
 877 1176 877 1176 860 1144.5 c 128,-1,51
 843 1113 843 1113 820 1083 c 128,-1,52
 797 1053 797 1053 772.5 1020.5 c 128,-1,53
 748 988 748 988 734 947 c 256,54,55
 720 906 720 906 719.5 864 c 128,-1,56
 719 822 719 822 719 780 c 2,57,-1
 719 288 l 2,58,59
 719 273 719 273 723 257.5 c 128,-1,60
 727 242 727 242 734 228 c 128,-1,61
 741 214 741 214 749.5 203.5 c 128,-1,62
 758 193 758 193 767 189 c 1,63,-1
 837 221 l 1,64,-1
 869 185 l 1,65,-1
 638 0 l 1,66,-1
 559 65 l 2,67,68
 543 78 543 78 533 93 c 128,-1,69
 523 108 523 108 517 122.5 c 128,-1,70
 511 137 511 137 509 151 c 128,-1,71
 507 165 507 165 507 176 c 2,72,-1
 507 239 l 1,73,-1
 208 0 l 1,0,1
507 878 m 1,74,75
 457 844 457 844 409 800.5 c 128,-1,76
 361 757 361 757 326 707 c 0,77,78
 291 658 291 658 267.5 596.5 c 128,-1,79
 244 535 244 535 242 474 c 0,80,81
 240 393 240 393 264.5 317.5 c 128,-1,82
 289 242 289 242 336 179 c 1,83,-1
 507 316 l 1,84,-1
 507 878 l 1,74,75
EndSplineSet
Validated: 33
EndChar

StartChar: tengwa_mh
Encoding: 70 57402 64
Width: 1749
GlyphClass: 2
Flags: W
AnchorPoint: "inside" 500 450 basechar 0
AnchorPoint: "TehtaAbove" 799 1200 basechar 0
AnchorPoint: "TehtaBelow" 724 -150 basechar 0
LayerCount: 2
Fore
SplineSet
1321 100 m 2,0,1
 1399 100 1399 100 1469 84.5 c 128,-1,2
 1539 69 1539 69 1592 33 c 128,-1,3
 1645 -3 1645 -3 1676.5 -61 c 128,-1,4
 1708 -119 1708 -119 1709 -204 c 0,5,6
 1709 -267 1709 -267 1687 -327 c 128,-1,7
 1665 -387 1665 -387 1620 -433 c 0,8,9
 1578 -475 1578 -475 1523 -499.5 c 128,-1,10
 1468 -524 1468 -524 1403 -524 c 0,11,12
 1356 -524 1356 -524 1313 -511.5 c 128,-1,13
 1270 -499 1270 -499 1227 -481 c 0,14,15
 1210 -474 1210 -474 1189.5 -464 c 128,-1,16
 1169 -454 1169 -454 1148.5 -445 c 128,-1,17
 1128 -436 1128 -436 1108.5 -430 c 128,-1,18
 1089 -424 1089 -424 1074 -424 c 0,19,20
 1053 -424 1053 -424 1034.5 -434.5 c 128,-1,21
 1016 -445 1016 -445 995 -463 c 0,22,23
 984 -472 984 -472 980.5 -468 c 128,-1,24
 977 -464 977 -464 981 -454 c 0,25,26
 994 -425 994 -425 1014 -399 c 128,-1,27
 1034 -373 1034 -373 1057 -354 c 0,28,29
 1086 -330 1086 -330 1118 -319 c 128,-1,30
 1150 -308 1150 -308 1185 -308 c 0,31,32
 1226 -308 1226 -308 1264.5 -323 c 128,-1,33
 1303 -338 1303 -338 1342 -356 c 256,34,35
 1381 -374 1381 -374 1419.5 -389 c 128,-1,36
 1458 -404 1458 -404 1496 -404 c 0,37,38
 1529 -404 1529 -404 1553.5 -390.5 c 128,-1,39
 1578 -377 1578 -377 1594.5 -355 c 128,-1,40
 1611 -333 1611 -333 1619 -304.5 c 128,-1,41
 1627 -276 1627 -276 1627 -247 c 0,42,43
 1626 -173 1626 -173 1596.5 -125 c 128,-1,44
 1567 -77 1567 -77 1520 -49.5 c 128,-1,45
 1473 -22 1473 -22 1413 -11 c 128,-1,46
 1353 0 1353 0 1292 0 c 2,47,-1
 96 0 l 1,48,-1
 79 19 l 1,49,-1
 164 81 l 1,50,-1
 164 642 l 2,51,52
 164 657 164 657 160 672.5 c 128,-1,53
 156 688 156 688 149 702 c 128,-1,54
 142 716 142 716 133.5 726.5 c 128,-1,55
 125 737 125 737 116 741 c 1,56,-1
 46 709 l 1,57,-1
 14 745 l 1,58,-1
 245 930 l 1,59,-1
 324 865 l 2,60,61
 355 839 355 839 365.5 807.5 c 128,-1,62
 376 776 376 776 376 754 c 2,63,-1
 376 691 l 1,64,-1
 675 930 l 1,65,-1
 858 750 l 1,66,-1
 858 691 l 1,67,-1
 1157 930 l 1,68,-1
 1326 765 l 1,69,-1
 1415 856 l 1,70,-1
 1438 856 l 1,71,-1
 1462 833 l 1,72,73
 1450 817 1450 817 1429 797 c 128,-1,74
 1408 777 1408 777 1388.5 750 c 128,-1,75
 1369 723 1369 723 1354.5 687.5 c 128,-1,76
 1340 652 1340 652 1340 605 c 2,77,-1
 1340 197 l 2,78,79
 1340 171 1340 171 1338 155 c 128,-1,80
 1336 139 1336 139 1332.5 129.5 c 128,-1,81
 1329 120 1329 120 1324 113.5 c 128,-1,82
 1319 107 1319 107 1314 100 c 1,83,-1
 1321 100 l 2,0,1
1056 104 m 1,84,85
 1084 110 1084 110 1106 153 c 128,-1,86
 1128 196 1128 196 1128 274 c 2,87,-1
 1128 671 l 1,88,-1
 1029 751 l 1,89,-1
 858 614 l 1,90,-1
 858 193 l 2,91,92
 858 168 858 168 852.5 146 c 128,-1,93
 847 124 847 124 837 104 c 1,94,-1
 1056 104 l 1,84,85
574 104 m 1,95,96
 602 110 602 110 624 153 c 128,-1,97
 646 196 646 196 646 274 c 2,98,-1
 646 671 l 1,99,-1
 547 751 l 1,100,-1
 376 614 l 1,101,-1
 376 104 l 1,102,-1
 574 104 l 1,95,96
EndSplineSet
Validated: 1
EndChar

StartChar: vaiya
Encoding: 73 57405 65
Width: 1151
GlyphClass: 2
Flags: W
AnchorPoint: "inside" 500 450 basechar 0
AnchorPoint: "shook" 1200 100 basechar 0
AnchorPoint: "TehtaAbove" 500 1200 basechar 0
AnchorPoint: "TehtaBelow" 500 -150 basechar 0
LayerCount: 2
Fore
SplineSet
622 636 m 1,0,1
 558 667 558 667 491.5 692.5 c 128,-1,2
 425 718 425 718 352 728 c 1,3,-1
 352 248 l 1,4,-1
 622 125 l 1,5,-1
 622 636 l 1,0,1
833 128 m 1,6,7
 798 116 798 116 756.5 97 c 128,-1,8
 715 78 715 78 672 54.5 c 128,-1,9
 629 31 629 31 586 5 c 128,-1,10
 543 -21 543 -21 504 -47 c 1,11,12
 489 -32 489 -32 460.5 -15 c 128,-1,13
 432 2 432 2 397 19 c 128,-1,14
 362 36 362 36 323.5 52.5 c 128,-1,15
 285 69 285 69 249 83 c 0,16,17
 205 101 205 101 164.5 105 c 128,-1,18
 124 109 124 109 77 111 c 1,19,20
 72 117 72 117 72 120.5 c 128,-1,21
 72 124 72 124 73 129 c 0,22,23
 93 146 93 146 109.5 168 c 128,-1,24
 126 190 126 190 141 219 c 1,25,-1
 141 605 l 2,26,27
 141 652 141 652 126.5 687.5 c 128,-1,28
 112 723 112 723 92.5 750 c 128,-1,29
 73 777 73 777 52.5 797 c 128,-1,30
 32 817 32 817 20 833 c 1,31,-1
 44 856 l 1,32,-1
 67 856 l 1,33,-1
 156 765 l 1,34,35
 188 775 188 775 232.5 794.5 c 128,-1,36
 277 814 277 814 321.5 837.5 c 128,-1,37
 366 861 366 861 404.5 885.5 c 128,-1,38
 443 910 443 910 464 930 c 1,39,40
 512 907 512 907 554.5 887 c 128,-1,41
 597 867 597 867 640.5 848.5 c 128,-1,42
 684 830 684 830 730.5 811 c 128,-1,43
 777 792 777 792 833 771 c 1,44,-1
 833 128 l 1,6,7
991.508789062 94.6357421875 m 2,45,46
 1028.50878906 83.6357421875 1028.50878906 83.6357421875 1054.50878906 77.1357421875 c 128,-1,47
 1080.50878906 70.6357421875 1080.50878906 70.6357421875 1100.50878906 70.6357421875 c 0,48,49
 1124.50878906 70.6357421875 1124.50878906 70.6357421875 1144.00878906 81.6357421875 c 128,-1,50
 1163.50878906 92.6357421875 1163.50878906 92.6357421875 1189.50878906 118.635742188 c 2,51,-1
 1203.50878906 132.635742188 l 1,52,-1
 1218.50878906 117.635742188 l 1,53,-1
 1178.50878906 72.6357421875 l 2,54,55
 1157.50878906 49.6357421875 1157.50878906 49.6357421875 1138.00878906 29.1357421875 c 128,-1,56
 1118.50878906 8.6357421875 1118.50878906 8.6357421875 1098.50878906 -6.3642578125 c 128,-1,57
 1078.50878906 -21.3642578125 1078.50878906 -21.3642578125 1055.50878906 -29.8642578125 c 128,-1,58
 1032.50878906 -38.3642578125 1032.50878906 -38.3642578125 1004.50878906 -38.3642578125 c 0,59,60
 977.508789062 -38.3642578125 977.508789062 -38.3642578125 939.508789062 -27.3642578125 c 2,61,-1
 760.508789062 26.6357421875 l 2,62,63
 723.508789062 37.6357421875 723.508789062 37.6357421875 697.508789062 44.1357421875 c 128,-1,64
 671.508789062 50.6357421875 671.508789062 50.6357421875 651.508789062 50.6357421875 c 0,65,66
 627.508789062 50.6357421875 627.508789062 50.6357421875 608.008789062 39.6357421875 c 128,-1,67
 588.508789062 28.6357421875 588.508789062 28.6357421875 562.508789062 2.6357421875 c 2,68,-1
 548.508789062 -11.3642578125 l 1,69,-1
 533.508789062 3.6357421875 l 1,70,-1
 573.508789062 48.6357421875 l 2,71,72
 594.508789062 71.6357421875 594.508789062 71.6357421875 614.008789062 92.1357421875 c 128,-1,73
 633.508789062 112.635742188 633.508789062 112.635742188 653.508789062 127.635742188 c 128,-1,74
 673.508789062 142.635742188 673.508789062 142.635742188 696.508789062 151.135742188 c 128,-1,75
 719.508789062 159.635742188 719.508789062 159.635742188 747.508789062 159.635742188 c 0,76,77
 774.508789062 159.635742188 774.508789062 159.635742188 812.508789062 148.635742188 c 2,78,-1
 991.508789062 94.6357421875 l 2,45,46
EndSplineSet
Validated: 5
EndChar

StartChar: tripledot_above
Encoding: 74 57408 66
AltUni2: 00e831.00fe00.0
Width: 2
GlyphClass: 4
Flags: W
AnchorPoint: "mkmk_up" 321 1800 basemark 0
AnchorPoint: "mkmk_up" 321 1300 mark 0
AnchorPoint: "TehtaAbove" 321 1300 mark 0
LayerCount: 2
Fore
SplineSet
324 1693 m 1,0,-1
 459 1558 l 1,1,-1
 324 1423 l 1,2,-1
 189 1558 l 1,3,-1
 324 1693 l 1,0,-1
502 1483 m 1,4,-1
 637 1348 l 1,5,-1
 502 1213 l 1,6,-1
 367 1348 l 1,7,-1
 502 1483 l 1,4,-1
146 1483 m 1,8,-1
 281 1348 l 1,9,-1
 146 1213 l 1,10,-1
 11 1348 l 1,11,-1
 146 1483 l 1,8,-1
EndSplineSet
Validated: 1
EndChar

StartChar: tripledot_below
Encoding: 75 57409 67
Width: 2
GlyphClass: 4
Flags: W
AnchorPoint: "mkmk_down" 348 -900 basemark 0
AnchorPoint: "mkmk_down" 348 -400 mark 0
AnchorPoint: "TehtaBelow" 347 -400 mark 0
LayerCount: 2
Fore
SplineSet
211 -698 m 1,0,-1
 346 -563 l 1,1,-1
 481 -698 l 1,2,-1
 346 -833 l 1,3,-1
 211 -698 l 1,0,-1
389 -488 m 1,4,-1
 524 -353 l 1,5,-1
 659 -488 l 1,6,-1
 524 -623 l 1,7,-1
 389 -488 l 1,4,-1
33 -488 m 1,8,-1
 168 -353 l 1,9,-1
 303 -488 l 1,10,-1
 168 -623 l 1,11,-1
 33 -488 l 1,8,-1
EndSplineSet
Validated: 1
EndChar

StartChar: doubledot_above
Encoding: 76 57410 68
Width: 2
GlyphClass: 4
Flags: W
AnchorPoint: "mkmk_up" 321 1300 mark 0
AnchorPoint: "mkmk_up" 321 1650 basemark 0
AnchorPoint: "TehtaAbove" 321 1300 mark 0
LayerCount: 2
Fore
SplineSet
502 1483 m 1,0,-1
 637 1348 l 1,1,-1
 502 1213 l 1,2,-1
 367 1348 l 1,3,-1
 502 1483 l 1,0,-1
146 1483 m 1,4,-1
 281 1348 l 1,5,-1
 146 1213 l 1,6,-1
 11 1348 l 1,7,-1
 146 1483 l 1,4,-1
EndSplineSet
Validated: 1
Ligature2: "Ligatures subtable" amatixe amatixe
LCarets2: 1 0
EndChar

StartChar: doubledot_below
Encoding: 77 57411 69
Width: 2
GlyphClass: 4
Flags: W
AnchorPoint: "mkmk_down" 348 -400 mark 0
AnchorPoint: "mkmk_down" 348 -750 basemark 0
AnchorPoint: "TehtaBelow" 347 -400 mark 0
LayerCount: 2
Fore
SplineSet
389 -488 m 1,0,-1
 524 -353 l 1,1,-1
 659 -488 l 1,2,-1
 524 -623 l 1,3,-1
 389 -488 l 1,0,-1
33 -488 m 1,4,-1
 168 -353 l 1,5,-1
 303 -488 l 1,6,-1
 168 -623 l 1,7,-1
 33 -488 l 1,4,-1
EndSplineSet
Validated: 1
Ligature2: "Ligatures subtable" unutixe unutixe
LCarets2: 1 0
EndChar

StartChar: amatixe
Encoding: 78 57412 70
Width: 2
GlyphClass: 4
Flags: W
AnchorPoint: "mkmk_up" 146 1650 basemark 0
AnchorPoint: "mkmk_up" 146 1300 mark 0
AnchorPoint: "TehtaAbove" 146 1300 mark 0
LayerCount: 2
Fore
SplineSet
146 1483 m 1,0,-1
 281 1348 l 1,1,-1
 146 1213 l 1,2,-1
 11 1348 l 1,3,-1
 146 1483 l 1,0,-1
EndSplineSet
Validated: 1
EndChar

StartChar: unutixe
Encoding: 79 57413 71
Width: 2
GlyphClass: 4
Flags: W
AnchorPoint: "mkmk_down" 167 -750 basemark 0
AnchorPoint: "mkmk_down" 167 -400 mark 0
AnchorPoint: "TehtaBelow" 167 -400 mark 0
LayerCount: 2
Fore
SplineSet
33 -488 m 1,0,-1
 168 -353 l 1,1,-1
 303 -488 l 1,2,-1
 168 -623 l 1,3,-1
 33 -488 l 1,0,-1
EndSplineSet
Validated: 1
EndChar

StartChar: tecco_above
Encoding: 80 57414 72
Width: 2
GlyphClass: 4
Flags: W
AnchorPoint: "mkmk_up" 250 1350 mark 0
AnchorPoint: "mkmk_up" 250 1700 basemark 0
AnchorPoint: "TehtaAbove" 250 1350 mark 0
LayerCount: 2
Fore
SplineSet
434 1576 m 1,0,1
 479 1566 479 1566 518 1549 c 128,-1,2
 557 1532 557 1532 591 1494 c 1,3,-1
 162 1246 l 2,4,5
 137 1232 137 1232 118.5 1224.5 c 128,-1,6
 100 1217 100 1217 86.5 1214 c 128,-1,7
 73 1211 73 1211 64 1211 c 128,-1,8
 55 1211 55 1211 50 1212 c 1,9,10
 53 1232 53 1232 68.5 1251.5 c 128,-1,11
 84 1271 84 1271 103 1288 c 2,12,-1
 434 1576 l 1,0,1
EndSplineSet
Validated: 1
EndChar

StartChar: tecco_below
Encoding: 81 57415 73
Width: 2
GlyphClass: 4
Flags: W
AnchorPoint: "mkmk_down" 497 -750 basemark 0
AnchorPoint: "mkmk_down" 497 -500 mark 0
AnchorPoint: "TehtaBelow" 497 -500 mark 0
LayerCount: 2
Fore
SplineSet
474 -429 m 1,0,1
 519 -439 519 -439 558 -456 c 128,-1,2
 597 -473 597 -473 631 -511 c 1,3,-1
 202 -759 l 2,4,5
 177 -773 177 -773 158.5 -780.5 c 128,-1,6
 140 -788 140 -788 126.5 -791 c 128,-1,7
 113 -794 113 -794 104 -794 c 128,-1,8
 95 -794 95 -794 90 -793 c 1,9,10
 93 -773 93 -773 108.5 -753.5 c 128,-1,11
 124 -734 124 -734 143 -717 c 2,12,-1
 474 -429 l 1,0,1
EndSplineSet
Validated: 1
EndChar

StartChar: tecco_above_double
Encoding: 82 57416 74
Width: 2
GlyphClass: 4
Flags: W
AnchorPoint: "mkmk_up" 231 1300 mark 0
AnchorPoint: "mkmk_up" 231 1650 basemark 0
AnchorPoint: "TehtaAbove" 231 1300 mark 0
LayerCount: 2
Fore
SplineSet
418 1650 m 1,0,1
 463 1640 463 1640 491 1621.5 c 128,-1,2
 519 1603 519 1603 545 1568 c 1,3,-1
 166 1320 l 2,4,5
 142 1305 142 1305 124 1297.5 c 128,-1,6
 106 1290 106 1290 93 1287 c 128,-1,7
 80 1284 80 1284 71 1284.5 c 128,-1,8
 62 1285 62 1285 57 1286 c 1,9,10
 60 1306 60 1306 73.5 1325.5 c 128,-1,11
 87 1345 87 1345 107 1362 c 2,12,-1
 418 1650 l 1,0,1
668 1650 m 1,13,14
 713 1640 713 1640 741 1621.5 c 128,-1,15
 769 1603 769 1603 795 1568 c 1,16,-1
 416 1320 l 2,17,18
 392 1305 392 1305 374 1297.5 c 128,-1,19
 356 1290 356 1290 343 1287 c 128,-1,20
 330 1284 330 1284 321 1284.5 c 128,-1,21
 312 1285 312 1285 307 1286 c 1,22,23
 310 1306 310 1306 323.5 1325.5 c 128,-1,24
 337 1345 337 1345 357 1362 c 2,25,-1
 668 1650 l 1,13,14
EndSplineSet
Validated: 1
Ligature2: "Ligatures subtable" tecco_above tecco_above
LCarets2: 1 0
EndChar

StartChar: tecco_below_double
Encoding: 83 57417 75
Width: 2
GlyphClass: 4
Flags: W
AnchorPoint: "mkmk_down" 547 -750 basemark 0
AnchorPoint: "mkmk_down" 547 -500 mark 0
AnchorPoint: "TehtaBelow" 547 -500 mark 0
LayerCount: 2
Fore
SplineSet
398 -470 m 1,0,1
 443 -480 443 -480 471 -498.5 c 128,-1,2
 499 -517 499 -517 525 -552 c 1,3,-1
 146 -800 l 2,4,5
 122 -815 122 -815 104 -822.5 c 128,-1,6
 86 -830 86 -830 73 -833 c 128,-1,7
 60 -836 60 -836 51 -835.5 c 128,-1,8
 42 -835 42 -835 37 -834 c 1,9,10
 40 -814 40 -814 53.5 -794.5 c 128,-1,11
 67 -775 67 -775 87 -758 c 2,12,-1
 398 -470 l 1,0,1
648 -470 m 1,13,14
 693 -480 693 -480 721 -498.5 c 128,-1,15
 749 -517 749 -517 775 -552 c 1,16,-1
 396 -800 l 2,17,18
 372 -815 372 -815 354 -822.5 c 128,-1,19
 336 -830 336 -830 323 -833 c 128,-1,20
 310 -836 310 -836 301 -835.5 c 128,-1,21
 292 -835 292 -835 287 -834 c 1,22,23
 290 -814 290 -814 303.5 -794.5 c 128,-1,24
 317 -775 317 -775 337 -758 c 2,25,-1
 648 -470 l 1,13,14
EndSplineSet
Validated: 1
Ligature2: "Ligatures subtable" tecco_below tecco_below
LCarets2: 1 0
EndChar

StartChar: rightcurl_above
Encoding: 84 57418 76
Width: 2
GlyphClass: 4
Flags: W
AnchorPoint: "mkmk_up" 301 1400 mark 0
AnchorPoint: "mkmk_up" 301 1750 basemark 0
AnchorPoint: "TehtaAbove" 301 1400 mark 0
LayerCount: 2
Fore
SplineSet
406 1557 m 2,0,1
 437 1591 437 1591 472 1609 c 128,-1,2
 507 1627 507 1627 547 1627 c 0,3,4
 578 1627 578 1627 608 1615 c 128,-1,5
 638 1603 638 1603 662 1582 c 128,-1,6
 686 1561 686 1561 700.5 1532 c 128,-1,7
 715 1503 715 1503 715 1469 c 0,8,9
 715 1427 715 1427 693 1384 c 1,10,-1
 550 1230 l 1,11,12
 509 1201 509 1201 468 1201 c 0,13,14
 452 1201 452 1201 435 1204.5 c 128,-1,15
 418 1208 418 1208 404.5 1216.5 c 128,-1,16
 391 1225 391 1225 381.5 1239 c 128,-1,17
 372 1253 372 1253 371 1273 c 1,18,-1
 452 1360 l 1,19,20
 458 1353 458 1353 468 1346 c 128,-1,21
 478 1339 478 1339 490 1333 c 128,-1,22
 502 1327 502 1327 515 1323.5 c 128,-1,23
 528 1320 528 1320 539 1320 c 0,24,25
 568 1320 568 1320 579.5 1339.5 c 128,-1,26
 591 1359 591 1359 591 1385 c 0,27,28
 591 1408 591 1408 581 1430.5 c 128,-1,29
 571 1453 571 1453 554.5 1471 c 128,-1,30
 538 1489 538 1489 518 1500 c 128,-1,31
 498 1511 498 1511 477 1511 c 0,32,33
 458 1511 458 1511 440 1501 c 128,-1,34
 422 1491 422 1491 408 1476 c 2,35,-1
 100 1149 l 1,36,37
 81 1148 81 1148 71.5 1158 c 128,-1,38
 62 1168 62 1168 60 1183 c 1,39,-1
 406 1557 l 2,0,1
EndSplineSet
Validated: 1
EndChar

StartChar: rightcurl_below
Encoding: 85 57419 77
Width: 2
GlyphClass: 4
Flags: W
AnchorPoint: "mkmk_down" 448 -950 basemark 0
AnchorPoint: "mkmk_down" 348 -500 mark 0
AnchorPoint: "TehtaBelow" 347 -500 mark 0
LayerCount: 2
Fore
SplineSet
505 -327 m 1,0,1
 537 -335 537 -335 540 -366 c 1,2,-1
 107 -717 l 2,3,4
 90 -732 90 -732 79.5 -750.5 c 128,-1,5
 69 -769 69 -769 69 -789 c 0,6,7
 69 -806 69 -806 77.5 -825 c 128,-1,8
 86 -844 86 -844 99 -860 c 0,9,10
 110 -874 110 -874 138 -890 c 128,-1,11
 166 -906 166 -906 198 -906 c 0,12,13
 216 -906 216 -906 234.5 -897 c 128,-1,14
 253 -888 253 -888 254 -863 c 0,15,16
 255 -852 255 -852 252.5 -838.5 c 128,-1,17
 250 -825 250 -825 245.5 -811.5 c 128,-1,18
 241 -798 241 -798 234 -786.5 c 128,-1,19
 227 -775 227 -775 220 -767 c 1,20,-1
 313 -692 l 1,21,22
 333 -695 333 -695 345.5 -704.5 c 128,-1,23
 358 -714 358 -714 365.5 -726.5 c 128,-1,24
 373 -739 373 -739 376 -754.5 c 128,-1,25
 379 -770 379 -770 379 -785 c 0,26,27
 379 -808 379 -808 372 -829.5 c 128,-1,28
 365 -851 365 -851 346 -874 c 1,29,-1
 184 -1008 l 2,30,31
 172 -1014 172 -1014 155 -1016.5 c 128,-1,32
 138 -1019 138 -1019 124 -1019 c 0,33,34
 85 -1019 85 -1019 52.5 -1006 c 128,-1,35
 20 -993 20 -993 -3 -971.5 c 128,-1,36
 -26 -950 -26 -950 -38.5 -922.5 c 128,-1,37
 -51 -895 -51 -895 -51 -865 c 0,38,39
 -51 -839 -51 -839 -42.5 -814.5 c 128,-1,40
 -34 -790 -34 -790 -21 -769.5 c 128,-1,41
 -8 -749 -8 -749 6 -733.5 c 128,-1,42
 20 -718 20 -718 29 -710 c 2,43,-1
 505 -327 l 1,0,1
EndSplineSet
Validated: 1
EndChar

StartChar: leftcurl_above
Encoding: 86 57420 78
Width: 2
GlyphClass: 4
Flags: W
AnchorPoint: "mkmk_up" 341 1300 mark 0
AnchorPoint: "mkmk_up" 341 1650 basemark 0
AnchorPoint: "TehtaAbove" 341 1300 mark 0
LayerCount: 2
Fore
SplineSet
105 1093 m 1,0,1
 93 1101 93 1101 86.5 1110 c 128,-1,2
 80 1119 80 1119 80 1133 c 0,3,4
 80 1135 80 1135 80.5 1137 c 128,-1,5
 81 1139 81 1139 81 1141 c 2,6,-1
 494 1324 l 2,7,8
 520 1336 520 1336 536 1357 c 128,-1,9
 552 1378 552 1378 552 1405 c 0,10,11
 552 1425 552 1425 544 1447.5 c 128,-1,12
 536 1470 536 1470 520.5 1489 c 128,-1,13
 505 1508 505 1508 483 1520.5 c 128,-1,14
 461 1533 461 1533 433 1533 c 0,15,16
 419 1533 419 1533 407 1526.5 c 128,-1,17
 395 1520 395 1520 390 1503 c 0,18,19
 385 1485 385 1485 385 1465 c 0,20,21
 385 1448 385 1448 388.5 1430.5 c 128,-1,22
 392 1413 392 1413 399 1402 c 1,23,-1
 289 1354 l 1,24,25
 263 1364 263 1364 253.5 1383.5 c 128,-1,26
 244 1403 244 1403 244 1423 c 0,27,28
 244 1458 244 1458 258.5 1486 c 128,-1,29
 273 1514 273 1514 305 1538 c 1,30,-1
 496 1625 l 2,31,32
 500 1626 500 1626 504 1626 c 128,-1,33
 508 1626 508 1626 513 1626 c 0,34,35
 555 1626 555 1626 588 1610 c 128,-1,36
 621 1594 621 1594 643.5 1569.5 c 128,-1,37
 666 1545 666 1545 678 1515.5 c 128,-1,38
 690 1486 690 1486 690 1459 c 0,39,40
 690 1429 690 1429 676.5 1402 c 128,-1,41
 663 1375 663 1375 643.5 1353 c 128,-1,42
 624 1331 624 1331 603.5 1316.5 c 128,-1,43
 583 1302 583 1302 568 1297 c 2,44,-1
 105 1093 l 1,0,1
EndSplineSet
Validated: 1
EndChar

StartChar: leftcurl_below
Encoding: 87 57421 79
Width: 2
GlyphClass: 4
Flags: W
AnchorPoint: "mkmk_down" 348 -500 mark 0
AnchorPoint: "mkmk_down" 348 -950 basemark 0
AnchorPoint: "TehtaBelow" 347 -500 mark 0
LayerCount: 2
Fore
SplineSet
122 -999 m 2,0,1
 96 -1049 96 -1049 55 -1078 c 128,-1,2
 14 -1107 14 -1107 -39 -1107 c 0,3,4
 -74 -1107 -74 -1107 -104.5 -1094.5 c 128,-1,5
 -135 -1082 -135 -1082 -157.5 -1059.5 c 128,-1,6
 -180 -1037 -180 -1037 -192.5 -1006.5 c 128,-1,7
 -205 -976 -205 -976 -205 -940 c 0,8,9
 -205 -929 -205 -929 -204.5 -922 c 128,-1,10
 -204 -915 -204 -915 -201 -904 c 2,11,-1
 -101 -718 l 1,12,13
 -78 -690 -78 -690 -52 -677.5 c 128,-1,14
 -26 -665 -26 -665 6 -665 c 0,15,16
 30 -665 30 -665 52 -675.5 c 128,-1,17
 74 -686 74 -686 84 -714 c 1,18,-1
 27 -819 l 1,19,20
 16 -811 16 -811 -3.5 -805.5 c 128,-1,21
 -23 -800 -23 -800 -43 -800 c 0,22,23
 -74 -799 -74 -799 -90 -814.5 c 128,-1,24
 -106 -830 -106 -830 -106 -856 c 0,25,26
 -107 -884 -107 -884 -89.5 -907.5 c 128,-1,27
 -72 -931 -72 -931 -49 -947 c 0,28,29
 -32 -958 -32 -958 -14 -966 c 128,-1,30
 4 -974 4 -974 21 -974 c 0,31,32
 47 -975 47 -975 66.5 -960.5 c 128,-1,33
 86 -946 86 -946 99 -920 c 2,34,-1
 412 -292 l 1,35,36
 430 -287 430 -287 442 -294 c 128,-1,37
 454 -301 454 -301 460 -315 c 1,38,-1
 122 -999 l 2,0,1
EndSplineSet
Validated: 1
EndChar

StartChar: bar_above
Encoding: 88 57424 80
Width: 2
GlyphClass: 4
Flags: W
AnchorPoint: "mkmk_up" 351 1300 mark 0
AnchorPoint: "mkmk_up" 351 1650 basemark 0
AnchorPoint: "TehtaAbove" 351 1300 mark 0
LayerCount: 2
Fore
SplineSet
204 1249 m 2,0,1
 156 1265 156 1265 122 1274.5 c 128,-1,2
 88 1284 88 1284 62 1284 c 0,3,4
 30 1284 30 1284 4 1268.5 c 128,-1,5
 -22 1253 -22 1253 -54 1216 c 2,6,-1
 -70 1197 l 1,7,-1
 -92 1217 l 1,8,-1
 -39 1280 l 2,9,10
 -12 1313 -12 1313 13 1342 c 128,-1,11
 38 1371 38 1371 64.5 1392.5 c 128,-1,12
 91 1414 91 1414 120.5 1426.5 c 128,-1,13
 150 1439 150 1439 186 1439 c 0,14,15
 206 1439 206 1439 227 1435 c 128,-1,16
 248 1431 248 1431 271 1423 c 2,17,-1
 504 1347 l 2,18,19
 552 1331 552 1331 586 1321.5 c 128,-1,20
 620 1312 620 1312 646 1312 c 0,21,22
 678 1312 678 1312 704 1327.5 c 128,-1,23
 730 1343 730 1343 762 1380 c 2,24,-1
 778 1399 l 1,25,-1
 800 1379 l 1,26,-1
 747 1316 l 2,27,28
 720 1283 720 1283 695 1254 c 128,-1,29
 670 1225 670 1225 643.5 1203.5 c 128,-1,30
 617 1182 617 1182 587.5 1169.5 c 128,-1,31
 558 1157 558 1157 522 1157 c 0,32,33
 502 1157 502 1157 481 1161 c 128,-1,34
 460 1165 460 1165 437 1173 c 2,35,-1
 204 1249 l 2,0,1
EndSplineSet
Validated: 1
Substitution2: "Single Substitution lookup 16 subtable" bar_above
Substitution2: "Single Substitution lookup 15 subtable" bar_above
Substitution2: "Single Substitution lookup 14 subtable" bar_above
Substitution2: "Single Substitution lookup 13 subtable" bar_above
Substitution2: "Single Substitution lookup 12 subtable" bar_above_wide
Substitution2: "Single Substitution lookup 11 subtable" bar_above_wide
Substitution2: "Single Substitution lookup 10 subtable" bar_above_wide
Substitution2: "Single Substitution lookup 9 subtable" bar_above_wide
EndChar

StartChar: bar_below
Encoding: 89 57425 81
Width: 2
GlyphClass: 4
Flags: W
AnchorPoint: "mkmk_down" 348 -500 mark 0
AnchorPoint: "mkmk_down" 348 -750 basemark 0
AnchorPoint: "TehtaBelow" 347 -500 mark 0
LayerCount: 2
Fore
SplineSet
204 -551 m 2,0,1
 156 -535 156 -535 122 -525.5 c 128,-1,2
 88 -516 88 -516 62 -516 c 0,3,4
 30 -516 30 -516 4 -531.5 c 128,-1,5
 -22 -547 -22 -547 -54 -584 c 2,6,-1
 -70 -603 l 1,7,-1
 -92 -583 l 1,8,-1
 -39 -520 l 2,9,10
 -12 -487 -12 -487 13 -458 c 128,-1,11
 38 -429 38 -429 64.5 -407.5 c 128,-1,12
 91 -386 91 -386 120.5 -373.5 c 128,-1,13
 150 -361 150 -361 186 -361 c 0,14,15
 206 -361 206 -361 227 -365 c 128,-1,16
 248 -369 248 -369 271 -377 c 2,17,-1
 504 -453 l 2,18,19
 552 -469 552 -469 586 -478.5 c 128,-1,20
 620 -488 620 -488 646 -488 c 0,21,22
 678 -488 678 -488 704 -472.5 c 128,-1,23
 730 -457 730 -457 762 -420 c 2,24,-1
 778 -401 l 1,25,-1
 800 -421 l 1,26,-1
 747 -484 l 2,27,28
 720 -517 720 -517 695 -546 c 128,-1,29
 670 -575 670 -575 643.5 -596.5 c 128,-1,30
 617 -618 617 -618 587.5 -630.5 c 128,-1,31
 558 -643 558 -643 522 -643 c 0,32,33
 502 -643 502 -643 481 -639 c 128,-1,34
 460 -635 460 -635 437 -627 c 2,35,-1
 204 -551 l 2,0,1
EndSplineSet
Validated: 1
Substitution2: "Single Substitution lookup 16 subtable" bar_below
Substitution2: "Single Substitution lookup 15 subtable" bar_below
Substitution2: "Single Substitution lookup 14 subtable" bar_below
Substitution2: "Single Substitution lookup 13 subtable" bar_below
Substitution2: "Single Substitution lookup 12 subtable" bar_below_wide
Substitution2: "Single Substitution lookup 11 subtable" bar_below_wide
Substitution2: "Single Substitution lookup 10 subtable" bar_below_wide
Substitution2: "Single Substitution lookup 9 subtable" bar_below_wide
EndChar

StartChar: tengwa_tilde
Encoding: 90 57426 82
Width: 0
GlyphClass: 4
Flags: W
AnchorPoint: "mkmk_up" 491 1550 mark 0
AnchorPoint: "mkmk_up" 491 1900 basemark 0
AnchorPoint: "TehtaAbove" 491 1550 mark 0
LayerCount: 2
Fore
SplineSet
284 1714 m 2,0,1
 276 1682 276 1682 285.5 1661 c 128,-1,2
 295 1640 295 1640 316 1640 c 2,3,-1
 765 1640 l 1,4,5
 783 1636 783 1636 799.5 1624 c 128,-1,6
 816 1612 816 1612 829.5 1594.5 c 128,-1,7
 843 1577 843 1577 851 1556 c 128,-1,8
 859 1535 859 1535 859 1513 c 1,9,-1
 733 1199 l 1,10,-1
 706 1199 l 1,11,-1
 737 1368 l 2,12,13
 743 1400 743 1400 731 1421 c 128,-1,14
 719 1442 719 1442 698 1442 c 2,15,-1
 282 1442 l 1,16,17
 264 1446 264 1446 246.5 1457.5 c 128,-1,18
 229 1469 229 1469 215 1486.5 c 128,-1,19
 201 1504 201 1504 192.5 1524.5 c 128,-1,20
 184 1545 184 1545 184 1567 c 1,21,-1
 267 1763 l 1,22,-1
 297 1763 l 1,23,-1
 284 1714 l 2,0,1
EndSplineSet
Validated: 1
Substitution2: "Single Substitution lookup 16 subtable" tengwa_tilde_narrow
Substitution2: "Single Substitution lookup 15 subtable" tengwa_tilde_narrow
Substitution2: "Single Substitution lookup 14 subtable" tengwa_tilde_narrow
Substitution2: "Single Substitution lookup 13 subtable" tengwa_tilde_narrow
Substitution2: "Single Substitution lookup 12 subtable" tengwa_tilde
Substitution2: "Single Substitution lookup 11 subtable" tengwa_tilde
Substitution2: "Single Substitution lookup 10 subtable" tengwa_tilde
Substitution2: "Single Substitution lookup 9 subtable" tengwa_tilde
EndChar

StartChar: tripledot_above_inverted
Encoding: 94 57430 83
Width: 2
GlyphClass: 4
Flags: W
AnchorPoint: "mkmk_up" 361 1300 mark 0
AnchorPoint: "mkmk_up" 361 1800 basemark 0
AnchorPoint: "TehtaAbove" 361 1300 mark 0
LayerCount: 2
Fore
SplineSet
221 1347 m 1,0,-1
 356 1482 l 1,1,-1
 491 1347 l 1,2,-1
 356 1212 l 1,3,-1
 221 1347 l 1,0,-1
399 1557 m 1,4,-1
 534 1692 l 1,5,-1
 669 1557 l 1,6,-1
 534 1422 l 1,7,-1
 399 1557 l 1,4,-1
43 1557 m 1,8,-1
 178 1692 l 1,9,-1
 313 1557 l 1,10,-1
 178 1422 l 1,11,-1
 43 1557 l 1,8,-1
EndSplineSet
Validated: 1
EndChar

StartChar: thinnas
Encoding: 95 57431 84
Width: 2
GlyphClass: 4
Flags: W
AnchorPoint: "TehtaBelow" 537 -500 mark 0
LayerCount: 2
Fore
SplineSet
643 -354 m 1,0,-1
 643 -861 l 1,1,-1
 433 -967 l 1,2,-1
 433 -460 l 1,3,-1
 643 -354 l 1,0,-1
EndSplineSet
Validated: 1
Ligature2: "Ligatures subtable" zwj aara
LCarets2: 1 0
EndChar

StartChar: sarince_end
Encoding: 96 57432 85
Width: 659
GlyphClass: 2
Flags: W
AnchorPoint: "TehtaBelow" 350 -600 basechar 0
AnchorPoint: "TehtaAbove" 350 600 basechar 0
AnchorPoint: "shook" 50 100 mark 0
LayerCount: 2
Fore
SplineSet
25 186 m 1,0,-1
 265 186 l 2,1,2
 345 186 345 186 416.5 162.5 c 128,-1,3
 488 139 488 139 541.5 95 c 128,-1,4
 595 51 595 51 626.5 -11.5 c 128,-1,5
 658 -74 658 -74 658 -152 c 0,6,7
 658 -197 658 -197 646.5 -240 c 128,-1,8
 635 -283 635 -283 612.5 -320.5 c 128,-1,9
 590 -358 590 -358 556.5 -389.5 c 128,-1,10
 523 -421 523 -421 480 -442 c 0,11,12
 442 -460 442 -460 405.5 -468 c 128,-1,13
 369 -476 369 -476 334 -476 c 0,14,15
 281 -475 281 -475 230.5 -460.5 c 128,-1,16
 180 -446 180 -446 129 -425 c 0,17,18
 110 -417 110 -417 86 -405 c 128,-1,19
 62 -393 62 -393 37 -382.5 c 128,-1,20
 12 -372 12 -372 -12 -364.5 c 128,-1,21
 -36 -357 -36 -357 -55 -357 c 0,22,23
 -81 -357 -81 -357 -103 -369.5 c 128,-1,24
 -125 -382 -125 -382 -151 -405 c 0,25,26
 -157 -410 -157 -410 -158.5 -408 c 128,-1,27
 -160 -406 -160 -406 -158 -401 c 0,28,29
 -127 -330 -127 -330 -71 -285 c 0,30,31
 -3 -232 -3 -232 77 -232 c 0,32,33
 123 -232 123 -232 169 -249.5 c 128,-1,34
 215 -267 215 -267 261 -288.5 c 128,-1,35
 307 -310 307 -310 353 -327.5 c 128,-1,36
 399 -345 399 -345 445 -345 c 0,37,38
 484 -345 484 -345 511.5 -330 c 128,-1,39
 539 -315 539 -315 556.5 -292.5 c 128,-1,40
 574 -270 574 -270 582.5 -244 c 128,-1,41
 591 -218 591 -218 591 -196 c 0,42,43
 591 -146 591 -146 573.5 -111.5 c 128,-1,44
 556 -77 556 -77 527 -55.5 c 128,-1,45
 498 -34 498 -34 460 -22.5 c 128,-1,46
 422 -11 422 -11 380.5 -6 c 128,-1,47
 339 -1 339 -1 297 -0.5 c 128,-1,48
 255 0 255 0 218 0 c 2,49,-1
 3 0 l 1,50,-1
 25 186 l 1,0,-1
EndSplineSet
EndChar

StartChar: sarince_combine
Encoding: 97 57433 86
Width: 2
GlyphClass: 4
Flags: W
AnchorPoint: "mkmk_down" 448 -950 basemark 0
AnchorPoint: "mkmk_down" 500 -600 mark 0
AnchorPoint: "TehtaBelow" 500 -600 mark 0
LayerCount: 2
Fore
SplineSet
505 -327 m 1,0,1
 537 -335 537 -335 540 -366 c 1,2,-1
 107 -717 l 2,3,4
 90 -732 90 -732 79.5 -750.5 c 128,-1,5
 69 -769 69 -769 69 -789 c 0,6,7
 69 -806 69 -806 77.5 -825 c 128,-1,8
 86 -844 86 -844 99 -860 c 0,9,10
 110 -874 110 -874 138 -890 c 128,-1,11
 166 -906 166 -906 198 -906 c 0,12,13
 216 -906 216 -906 234.5 -897 c 128,-1,14
 253 -888 253 -888 254 -863 c 0,15,16
 255 -852 255 -852 252.5 -838.5 c 128,-1,17
 250 -825 250 -825 245.5 -811.5 c 128,-1,18
 241 -798 241 -798 234 -786.5 c 128,-1,19
 227 -775 227 -775 220 -767 c 1,20,-1
 313 -692 l 1,21,22
 333 -695 333 -695 345.5 -704.5 c 128,-1,23
 358 -714 358 -714 365.5 -726.5 c 128,-1,24
 373 -739 373 -739 376 -754.5 c 128,-1,25
 379 -770 379 -770 379 -785 c 0,26,27
 379 -808 379 -808 372 -829.5 c 128,-1,28
 365 -851 365 -851 346 -874 c 1,29,-1
 184 -1008 l 2,30,31
 172 -1014 172 -1014 155 -1016.5 c 128,-1,32
 138 -1019 138 -1019 124 -1019 c 0,33,34
 85 -1019 85 -1019 52.5 -1006 c 128,-1,35
 20 -993 20 -993 -3 -971.5 c 128,-1,36
 -26 -950 -26 -950 -38.5 -922.5 c 128,-1,37
 -51 -895 -51 -895 -51 -865 c 0,38,39
 -51 -839 -51 -839 -42.5 -814.5 c 128,-1,40
 -34 -790 -34 -790 -21 -769.5 c 128,-1,41
 -8 -749 -8 -749 6 -733.5 c 128,-1,42
 20 -718 20 -718 29 -710 c 2,43,-1
 505 -327 l 1,0,1
EndSplineSet
Validated: 1
Substitution2: "Single Substitution lookup 26 subtable" lambe_sarince
Substitution2: "Single Substitution lookup 25 subtable" lambe_sarince
Substitution2: "Single Substitution lookup 24 subtable" lambe_sarince
Substitution2: "Single Substitution lookup 23 subtable" lambe_sarince
EndChar

StartChar: tehta_dotinside
Encoding: 98 57434 87
Width: 431
GlyphClass: 4
Flags: W
AnchorPoint: "inside" 211 464 mark 0
LayerCount: 2
Fore
SplineSet
51 464 m 1,0,-1
 211 624 l 1,1,-1
 371 464 l 1,2,-1
 211 304 l 1,3,-1
 51 464 l 1,0,-1
EndSplineSet
Validated: 1
EndChar

StartChar: tehta_circumflex
Encoding: 99 57435 88
Width: 2
GlyphClass: 4
Flags: W
AnchorPoint: "mkmk_up" 361 1300 mark 0
AnchorPoint: "mkmk_up" 361 1650 basemark 0
AnchorPoint: "TehtaAbove" 361 1300 mark 0
LayerCount: 2
Fore
SplineSet
128 1166 m 1,0,-1
 93 1203 l 1,1,-1
 464 1548 l 1,2,-1
 715 1289 l 1,3,-1
 570 1143 l 1,4,-1
 350 1371 l 1,5,-1
 128 1166 l 1,0,-1
EndSplineSet
Validated: 1
EndChar

StartChar: tehta_caron
Encoding: 100 57436 89
Width: 2
GlyphClass: 4
Flags: W
AnchorPoint: "mkmk_up" 381 1650 basemark 0
AnchorPoint: "mkmk_up" 381 1300 mark 0
AnchorPoint: "TehtaAbove" 381 1300 mark 0
LayerCount: 2
Fore
SplineSet
630 1524 m 1,0,-1
 665 1487 l 1,1,-1
 294 1142 l 1,2,-1
 43 1401 l 1,3,-1
 188 1547 l 1,4,-1
 408 1319 l 1,5,-1
 630 1524 l 1,0,-1
EndSplineSet
Validated: 1
EndChar

StartChar: pusta
Encoding: 101 57440 90
Width: 431
GlyphClass: 2
Flags: W
LayerCount: 2
Fore
SplineSet
51 464 m 1,0,-1
 211 624 l 1,1,-1
 371 464 l 1,2,-1
 211 304 l 1,3,-1
 51 464 l 1,0,-1
EndSplineSet
Validated: 1
EndChar

StartChar: pusta_double
Encoding: 102 57441 91
Width: 513
GlyphClass: 2
Flags: W
LayerCount: 2
Fore
SplineSet
73 770 m 1,0,-1
 233 930 l 1,1,-1
 393 770 l 1,2,-1
 233 610 l 1,3,-1
 73 770 l 1,0,-1
73 112 m 1,4,-1
 233 272 l 1,5,-1
 393 112 l 1,6,-1
 233 -48 l 1,7,-1
 73 112 l 1,4,-1
EndSplineSet
Validated: 1
EndChar

StartChar: pusta_triple
Encoding: 103 57442 92
Width: 526
GlyphClass: 2
Flags: W
LayerCount: 2
Fore
SplineSet
73 816 m 1,0,-1
 233 976 l 1,1,-1
 393 816 l 1,2,-1
 233 656 l 1,3,-1
 73 816 l 1,0,-1
73 112 m 1,4,-1
 233 272 l 1,5,-1
 393 112 l 1,6,-1
 233 -48 l 1,7,-1
 73 112 l 1,4,-1
73 464 m 1,8,-1
 233 624 l 1,9,-1
 393 464 l 1,10,-1
 233 304 l 1,11,-1
 73 464 l 1,8,-1
EndSplineSet
Validated: 1
EndChar

StartChar: tengwa_exclamation
Encoding: 106 57445 93
Width: 865
GlyphClass: 2
Flags: W
LayerCount: 2
Fore
SplineSet
300 824 m 2,0,1
 281 897 281 897 281 956 c 0,2,3
 281 1012 281 1012 296 1057 c 128,-1,4
 311 1102 311 1102 336.5 1142.5 c 128,-1,5
 362 1183 362 1183 396.5 1221.5 c 128,-1,6
 431 1260 431 1260 470 1302 c 2,7,-1
 545 1382 l 1,8,-1
 575 1356 l 1,9,-1
 546 1323 l 2,10,11
 524 1298 524 1298 508.5 1276.5 c 128,-1,12
 493 1255 493 1255 483.5 1234 c 128,-1,13
 474 1213 474 1213 469.5 1191 c 128,-1,14
 465 1169 465 1169 465 1145 c 0,15,16
 465 1104 465 1104 476 1053 c 128,-1,17
 487 1002 487 1002 506 928 c 2,18,-1
 596 570 l 2,19,20
 615 497 615 497 615 438 c 0,21,22
 615 382 615 382 600 337 c 128,-1,23
 585 292 585 292 559.5 251.5 c 128,-1,24
 534 211 534 211 499.5 172.5 c 128,-1,25
 465 134 465 134 426 92 c 2,26,-1
 351 12 l 1,27,-1
 321 38 l 1,28,-1
 350 71 l 2,29,30
 372 96 372 96 387 117.5 c 128,-1,31
 402 139 402 139 412 160 c 128,-1,32
 422 181 422 181 426.5 203 c 128,-1,33
 431 225 431 225 431 249 c 0,34,35
 431 290 431 290 420 341 c 128,-1,36
 409 392 409 392 390 466 c 2,37,-1
 300 824 l 2,0,1
EndSplineSet
Validated: 1
EndChar

StartChar: tengwa_question
Encoding: 107 57446 94
Width: 990
GlyphClass: 2
Flags: W
LayerCount: 2
Fore
SplineSet
617 771 m 1,0,-1
 517 851 l 1,1,-1
 346 714 l 1,2,-1
 346 374 l 1,3,4
 409 344 409 344 477.5 317.5 c 128,-1,5
 546 291 546 291 617 282 c 1,6,-1
 617 771 l 1,0,-1
482 900 m 2,7,8
 492 908 492 908 514.5 926 c 128,-1,9
 537 944 537 944 559.5 969.5 c 128,-1,10
 582 995 582 995 599 1028 c 128,-1,11
 616 1061 616 1061 616 1100 c 2,12,-1
 616 1181 l 1,13,-1
 517 1261 l 1,14,-1
 346 1124 l 1,15,-1
 346 791 l 1,16,-1
 482 900 l 2,7,8
134 1454 m 2,17,18
 134 1471 134 1471 130.5 1487 c 128,-1,19
 127 1503 127 1503 123 1516 c 0,20,21
 118 1531 118 1531 112 1545 c 0,22,23
 103 1560 103 1560 95.5 1572.5 c 128,-1,24
 88 1585 88 1585 79.5 1597 c 128,-1,25
 71 1609 71 1609 61.5 1620.5 c 128,-1,26
 52 1632 52 1632 40 1645 c 1,27,28
 66 1650 66 1650 90 1643 c 128,-1,29
 114 1636 114 1636 136 1622 c 256,30,31
 158 1608 158 1608 177.5 1591 c 128,-1,32
 197 1574 197 1574 217 1560 c 1,33,34
 240 1581 240 1581 265.5 1603.5 c 128,-1,35
 291 1626 291 1626 319 1645.5 c 128,-1,36
 347 1665 347 1665 376.5 1679.5 c 128,-1,37
 406 1694 406 1694 438 1698 c 0,38,39
 447 1700 447 1700 461 1701.5 c 128,-1,40
 475 1703 475 1703 485 1698 c 1,41,42
 454 1673 454 1673 428.5 1642 c 128,-1,43
 403 1611 403 1611 386 1576 c 0,44,45
 367 1538 367 1538 356.5 1494.5 c 128,-1,46
 346 1451 346 1451 346 1410 c 2,47,-1
 346 1201 l 1,48,-1
 645 1440 l 1,49,-1
 814 1275 l 1,50,-1
 903 1366 l 1,51,-1
 926 1366 l 1,52,-1
 950 1343 l 1,53,54
 938 1327 938 1327 917 1307 c 128,-1,55
 896 1287 896 1287 876.5 1260 c 128,-1,56
 857 1233 857 1233 842.5 1197.5 c 128,-1,57
 828 1162 828 1162 828 1115 c 2,58,-1
 828 1063 l 2,59,60
 828 1013 828 1013 803 974 c 128,-1,61
 778 935 778 935 747 904 c 1,62,63
 779 878 779 878 803.5 841 c 128,-1,64
 828 804 828 804 828 755 c 2,65,-1
 828 247 l 1,66,67
 798 239 798 239 752 220 c 128,-1,68
 706 201 706 201 658.5 177 c 128,-1,69
 611 153 611 153 569 127.5 c 128,-1,70
 527 102 527 102 505 80 c 1,71,72
 464 100 464 100 425 118 c 128,-1,73
 386 136 386 136 346 153 c 1,74,-1
 346 -100 l 1,75,76
 385 -156 385 -156 436 -200 c 1,77,78
 383 -235 383 -235 334 -274 c 128,-1,79
 285 -313 285 -313 240 -357 c 1,80,81
 195 -313 195 -313 146 -274 c 128,-1,82
 97 -235 97 -235 44 -200 c 1,83,84
 95 -156 95 -156 134 -100 c 1,85,-1
 134 1454 l 2,17,18
EndSplineSet
Validated: 1
EndChar

StartChar: tengwa_parenthesis
Encoding: 108 57447 95
Width: 1015
GlyphClass: 2
Flags: W
LayerCount: 2
Fore
SplineSet
564 1484 m 2,0,1
 564 1518 564 1518 555 1548 c 128,-1,2
 546 1578 546 1578 529 1604 c 0,3,4
 517 1624 517 1624 502 1641 c 128,-1,5
 487 1658 487 1658 470 1675 c 1,6,7
 475 1676 475 1676 480.5 1676.5 c 128,-1,8
 486 1677 486 1677 491 1677 c 0,9,10
 511 1677 511 1677 530 1670 c 128,-1,11
 549 1663 549 1663 566 1652 c 0,12,13
 588 1638 588 1638 607.5 1622.5 c 128,-1,14
 627 1607 627 1607 647 1590 c 1,15,16
 680 1621 680 1621 717 1651 c 0,17,18
 755 1681 755 1681 797.5 1705.5 c 128,-1,19
 840 1730 840 1730 890 1730 c 0,20,21
 896 1730 896 1730 902.5 1729.5 c 128,-1,22
 909 1729 909 1729 915 1728 c 1,23,24
 884 1703 884 1703 858.5 1672 c 128,-1,25
 833 1641 833 1641 816 1606 c 0,26,27
 797 1568 797 1568 786.5 1525 c 128,-1,28
 776 1482 776 1482 776 1440 c 2,29,-1
 776 -359 l 1,30,31
 790 -380 790 -380 807 -399.5 c 128,-1,32
 824 -419 824 -419 843 -438 c 1,33,-1
 816 -492 l 1,34,-1
 47 -994 l 2,35,36
 26 -1007 26 -1007 15 -1028 c 128,-1,37
 4 -1049 4 -1049 6 -1072 c 0,38,39
 7 -1102 7 -1102 31 -1137 c 0,40,41
 37 -1145 37 -1145 48 -1154 c 128,-1,42
 59 -1163 59 -1163 73.5 -1171 c 128,-1,43
 88 -1179 88 -1179 105 -1183.5 c 128,-1,44
 122 -1188 122 -1188 139 -1187 c 0,45,46
 154 -1186 154 -1186 169 -1178 c 128,-1,47
 184 -1170 184 -1170 186 -1148 c 0,48,49
 187 -1136 187 -1136 185.5 -1122.5 c 128,-1,50
 184 -1109 184 -1109 180 -1095.5 c 128,-1,51
 176 -1082 176 -1082 170 -1070 c 128,-1,52
 164 -1058 164 -1058 157 -1050 c 1,53,-1
 254 -980 l 1,54,55
 286 -985 286 -985 299 -1007.5 c 128,-1,56
 312 -1030 312 -1030 314 -1053 c 0,57,58
 316 -1082 316 -1082 309 -1109.5 c 128,-1,59
 302 -1137 302 -1137 277 -1164 c 1,60,-1
 107 -1288 l 2,61,62
 95 -1295 95 -1295 77 -1296 c 0,63,64
 33 -1299 33 -1299 -2.5 -1287 c 128,-1,65
 -38 -1275 -38 -1275 -63.5 -1254 c 128,-1,66
 -89 -1233 -89 -1233 -103 -1205 c 128,-1,67
 -117 -1177 -117 -1177 -119 -1147 c 0,68,69
 -121 -1119 -121 -1119 -117.5 -1096 c 128,-1,70
 -114 -1073 -114 -1073 -104 -1052 c 128,-1,71
 -94 -1031 -94 -1031 -76 -1009.5 c 128,-1,72
 -58 -988 -58 -988 -31 -963 c 0,73,74
 33 -905 33 -905 78 -853.5 c 128,-1,75
 123 -802 123 -802 151 -746 c 128,-1,76
 179 -690 179 -690 191.5 -622.5 c 128,-1,77
 204 -555 204 -555 204 -465 c 2,78,-1
 204 1308 l 2,79,80
 204 1342 204 1342 195 1372 c 128,-1,81
 186 1402 186 1402 169 1428 c 0,82,83
 157 1448 157 1448 142 1465 c 128,-1,84
 127 1482 127 1482 110 1499 c 1,85,86
 115 1500 115 1500 120.5 1500.5 c 128,-1,87
 126 1501 126 1501 131 1501 c 0,88,89
 151 1501 151 1501 170 1494 c 128,-1,90
 189 1487 189 1487 206 1476 c 0,91,92
 228 1462 228 1462 247.5 1446.5 c 128,-1,93
 267 1431 267 1431 287 1414 c 1,94,95
 320 1445 320 1445 357 1475 c 0,96,97
 395 1505 395 1505 437.5 1529.5 c 128,-1,98
 480 1554 480 1554 530 1554 c 0,99,100
 536 1554 536 1554 542.5 1553.5 c 128,-1,101
 549 1553 549 1553 555 1552 c 1,102,103
 524 1527 524 1527 498.5 1496 c 128,-1,104
 473 1465 473 1465 456 1430 c 0,105,106
 437 1392 437 1392 426.5 1349 c 128,-1,107
 416 1306 416 1306 416 1264 c 2,108,-1
 416 -635 l 1,109,110
 429 -624 429 -624 454 -588 c 128,-1,111
 479 -552 479 -552 503.5 -505.5 c 128,-1,112
 528 -459 528 -459 546 -409 c 128,-1,113
 564 -359 564 -359 564 -319 c 2,114,-1
 564 1484 l 2,0,1
EndSplineSet
Validated: 37
EndChar

StartChar: tengwa_section
Encoding: 109 57448 96
Width: 1092
GlyphClass: 2
Flags: W
LayerCount: 2
Fore
SplineSet
404 459 m 6,0,1
 356 475 356 475 322 484.5 c 132,-1,2
 288 494 288 494 262 494 c 4,3,4
 230 494 230 494 204 478.5 c 132,-1,5
 178 463 178 463 146 426 c 6,6,-1
 130 407 l 5,7,-1
 108 427 l 5,8,-1
 161 490 l 6,9,10
 188 523 188 523 213 552 c 132,-1,11
 238 581 238 581 264.5 602.5 c 132,-1,12
 291 624 291 624 320.5 636.5 c 132,-1,13
 350 649 350 649 386 649 c 4,14,15
 406 649 406 649 427 645 c 132,-1,16
 448 641 448 641 471 633 c 6,17,-1
 704 557 l 6,18,19
 752 541 752 541 786 531.5 c 132,-1,20
 820 522 820 522 846 522 c 4,21,22
 878 522 878 522 904 537.5 c 132,-1,23
 930 553 930 553 962 590 c 6,24,-1
 978 609 l 5,25,-1
 1000 589 l 5,26,-1
 947 526 l 6,27,28
 920 493 920 493 895 464 c 132,-1,29
 870 435 870 435 843.5 413.5 c 132,-1,30
 817 392 817 392 787.5 379.5 c 132,-1,31
 758 367 758 367 722 367 c 4,32,33
 702 367 702 367 681 371 c 132,-1,34
 660 375 660 375 637 383 c 6,35,-1
 404 459 l 6,0,1
EndSplineSet
Validated: 1
EndChar

StartChar: tengwa_section_double
Encoding: 110 57449 97
Width: 1172
GlyphClass: 2
Flags: W
LayerCount: 2
Fore
SplineSet
435 666 m 2,0,1
 387 682 387 682 353 691.5 c 128,-1,2
 319 701 319 701 293 701 c 0,3,4
 261 701 261 701 235 685.5 c 128,-1,5
 209 670 209 670 177 633 c 2,6,-1
 161 614 l 1,7,-1
 139 634 l 1,8,-1
 192 697 l 2,9,10
 219 730 219 730 244 759 c 128,-1,11
 269 788 269 788 295.5 809.5 c 128,-1,12
 322 831 322 831 351.5 843.5 c 128,-1,13
 381 856 381 856 417 856 c 0,14,15
 437 856 437 856 458 852 c 128,-1,16
 479 848 479 848 502 840 c 2,17,-1
 735 764 l 2,18,19
 783 748 783 748 817 738.5 c 128,-1,20
 851 729 851 729 877 729 c 0,21,22
 909 729 909 729 935 744.5 c 128,-1,23
 961 760 961 760 993 797 c 2,24,-1
 1009 816 l 1,25,-1
 1031 796 l 1,26,-1
 978 733 l 2,27,28
 951 700 951 700 926 671 c 128,-1,29
 901 642 901 642 874.5 620.5 c 128,-1,30
 848 599 848 599 818.5 586.5 c 128,-1,31
 789 574 789 574 753 574 c 0,32,33
 733 574 733 574 712 578 c 128,-1,34
 691 582 691 582 668 590 c 2,35,-1
 435 666 l 2,0,1
435 256 m 2,36,37
 387 272 387 272 353 281.5 c 128,-1,38
 319 291 319 291 293 291 c 0,39,40
 261 291 261 291 235 275.5 c 128,-1,41
 209 260 209 260 177 223 c 2,42,-1
 161 204 l 1,43,-1
 139 224 l 1,44,-1
 192 287 l 2,45,46
 219 320 219 320 244 349 c 128,-1,47
 269 378 269 378 295.5 399.5 c 128,-1,48
 322 421 322 421 351.5 433.5 c 128,-1,49
 381 446 381 446 417 446 c 0,50,51
 437 446 437 446 458 442 c 128,-1,52
 479 438 479 438 502 430 c 2,53,-1
 735 354 l 2,54,55
 783 338 783 338 817 328.5 c 128,-1,56
 851 319 851 319 877 319 c 0,57,58
 909 319 909 319 935 334.5 c 128,-1,59
 961 350 961 350 993 387 c 2,60,-1
 1009 406 l 1,61,-1
 1031 386 l 1,62,-1
 978 323 l 2,63,64
 951 290 951 290 926 261 c 128,-1,65
 901 232 901 232 874.5 210.5 c 128,-1,66
 848 189 848 189 818.5 176.5 c 128,-1,67
 789 164 789 164 753 164 c 0,68,69
 733 164 733 164 712 168 c 128,-1,70
 691 172 691 172 668 180 c 2,71,-1
 435 256 l 2,36,37
EndSplineSet
Validated: 1
EndChar

StartChar: tengwa_quotation_up
Encoding: 111 57450 98
Width: 705
GlyphClass: 2
Flags: W
LayerCount: 2
Fore
SplineSet
283 1784 m 1,0,1
 248 1749 248 1749 235.5 1699.5 c 128,-1,2
 223 1650 223 1650 223 1596 c 0,3,4
 223 1535 223 1535 241 1478 c 0,5,6
 276 1363 276 1363 365 1286 c 1,7,8
 339 1270 339 1270 307 1281.5 c 128,-1,9
 275 1293 275 1293 243 1322.5 c 128,-1,10
 211 1352 211 1352 181 1394.5 c 128,-1,11
 151 1437 151 1437 128 1483 c 0,12,13
 106 1528 106 1528 93 1573 c 128,-1,14
 80 1618 80 1618 80 1663 c 0,15,16
 80 1697 80 1697 90.5 1723.5 c 128,-1,17
 101 1750 101 1750 119 1767 c 128,-1,18
 137 1784 137 1784 160.5 1792.5 c 128,-1,19
 184 1801 184 1801 211 1800 c 0,20,21
 230 1800 230 1800 248 1795 c 128,-1,22
 266 1790 266 1790 283 1784 c 1,0,1
563 1784 m 1,23,24
 528 1749 528 1749 515.5 1699.5 c 128,-1,25
 503 1650 503 1650 503 1596 c 0,26,27
 503 1535 503 1535 521 1478 c 0,28,29
 556 1363 556 1363 645 1286 c 1,30,31
 619 1270 619 1270 587 1281.5 c 128,-1,32
 555 1293 555 1293 523 1322.5 c 128,-1,33
 491 1352 491 1352 461 1394.5 c 128,-1,34
 431 1437 431 1437 408 1483 c 0,35,36
 386 1528 386 1528 373 1573 c 128,-1,37
 360 1618 360 1618 360 1663 c 0,38,39
 360 1697 360 1697 370.5 1723.5 c 128,-1,40
 381 1750 381 1750 399 1767 c 128,-1,41
 417 1784 417 1784 440.5 1792.5 c 128,-1,42
 464 1801 464 1801 491 1800 c 0,43,44
 510 1800 510 1800 528 1795 c 128,-1,45
 546 1790 546 1790 563 1784 c 1,23,24
EndSplineSet
Validated: 1
EndChar

StartChar: tengwa_quotation_down
Encoding: 112 57451 99
Width: 705
GlyphClass: 2
Flags: W
LayerCount: 2
Fore
SplineSet
142 154 m 5,0,1
 159 160 159 160 177 165 c 132,-1,2
 195 170 195 170 214 170 c 4,3,4
 241 171 241 171 264.5 162.5 c 132,-1,5
 288 154 288 154 306 137 c 132,-1,6
 324 120 324 120 334.5 93.5 c 132,-1,7
 345 67 345 67 345 33 c 4,8,9
 345 -12 345 -12 332 -57 c 132,-1,10
 319 -102 319 -102 297 -147 c 4,11,12
 274 -193 274 -193 244 -235.5 c 132,-1,13
 214 -278 214 -278 182 -307.5 c 132,-1,14
 150 -337 150 -337 118 -348.5 c 132,-1,15
 86 -360 86 -360 60 -344 c 5,16,17
 149 -267 149 -267 184 -152 c 4,18,19
 202 -95 202 -95 202 -34 c 4,20,21
 202 20 202 20 189.5 69.5 c 132,-1,22
 177 119 177 119 142 154 c 5,0,1
422 154 m 5,23,24
 439 160 439 160 457 165 c 132,-1,25
 475 170 475 170 494 170 c 4,26,27
 521 171 521 171 544.5 162.5 c 132,-1,28
 568 154 568 154 586 137 c 132,-1,29
 604 120 604 120 614.5 93.5 c 132,-1,30
 625 67 625 67 625 33 c 4,31,32
 625 -12 625 -12 612 -57 c 132,-1,33
 599 -102 599 -102 577 -147 c 4,34,35
 554 -193 554 -193 524 -235.5 c 132,-1,36
 494 -278 494 -278 462 -307.5 c 132,-1,37
 430 -337 430 -337 398 -348.5 c 132,-1,38
 366 -360 366 -360 340 -344 c 5,39,40
 429 -267 429 -267 464 -152 c 4,41,42
 482 -95 482 -95 482 -34 c 4,43,44
 482 20 482 20 469.5 69.5 c 132,-1,45
 457 119 457 119 422 154 c 5,23,24
EndSplineSet
Validated: 1
EndChar

StartChar: digit_zero
Encoding: 114 57456 100
Width: 875
GlyphClass: 2
Flags: W
AnchorPoint: "inside" 300 450 basechar 0
AnchorPoint: "TehtaAbove" 450 1200 basechar 0
AnchorPoint: "TehtaBelow" 450 -150 basechar 0
LayerCount: 2
Fore
SplineSet
554 635 m 1,0,-1
 289 756 l 1,1,-1
 79 655 l 1,2,3
 67 662 67 662 57.5 670.5 c 128,-1,4
 48 679 48 679 43.5 689.5 c 128,-1,5
 39 700 39 700 40.5 714 c 128,-1,6
 42 728 42 728 52 745 c 1,7,8
 96 765 96 765 143.5 789 c 128,-1,9
 191 813 191 813 237 838 c 128,-1,10
 283 863 283 863 325.5 887 c 128,-1,11
 368 911 368 911 402 930 c 1,12,13
 417 915 417 915 445.5 898 c 128,-1,14
 474 881 474 881 509 864 c 128,-1,15
 544 847 544 847 582.5 830.5 c 128,-1,16
 621 814 621 814 657 800 c 0,17,18
 700 782 700 782 741 777.5 c 128,-1,19
 782 773 782 773 829 772 c 1,20,21
 834 766 834 766 834 762.5 c 128,-1,22
 834 759 834 759 833 754 c 0,23,24
 796 723 796 723 765 664 c 1,25,-1
 765 120 l 1,26,27
 735 112 735 112 689 93 c 128,-1,28
 643 74 643 74 595.5 50 c 128,-1,29
 548 26 548 26 506 0.5 c 128,-1,30
 464 -25 464 -25 442 -47 c 1,31,32
 394 -24 394 -24 348 -3 c 128,-1,33
 302 18 302 18 255 38.5 c 128,-1,34
 208 59 208 59 158 79 c 128,-1,35
 108 99 108 99 52 120 c 1,36,-1
 275 251 l 1,37,38
 339 220 339 220 410 192.5 c 128,-1,39
 481 165 481 165 554 155 c 1,40,-1
 554 635 l 1,0,-1
EndSplineSet
Validated: 1
EndChar

StartChar: digit_one
Encoding: 115 57457 101
Width: 855
GlyphClass: 2
Flags: W
AnchorPoint: "TehtaAbove" 450 1200 basechar 0
AnchorPoint: "TehtaBelow" 400 -150 basechar 0
LayerCount: 2
Fore
SplineSet
61 900 m 1,0,1
 85 888 85 888 104 881 c 128,-1,2
 123 874 123 874 142.5 871 c 128,-1,3
 162 868 162 868 184.5 867 c 128,-1,4
 207 866 207 866 237 866 c 0,5,6
 250 866 250 866 291.5 872 c 128,-1,7
 333 878 333 878 383.5 885.5 c 128,-1,8
 434 893 434 893 484 899.5 c 128,-1,9
 534 906 534 906 565 906 c 0,10,11
 657 906 657 906 729 826 c 0,12,13
 748 804 748 804 760 786 c 128,-1,14
 772 768 772 768 780.5 749 c 128,-1,15
 789 730 789 730 796.5 708 c 128,-1,16
 804 686 804 686 815 656 c 1,17,-1
 797 652 l 1,18,19
 776 678 776 678 755.5 693 c 128,-1,20
 735 708 735 708 714 716 c 128,-1,21
 693 724 693 724 670.5 726 c 128,-1,22
 648 728 648 728 623 728 c 0,23,24
 604 728 604 728 577.5 724 c 128,-1,25
 551 720 551 720 523 715 c 128,-1,26
 495 710 495 710 468 706 c 128,-1,27
 441 702 441 702 421 702 c 0,28,29
 404 702 404 702 387 702.5 c 128,-1,30
 370 703 370 703 353 706 c 1,31,32
 366 681 366 681 377.5 662.5 c 128,-1,33
 389 644 389 644 397.5 613 c 128,-1,34
 406 582 406 582 410.5 528.5 c 128,-1,35
 415 475 415 475 415 380 c 2,36,-1
 415 310 l 2,37,38
 415 290 415 290 426 268 c 128,-1,39
 437 246 437 246 453.5 227 c 128,-1,40
 470 208 470 208 488 194.5 c 128,-1,41
 506 181 506 181 520 178 c 1,42,-1
 574 209 l 1,43,-1
 602 174 l 1,44,-1
 389 0 l 1,45,46
 366 13 366 13 334 34.5 c 128,-1,47
 302 56 302 56 273 86.5 c 128,-1,48
 244 117 244 117 223.5 156 c 128,-1,49
 203 195 203 195 203 243 c 2,50,-1
 203 462 l 2,51,52
 203 530 203 530 194 587 c 128,-1,53
 185 644 185 644 165.5 693 c 128,-1,54
 146 742 146 742 115 784 c 128,-1,55
 84 826 84 826 40 864 c 1,56,-1
 61 900 l 1,0,1
EndSplineSet
Validated: 1
EndChar

StartChar: digit_two
Encoding: 116 57458 102
Width: 1337
GlyphClass: 2
Flags: W
AnchorPoint: "TehtaBelow" 600 -150 basechar 0
AnchorPoint: "TehtaAbove" 600 1200 basechar 0
LayerCount: 2
Fore
SplineSet
363 690 m 1,0,1
 371 679 371 679 376 668 c 128,-1,2
 381 657 381 657 386 645 c 0,3,4
 392 630 392 630 397.5 610 c 128,-1,5
 403 590 403 590 407 559.5 c 128,-1,6
 411 529 411 529 413 485.5 c 128,-1,7
 415 442 415 442 415 380 c 2,8,-1
 415 310 l 2,9,10
 415 290 415 290 425.5 269 c 128,-1,11
 436 248 436 248 452 229.5 c 128,-1,12
 468 211 468 211 486 197 c 128,-1,13
 504 183 504 183 518 179 c 1,14,-1
 685 312 l 1,15,-1
 685 462 l 2,16,17
 685 537 685 537 674 595.5 c 128,-1,18
 663 654 663 654 640 705 c 1,19,20
 568 701 568 701 497.5 697.5 c 128,-1,21
 427 694 427 694 363 690 c 1,0,1
1279 652 m 1,22,23
 1258 678 1258 678 1237.5 693 c 128,-1,24
 1217 708 1217 708 1196 716 c 128,-1,25
 1175 724 1175 724 1152.5 726 c 128,-1,26
 1130 728 1130 728 1105 728 c 0,27,28
 1070 728 1070 728 995.5 724.5 c 128,-1,29
 921 721 921 721 827 716 c 1,30,31
 829 713 829 713 831 710.5 c 128,-1,32
 833 708 833 708 835 706 c 0,33,34
 846 689 846 689 853.5 675.5 c 128,-1,35
 861 662 861 662 868 645 c 0,36,37
 874 630 874 630 879.5 610 c 128,-1,38
 885 590 885 590 889 559.5 c 128,-1,39
 893 529 893 529 895 485.5 c 128,-1,40
 897 442 897 442 897 380 c 2,41,-1
 897 310 l 2,42,43
 897 290 897 290 908 268 c 128,-1,44
 919 246 919 246 935.5 227 c 128,-1,45
 952 208 952 208 970 194.5 c 128,-1,46
 988 181 988 181 1002 178 c 1,47,-1
 1056 209 l 1,48,-1
 1084 174 l 1,49,-1
 871 0 l 1,50,51
 848 12 848 12 816.5 33.5 c 128,-1,52
 785 55 785 55 756.5 84.5 c 128,-1,53
 728 114 728 114 707 152 c 128,-1,54
 686 190 686 190 685 236 c 1,55,-1
 390 0 l 1,56,57
 367 13 367 13 334.5 34.5 c 128,-1,58
 302 56 302 56 273 86.5 c 128,-1,59
 244 117 244 117 223.5 156 c 128,-1,60
 203 195 203 195 203 243 c 2,61,-1
 203 462 l 2,62,63
 203 530 203 530 194 587 c 128,-1,64
 185 644 185 644 165.5 693 c 128,-1,65
 146 742 146 742 115 784 c 128,-1,66
 84 826 84 826 40 864 c 1,67,-1
 61 900 l 1,68,69
 85 888 85 888 104 881 c 128,-1,70
 123 874 123 874 142.5 871 c 128,-1,71
 162 868 162 868 184.5 867 c 128,-1,72
 207 866 207 866 237 866 c 0,73,74
 301 866 301 866 376.5 869 c 128,-1,75
 452 872 452 872 531 876.5 c 128,-1,76
 610 881 610 881 688 886 c 128,-1,77
 766 891 766 891 835 895.5 c 128,-1,78
 904 900 904 900 959 903 c 128,-1,79
 1014 906 1014 906 1047 906 c 0,80,81
 1139 906 1139 906 1211 826 c 0,82,83
 1230 804 1230 804 1242 786 c 128,-1,84
 1254 768 1254 768 1262.5 749 c 128,-1,85
 1271 730 1271 730 1278.5 708 c 128,-1,86
 1286 686 1286 686 1297 656 c 1,87,-1
 1279 652 l 1,22,23
EndSplineSet
Validated: 1
EndChar

StartChar: digit_three
Encoding: 117 57459 103
Width: 1819
GlyphClass: 2
Flags: W
AnchorPoint: "TehtaAbove" 850 1200 basechar 0
AnchorPoint: "TehtaBelow" 850 -150 basechar 0
LayerCount: 2
Fore
SplineSet
1118 714 m 1,0,1
 1049 712 1049 712 979 709 c 128,-1,2
 909 706 909 706 836 703 c 1,3,4
 847 687 847 687 854 674 c 128,-1,5
 861 661 861 661 868 645 c 0,6,7
 874 630 874 630 879.5 610 c 128,-1,8
 885 590 885 590 889 559.5 c 128,-1,9
 893 529 893 529 895 485.5 c 128,-1,10
 897 442 897 442 897 380 c 2,11,-1
 897 310 l 2,12,13
 897 290 897 290 907.5 269 c 128,-1,14
 918 248 918 248 934 229.5 c 128,-1,15
 950 211 950 211 968 197 c 128,-1,16
 986 183 986 183 1000 179 c 1,17,-1
 1167 312 l 1,18,-1
 1167 462 l 2,19,20
 1167 540 1167 540 1155.5 601 c 128,-1,21
 1144 662 1144 662 1118 714 c 1,0,1
644 697 m 1,22,23
 567 694 567 694 496.5 691.5 c 128,-1,24
 426 689 426 689 365 687 c 1,25,26
 371 676 371 676 376 666 c 128,-1,27
 381 656 381 656 386 645 c 0,28,29
 392 630 392 630 397.5 610 c 128,-1,30
 403 590 403 590 407 559.5 c 128,-1,31
 411 529 411 529 413 485.5 c 128,-1,32
 415 442 415 442 415 380 c 2,33,-1
 415 310 l 2,34,35
 415 290 415 290 425.5 269 c 128,-1,36
 436 248 436 248 452 229.5 c 128,-1,37
 468 211 468 211 486 197 c 128,-1,38
 504 183 504 183 518 179 c 1,39,-1
 685 312 l 1,40,-1
 685 462 l 2,41,42
 685 602 685 602 644 697 c 1,22,23
237 866 m 0,43,44
 305 866 305 866 390.5 867.5 c 128,-1,45
 476 869 476 869 571.5 872 c 128,-1,46
 667 875 667 875 767.5 878.5 c 128,-1,47
 868 882 868 882 965.5 886 c 128,-1,48
 1063 890 1063 890 1153 893.5 c 128,-1,49
 1243 897 1243 897 1317.5 900 c 128,-1,50
 1392 903 1392 903 1447 904.5 c 128,-1,51
 1502 906 1502 906 1529 906 c 0,52,53
 1621 906 1621 906 1693 826 c 0,54,55
 1712 804 1712 804 1724 786 c 128,-1,56
 1736 768 1736 768 1744.5 749 c 128,-1,57
 1753 730 1753 730 1760.5 708 c 128,-1,58
 1768 686 1768 686 1779 656 c 1,59,-1
 1761 652 l 1,60,61
 1740 678 1740 678 1719.5 693 c 128,-1,62
 1699 708 1699 708 1678 716 c 128,-1,63
 1657 724 1657 724 1634.5 726 c 128,-1,64
 1612 728 1612 728 1587 728 c 0,65,66
 1560 728 1560 728 1485 726 c 128,-1,67
 1410 724 1410 724 1306 720 c 1,68,69
 1308 716 1308 716 1311 713 c 128,-1,70
 1314 710 1314 710 1317 706 c 0,71,72
 1328 689 1328 689 1335.5 675.5 c 128,-1,73
 1343 662 1343 662 1350 645 c 0,74,75
 1356 630 1356 630 1361.5 610 c 128,-1,76
 1367 590 1367 590 1371 559.5 c 128,-1,77
 1375 529 1375 529 1377 485.5 c 128,-1,78
 1379 442 1379 442 1379 380 c 2,79,-1
 1379 310 l 2,80,81
 1379 290 1379 290 1390 268 c 128,-1,82
 1401 246 1401 246 1417.5 227 c 128,-1,83
 1434 208 1434 208 1452 194.5 c 128,-1,84
 1470 181 1470 181 1484 178 c 1,85,-1
 1538 209 l 1,86,-1
 1566 174 l 1,87,-1
 1353 0 l 1,88,89
 1330 12 1330 12 1298.5 33.5 c 128,-1,90
 1267 55 1267 55 1238.5 84.5 c 128,-1,91
 1210 114 1210 114 1189 152 c 128,-1,92
 1168 190 1168 190 1167 236 c 1,93,-1
 872 0 l 1,94,95
 849 12 849 12 817.5 33.5 c 128,-1,96
 786 55 786 55 757 84.5 c 128,-1,97
 728 114 728 114 707 152 c 128,-1,98
 686 190 686 190 685 236 c 1,99,-1
 390 0 l 1,100,101
 367 13 367 13 334.5 34.5 c 128,-1,102
 302 56 302 56 273 86.5 c 128,-1,103
 244 117 244 117 223.5 156 c 128,-1,104
 203 195 203 195 203 243 c 2,105,-1
 203 462 l 2,106,107
 203 530 203 530 194 587 c 128,-1,108
 185 644 185 644 165.5 693 c 128,-1,109
 146 742 146 742 115 784 c 128,-1,110
 84 826 84 826 40 864 c 1,111,-1
 61 900 l 1,112,113
 85 888 85 888 104 881 c 128,-1,114
 123 874 123 874 142.5 871 c 128,-1,115
 162 868 162 868 184.5 867 c 128,-1,116
 207 866 207 866 237 866 c 0,43,44
EndSplineSet
Validated: 1
EndChar

StartChar: digit_four
Encoding: 118 57460 104
Width: 1366
GlyphClass: 2
Flags: W
AnchorPoint: "TehtaAbove" 500 1850 basechar 0
AnchorPoint: "TehtaBelow" 700 -900 basechar 0
LayerCount: 2
Fore
SplineSet
673 1450 m 0,0,1
 654 1450 654 1450 628 1446 c 128,-1,2
 602 1442 602 1442 575 1437 c 128,-1,3
 548 1432 548 1432 521.5 1428 c 128,-1,4
 495 1424 495 1424 475 1424 c 0,5,6
 447 1424 447 1424 415.5 1430.5 c 128,-1,7
 384 1437 384 1437 352 1448.5 c 128,-1,8
 320 1460 320 1460 289.5 1476 c 128,-1,9
 259 1492 259 1492 232 1512 c 1,10,11
 316 1419 316 1419 334 1398 c 0,12,13
 408 1308 408 1308 438 1213 c 128,-1,14
 468 1118 468 1118 468 1022 c 2,15,-1
 468 -128 l 2,16,17
 468 -184 468 -184 471 -239.5 c 128,-1,18
 474 -295 474 -295 482 -352 c 0,19,20
 487 -393 487 -393 497 -436 c 128,-1,21
 507 -479 507 -479 524 -516.5 c 128,-1,22
 541 -554 541 -554 566 -582 c 128,-1,23
 591 -610 591 -610 627 -620 c 0,24,25
 666 -631 666 -631 703 -630 c 128,-1,26
 740 -629 740 -629 777 -621.5 c 128,-1,27
 814 -614 814 -614 851 -602.5 c 128,-1,28
 888 -591 888 -591 926 -579.5 c 128,-1,29
 964 -568 964 -568 1004 -560 c 128,-1,30
 1044 -552 1044 -552 1086 -552 c 0,31,32
 1174 -552 1174 -552 1260 -640 c 0,33,34
 1345 -728 1345 -728 1366 -842 c 1,35,-1
 1354 -836 l 1,36,37
 1325 -786 1325 -786 1294 -754 c 128,-1,38
 1263 -722 1263 -722 1228 -722 c 0,39,40
 1189 -722 1189 -722 1147.5 -735 c 128,-1,41
 1106 -748 1106 -748 1063.5 -763 c 128,-1,42
 1021 -778 1021 -778 979 -791 c 128,-1,43
 937 -804 937 -804 898 -804 c 0,44,45
 841 -804 841 -804 784 -790.5 c 128,-1,46
 727 -777 727 -777 673 -751.5 c 128,-1,47
 619 -726 619 -726 569.5 -690.5 c 128,-1,48
 520 -655 520 -655 478 -610 c 0,49,50
 424 -553 424 -553 382.5 -484.5 c 128,-1,51
 341 -416 341 -416 313 -343 c 128,-1,52
 285 -270 285 -270 270.5 -197 c 128,-1,53
 256 -124 256 -124 256 -56 c 2,54,-1
 256 1104 l 2,55,56
 256 1223 256 1223 233 1325.5 c 128,-1,57
 210 1428 210 1428 160 1502 c 0,58,59
 136 1538 136 1538 105.5 1566 c 128,-1,60
 75 1594 75 1594 40 1618 c 1,61,-1
 58 1646 l 1,62,63
 88 1629 88 1629 121 1613 c 128,-1,64
 154 1597 154 1597 189 1588 c 0,65,66
 206 1583 206 1583 232.5 1582.5 c 128,-1,67
 259 1582 259 1582 291 1582 c 0,68,69
 300 1582 300 1582 321.5 1585.5 c 128,-1,70
 343 1589 343 1589 372 1594 c 128,-1,71
 401 1599 401 1599 435 1605 c 128,-1,72
 469 1611 469 1611 502 1616 c 128,-1,73
 535 1621 535 1621 564.5 1624.5 c 128,-1,74
 594 1628 594 1628 615 1628 c 0,75,76
 707 1628 707 1628 779 1548 c 0,77,78
 798 1526 798 1526 810 1508 c 128,-1,79
 822 1490 822 1490 830.5 1471 c 128,-1,80
 839 1452 839 1452 846.5 1430 c 128,-1,81
 854 1408 854 1408 865 1378 c 1,82,-1
 847 1374 l 1,83,84
 826 1400 826 1400 805.5 1415 c 128,-1,85
 785 1430 785 1430 764 1438 c 128,-1,86
 743 1446 743 1446 720.5 1448 c 128,-1,87
 698 1450 698 1450 673 1450 c 0,0,1
EndSplineSet
Validated: 33
EndChar

